<svg width="123" height="37" viewBox="0 0 123 37" fill="none" xmlns="http://www.w3.org/2000/svg">
<path d="M118.444 0H4.55556C2.03959 0 0 2.07068 0 4.625V32.375C0 34.9293 2.03959 37 4.55556 37H118.444C120.96 37 123 34.9293 123 32.375V4.625C123 2.07068 120.96 0 118.444 0Z" fill="#1D1D1F"/>
<path d="M62.086 16.8521C61.3183 16.854 60.5685 17.0869 59.9312 17.5214C59.2939 17.9559 58.7978 18.5725 58.5057 19.2932C58.2136 20.0139 58.1386 20.8064 58.2901 21.5704C58.4417 22.3345 58.813 23.0357 59.357 23.5855C59.9011 24.1353 60.5936 24.5089 61.3468 24.6592C62.1001 24.8094 62.8803 24.7296 63.5888 24.4296C64.2974 24.1297 64.9024 23.6232 65.3274 22.9742C65.7524 22.3251 65.9782 21.5627 65.9764 20.7834C65.9839 20.2635 65.8882 19.7474 65.6951 19.2658C65.5019 18.7842 65.2154 18.347 64.8524 17.9802C64.4894 17.6134 64.0574 17.3245 63.5821 17.1307C63.1069 16.9369 62.598 16.8421 62.086 16.8521ZM62.086 23.1699C61.6155 23.2033 61.1459 23.0922 60.7384 22.8511C60.3309 22.61 60.0043 22.25 59.8009 21.8179C59.5976 21.3858 59.527 20.9017 59.5984 20.4283C59.6697 19.955 59.8796 19.5143 60.2009 19.1637C60.5221 18.8131 60.9398 18.5687 61.3997 18.4623C61.8596 18.3559 62.3403 18.3925 62.7795 18.5672C63.2187 18.7418 63.5959 19.0466 63.8622 19.4419C64.1285 19.8371 64.2715 20.3045 64.2727 20.7834C64.2873 21.0868 64.242 21.3901 64.1394 21.6755C64.0368 21.9608 63.8789 22.2224 63.6751 22.4448C63.4713 22.6673 63.2257 22.846 62.9528 22.9705C62.6798 23.0951 62.3851 23.1628 62.086 23.1699ZM53.5944 16.8521C52.8268 16.854 52.0769 17.0869 51.4396 17.5214C50.8023 17.9559 50.3063 18.5725 50.0142 19.2932C49.7221 20.0139 49.6471 20.8064 49.7986 21.5704C49.9501 22.3345 50.3214 23.0357 50.8655 23.5855C51.4096 24.1353 52.102 24.5089 52.8553 24.6592C53.6085 24.8094 54.3888 24.7296 55.0973 24.4296C55.8058 24.1297 56.4108 23.6232 56.8358 22.9742C57.2608 22.3251 57.4867 21.5627 57.4849 20.7834C57.4923 20.2635 57.3966 19.7474 57.2035 19.2658C57.0104 18.7842 56.7238 18.347 56.3608 17.9802C55.9978 17.6134 55.5658 17.3245 55.0906 17.1307C54.6153 16.9369 54.1065 16.8421 53.5944 16.8521ZM53.5944 23.1699C53.1239 23.2033 52.6544 23.0922 52.2469 22.8511C51.8394 22.61 51.5127 22.25 51.3094 21.8179C51.1061 21.3858 51.0355 20.9017 51.1068 20.4283C51.1781 19.955 51.3881 19.5143 51.7093 19.1637C52.0306 18.8131 52.4483 18.5687 52.9082 18.4623C53.368 18.3559 53.8488 18.3925 54.288 18.5672C54.7271 18.7418 55.1044 19.0466 55.3707 19.4419C55.6369 19.8371 55.78 20.3045 55.7811 20.7834C55.7958 21.0868 55.7505 21.3901 55.6478 21.6755C55.5452 21.9608 55.3873 22.2224 55.1835 22.4448C54.9797 22.6673 54.7341 22.846 54.4612 22.9705C54.1883 23.0951 53.8936 23.1628 53.5944 23.1699ZM43.4993 18.0639V19.7289H47.4353C47.3736 20.5131 47.0525 21.2531 46.5242 21.8286C46.1294 22.237 45.6545 22.5567 45.1303 22.7671C44.6061 22.9774 44.0443 23.0737 43.4811 23.0496C42.3212 23.0496 41.2088 22.5818 40.3887 21.7492C39.5685 20.9165 39.1078 19.7872 39.1078 18.6096C39.1078 17.4321 39.5685 16.3027 40.3887 15.4701C41.2088 14.6374 42.3212 14.1696 43.4811 14.1696C44.5931 14.1528 45.6668 14.5816 46.4695 15.3629L47.6267 14.1881C47.0836 13.6428 46.4389 13.2131 45.7301 12.924C45.0214 12.6349 44.263 12.4923 43.4993 12.5046C42.6893 12.4726 41.8813 12.607 41.1237 12.8996C40.3661 13.1922 39.6745 13.6371 39.0902 14.2076C38.506 14.778 38.0413 15.4624 37.7238 16.2196C37.4063 16.9768 37.2427 17.7913 37.2427 18.6143C37.2427 19.4372 37.4063 20.2517 37.7238 21.0089C38.0413 21.7661 38.506 22.4505 39.0902 23.0209C39.6745 23.5914 40.3661 24.0363 41.1237 24.3289C41.8813 24.6215 42.6893 24.7559 43.4993 24.7239C44.2787 24.7555 45.0559 24.6193 45.7797 24.3244C46.5036 24.0295 47.1579 23.5824 47.6995 23.0126C48.6563 21.9456 49.1661 20.5421 49.1209 19.0999C49.1241 18.7527 49.0967 18.406 49.0389 18.0639H43.4993ZM84.7818 19.3589C84.5442 18.6492 84.0998 18.0295 83.5076 17.5818C82.9153 17.1342 82.2032 16.8797 81.4653 16.8521C80.9669 16.8511 80.4737 16.9539 80.016 17.1542C79.5583 17.3544 79.1459 17.6478 78.8043 18.0163C78.4627 18.3847 78.1992 18.8204 78.0301 19.2963C77.8609 19.7723 77.7897 20.2784 77.8209 20.7834C77.8131 21.6278 78.0746 22.4521 78.5663 23.1331C79.058 23.8142 79.7535 24.3155 80.549 24.5621C81.3444 24.8088 82.1972 24.7876 82.9798 24.5016C83.7624 24.2157 84.4329 23.6803 84.8911 22.9756L83.57 22.0506C83.373 22.3839 83.0937 22.6591 82.7597 22.8489C82.4257 23.0388 82.0485 23.1367 81.6658 23.1329C81.2709 23.1494 80.8803 23.0443 80.5453 22.8314C80.2103 22.6184 79.9466 22.3075 79.7889 21.9396L84.9731 19.7659L84.7818 19.3589ZM79.4973 20.6724C79.4789 20.3855 79.5171 20.0978 79.6098 19.8262C79.7025 19.5546 79.8478 19.3045 80.0371 19.0908C80.2264 18.877 80.456 18.7039 80.7122 18.5815C80.9684 18.4592 81.2462 18.3901 81.5291 18.3784C81.8217 18.3594 82.1133 18.4282 82.3677 18.5762C82.622 18.7242 82.8279 18.9449 82.9595 19.2109L79.4973 20.6724ZM75.288 24.4834H76.9918V12.9209H75.288V24.4834ZM72.5 17.7309H72.4362C72.1775 17.445 71.8615 17.2187 71.5095 17.0671C71.1575 16.9155 70.7776 16.8422 70.3953 16.8521C69.3996 16.9011 68.4607 17.3372 67.7731 18.07C67.0855 18.8027 66.702 19.776 66.702 20.788C66.702 21.8 67.0855 22.7733 67.7731 23.506C68.4607 24.2388 69.3996 24.6749 70.3953 24.7239C70.7816 24.7317 71.1648 24.6529 71.5176 24.493C71.8704 24.3331 72.1841 24.0961 72.4362 23.7989H72.5V24.3631C72.5 25.8709 71.7073 26.6756 70.4318 26.6756C70.0057 26.6661 69.5919 26.5283 69.2432 26.2796C68.8944 26.0309 68.6263 25.6826 68.4729 25.2789L66.9969 25.8986C67.2698 26.5945 67.7442 27.1898 68.3575 27.606C68.9708 28.0222 69.6941 28.2397 70.4318 28.2296C72.4271 28.2296 74.0762 27.0364 74.0762 24.1319V17.0834H72.5V17.7309ZM70.5411 23.1699C69.9441 23.1321 69.3838 22.8647 68.9743 22.4222C68.5647 21.9796 68.3367 21.3952 68.3367 20.788C68.3367 20.1808 68.5647 19.5964 68.9743 19.1538C69.3838 18.7113 69.9441 18.4439 70.5411 18.4061C70.8329 18.4189 71.1191 18.4911 71.3828 18.6185C71.6466 18.7459 71.8823 18.9259 72.0761 19.1477C72.2699 19.3695 72.4178 19.6286 72.511 19.9096C72.6042 20.1906 72.6407 20.4877 72.6184 20.7834C72.6433 21.08 72.6086 21.3787 72.5165 21.6613C72.4244 21.944 72.2769 22.2047 72.0827 22.4278C71.8885 22.6509 71.6517 22.8317 71.3868 22.9592C71.1218 23.0868 70.8341 23.1584 70.5411 23.1699ZM92.7631 12.9209H88.6813V24.4834H90.3851V20.0989H92.7631C93.2487 20.1343 93.7362 20.0678 94.1954 19.9034C94.6545 19.7391 95.0754 19.4805 95.4317 19.1438C95.7881 18.8071 96.0723 18.3994 96.2667 17.9462C96.461 17.4931 96.5613 17.0041 96.5613 16.5099C96.5613 16.0156 96.461 15.5267 96.2667 15.0735C96.0723 14.6203 95.7881 14.2127 95.4317 13.8759C95.0754 13.5392 94.6545 13.2806 94.1954 13.1163C93.7362 12.952 93.2487 12.8855 92.7631 12.9209ZM92.7631 18.4709H90.3851V14.5304H92.7995C93.3167 14.5304 93.8126 14.7389 94.1782 15.1102C94.5439 15.4814 94.7493 15.9849 94.7493 16.5099C94.7493 17.0349 94.5439 17.5384 94.1782 17.9096C93.8126 18.2808 93.3167 18.4894 92.7995 18.4894L92.7631 18.4709ZM103.277 16.8151C102.657 16.7763 102.039 16.9229 101.5 17.2369C100.96 17.5509 100.524 18.0185 100.243 18.5819L101.747 19.2201C101.899 18.9421 102.127 18.7146 102.403 18.5653C102.679 18.4159 102.993 18.351 103.305 18.3784C103.521 18.3527 103.74 18.3711 103.949 18.4323C104.159 18.4936 104.354 18.5965 104.523 18.7352C104.693 18.8738 104.834 19.0453 104.937 19.2398C105.041 19.4342 105.105 19.6476 105.127 19.8676V19.9786C104.579 19.6862 103.969 19.5339 103.35 19.5346C101.728 19.5346 100.07 20.4596 100.07 22.1431C100.086 22.501 100.173 22.8519 100.325 23.175C100.477 23.4982 100.692 23.7869 100.956 24.0242C101.221 24.2615 101.529 24.4424 101.864 24.5563C102.198 24.6701 102.552 24.7145 102.904 24.6869C103.331 24.7109 103.757 24.619 104.138 24.4207C104.52 24.2224 104.842 23.9248 105.072 23.5584H105.127V24.4834H106.767V20.0341C106.767 18.0084 105.254 16.8336 103.314 16.8336L103.277 16.8151ZM103.068 23.1514C102.512 23.1514 101.738 22.8646 101.738 22.1709C101.738 21.2459 102.703 20.9314 103.56 20.9314C104.101 20.9178 104.636 21.052 105.109 21.3199C105.051 21.8222 104.817 22.2865 104.448 22.6266C104.08 22.9668 103.602 23.1598 103.104 23.1699L103.068 23.1514ZM112.744 17.0834L110.794 22.0969H110.739L108.717 17.0834H106.894L109.928 24.0949L108.197 27.9891H110.02L114.639 17.0834H112.744ZM97.4371 24.4834H99.1318V12.9209H97.4371V24.4834Z" fill="white"/>
<path d="M9.5087 6.98663C9.21022 7.36441 9.06955 7.84596 9.11692 8.32788V28.7704C9.08918 29.2405 9.23907 29.7036 9.53603 30.0654L9.60892 30.1394L20.8611 18.6416V18.3641L9.58159 6.92188L9.5087 6.98663Z" fill="#5BC9F4"/>
<path d="M24.5956 22.4503L20.8418 18.6393V18.3618L24.5956 14.5508H24.6867L29.1511 17.1685C30.4176 17.8993 30.4176 19.1018 29.1511 19.8325L24.6958 22.404L24.5956 22.4503Z" fill="url(#paint0_linear_1_8358)"/>
<path d="M24.7027 22.4035L20.8578 18.5L9.50537 30.0163C9.76455 30.25 10.0965 30.3836 10.443 30.3938C10.7895 30.4039 11.1285 30.2899 11.4005 30.0717L24.7027 22.4035Z" fill="url(#paint1_linear_1_8358)"/>
<path d="M24.7027 14.5963L11.4005 6.92809C11.1285 6.70994 10.7895 6.59594 10.443 6.60609C10.0965 6.61624 9.76455 6.74988 9.50537 6.98359L20.8578 18.4998L24.7027 14.5963Z" fill="url(#paint2_linear_1_8358)"/>
<path d="M118.444 0.74C119.459 0.74 120.433 1.14931 121.15 1.87789C121.868 2.60647 122.271 3.59463 122.271 4.625V32.375C122.271 33.4054 121.868 34.3935 121.15 35.1221C120.433 35.8507 119.459 36.26 118.444 36.26H4.55556C3.54066 36.26 2.56733 35.8507 1.84969 35.1221C1.13205 34.3935 0.728889 33.4054 0.728889 32.375V4.625C0.728889 3.59463 1.13205 2.60647 1.84969 1.87789C2.56733 1.14931 3.54066 0.74 4.55556 0.74H118.444ZM118.444 0H4.55556C3.34735 0 2.18862 0.487275 1.33429 1.35463C0.479959 2.22199 0 3.39837 0 4.625L0 32.375C0 33.6016 0.479959 34.778 1.33429 35.6454C2.18862 36.5127 3.34735 37 4.55556 37H118.444C119.653 37 120.811 36.5127 121.666 35.6454C122.52 34.778 123 33.6016 123 32.375V4.625C123 3.39837 122.52 2.22199 121.666 1.35463C120.811 0.487275 119.653 0 118.444 0V0Z" fill="#1D1D1F"/>
<defs>
<linearGradient id="paint0_linear_1_8358" x1="28.322" y1="18.5005" x2="6.29135" y2="18.5005" gradientUnits="userSpaceOnUse">
<stop stop-color="#FEE000"/>
<stop offset="0.42" stop-color="#FBBC0E"/>
<stop offset="0.78" stop-color="#FAA418"/>
<stop offset="1" stop-color="#F99B1C"/>
</linearGradient>
<linearGradient id="paint1_linear_1_8358" x1="22.6071" y1="20.6183" x2="1.57506" y2="41.3345" gradientUnits="userSpaceOnUse">
<stop stop-color="#EF4547"/>
<stop offset="1" stop-color="#C6186D"/>
</linearGradient>
<linearGradient id="paint2_linear_1_8358" x1="1.79737" y1="-4.7454" x2="18.9725" y2="12.1627" gradientUnits="userSpaceOnUse">
<stop stop-color="#279E6F"/>
<stop offset="0.04" stop-color="#2BA06F"/>
<stop offset="0.46" stop-color="#53B26C"/>
<stop offset="0.8" stop-color="#6BBD6A"/>
<stop offset="1" stop-color="#74C169"/>
</linearGradient>
</defs>
</svg>
