<svg width="22" height="22" viewBox="0 0 22 22" fill="none" xmlns="http://www.w3.org/2000/svg">
<path fill-rule="evenodd" clip-rule="evenodd" d="M20.401 11.2206C20.8166 11.2206 21.1536 10.8836 21.1536 10.468C21.1536 5.06442 16.9349 0.845703 11.5313 0.845703C11.1157 0.845703 10.7787 1.18266 10.7787 1.59832C10.7787 2.01397 11.1157 2.35093 11.5313 2.35093C16.1035 2.35093 19.6483 5.89573 19.6483 10.468C19.6483 10.8836 19.9853 11.2206 20.401 11.2206ZM8.87018 8.51666C9.75192 7.63492 9.75192 6.20534 8.87018 5.32359L6.74147 3.19487C5.85972 2.31313 4.43014 2.31313 3.54839 3.19487L1.50702 5.23625C1.06146 5.68181 0.822364 6.29329 0.847503 6.9229C0.974816 10.1091 2.59902 13.2439 5.67711 16.322C8.75518 19.4 11.8899 21.0242 15.0761 21.1516C15.7057 21.1767 16.3172 20.9376 16.7628 20.4921L18.8042 18.4507C19.6859 17.5689 19.6859 16.1393 18.8042 15.2576L16.6755 13.1289C15.7937 12.2471 14.3641 12.2471 13.4824 13.1289L12.3349 14.2764C12.2454 14.3659 12.1033 14.3747 12.0035 14.297L11.1062 13.5992C10.0953 12.8129 9.18617 11.9038 8.3999 10.8929L7.70201 9.99561C7.62434 9.89574 7.63318 9.75366 7.72265 9.6642L8.87018 8.51666ZM2.57145 6.30049L4.61282 4.25911C4.90674 3.96519 5.38327 3.96519 5.67718 4.25911L7.80589 6.38783C8.09981 6.68175 8.09981 7.15827 7.80589 7.45219L6.65836 8.59972C6.03212 9.22596 5.9702 10.2205 6.51393 10.9196L7.21181 11.8169C8.0748 12.9264 9.07257 13.9242 10.1821 14.7872L11.0794 15.4851C11.7785 16.0288 12.773 15.9669 13.3993 15.3406L14.5468 14.1931C14.8407 13.8992 15.3173 13.8992 15.6112 14.1931L17.7399 16.3218C18.0338 16.6157 18.0338 17.0923 17.7399 17.3862L15.6985 19.4276C15.55 19.5761 15.3461 19.6558 15.1363 19.6474C12.3684 19.5368 9.57189 18.0878 6.74154 15.2575C3.91117 12.4271 2.4622 9.63058 2.3516 6.86271C2.34322 6.65284 2.42293 6.44901 2.57145 6.30049ZM17.9602 10.8228C17.9602 11.2384 17.6233 11.5754 17.2076 11.5754C16.792 11.5754 16.455 11.2384 16.455 10.8228C16.455 8.19027 13.8087 5.54402 11.1763 5.54402C10.7606 5.54402 10.4236 5.20706 10.4236 4.79141C10.4236 4.37575 10.7606 4.03879 11.1763 4.03879C14.6401 4.03879 17.9602 7.35895 17.9602 10.8228Z" fill="#FF6633"/>
</svg>
