<svg width="30" height="18" viewBox="0 0 30 18" fill="none" xmlns="http://www.w3.org/2000/svg">
<rect x="0.876831" width="28.513" height="17.9783" fill="white"/>
<rect x="1.34558" y="15.0625" width="27.5638" height="2.45401" fill="#F7B600"/>
<rect x="1.34558" y="0.480469" width="27.5638" height="2.45401" fill="#1A1F71"/>
<path fill-rule="evenodd" clip-rule="evenodd" d="M19.6651 10.1708C19.6651 9.10422 18.776 8.63898 18.0681 8.26859C17.5958 8.02144 17.2042 7.81653 17.2114 7.50338C17.2114 7.25443 17.4442 7.00547 17.9636 6.93434C18.5595 6.87909 19.1594 6.98348 19.7009 7.23664L20.0054 5.81403C19.4795 5.61354 18.9209 5.51106 18.3576 5.51172C16.6203 5.51172 15.4024 6.43642 15.3845 7.73456C15.3666 8.71261 16.2621 9.24609 16.9248 9.56618C17.5875 9.88626 17.8382 10.1174 17.8382 10.402C17.8382 10.8465 17.283 11.0599 16.7815 11.0599C16.1513 11.0772 15.5276 10.9301 14.9726 10.6331L14.6502 12.1091C15.2704 12.3563 15.9343 12.4772 16.6024 12.4648C18.4472 12.4825 19.6472 11.5756 19.6651 10.1708ZM12.3756 5.63672L9.5279 12.3764H7.66524L6.26824 6.9882C6.17869 6.65033 6.10705 6.54364 5.85631 6.40137C5.30452 6.13769 4.72052 5.9464 4.11902 5.83233L4.15484 5.63672H7.14584C7.55014 5.63853 7.89253 5.93316 7.9518 6.33024L8.68612 10.2247L10.513 5.63672H12.3756ZM25.8866 12.3764H24.2568L24.024 11.3628H21.7673L21.4091 12.3764H19.5643L22.215 6.13469C22.3384 5.83058 22.6371 5.63285 22.9673 5.63678H24.4717L25.8866 12.3764ZM22.2831 9.99389L23.2144 7.46875L23.7517 9.99389H22.2831ZM13.4289 12.3764L14.8796 5.63672H13.1244L11.6737 12.3764H13.4289Z" fill="#1A1F71"/>
</svg>
