<svg width="343" height="201" viewBox="0 0 343 201" fill="none" xmlns="http://www.w3.org/2000/svg">
<path d="M195.972 159.216C160.878 166.208 114.953 176.608 99.1747 160.803C83.3966 144.997 97.8428 102.851 120.057 73.6827C142.337 44.7218 172.241 28.6655 202.989 27.6601C233.594 26.5821 265.043 40.555 278 62.5957C290.737 84.699 285.125 114.943 270.155 131.754C255.184 148.564 230.922 152.15 195.972 159.216Z" fill="#EDEDED"/>
<path d="M105.411 143.179H121.547V130.042H129.03V115.145H121.547V94.0312H105.411V115.145H87.0532L113.596 58.7243H95.355L68.8125 115.145V130.042H105.411V143.179Z" fill="#FF6633"/>
<path d="M174.308 144.939C180.544 144.939 186.001 143.629 190.678 141.009C195.355 138.39 198.999 134.734 201.611 130.042C204.222 125.35 205.528 119.876 205.528 113.62V88.2835C205.528 82.0276 204.222 76.5537 201.611 71.8617C198.999 67.1698 195.355 63.514 190.678 60.8943C186.001 58.2747 180.544 56.9648 174.308 56.9648C168.072 56.9648 162.616 58.2747 157.938 60.8943C153.261 63.514 149.617 67.1698 147.006 71.8617C144.394 76.5537 143.089 82.0276 143.089 88.2835V113.62C143.089 119.876 144.394 125.35 147.006 130.042C149.617 134.734 153.261 138.39 157.938 141.009C162.616 143.629 168.072 144.939 174.308 144.939ZM174.308 129.807C171.502 129.807 168.969 129.143 166.708 127.813C164.447 126.484 162.655 124.685 161.329 122.417C160.004 120.15 159.342 117.608 159.342 114.793V86.9932C159.342 84.1781 160.004 81.6366 161.329 79.3688C162.655 77.1011 164.447 75.3025 166.708 73.9731C168.969 72.6437 171.502 71.979 174.308 71.979C177.115 71.979 179.648 72.6437 181.909 73.9731C184.169 75.3025 185.962 77.1011 187.287 79.3688C188.612 81.6366 189.275 84.1781 189.275 86.9932V114.793C189.275 117.608 188.612 120.15 187.287 122.417C185.962 124.685 184.169 126.484 181.909 127.813C179.648 129.143 177.115 129.807 174.308 129.807Z" fill="#FF6633"/>
<path d="M256.137 143.179H272.273V130.042H279.757V115.145H272.273V94.0312H256.137V115.145H237.78L264.322 58.7243H246.082L219.539 115.145V130.042H256.137V143.179Z" fill="#FF6633"/>
<path d="M105.411 143.179H121.547V130.042H129.03V115.145H121.547V94.0312H105.411V115.145H87.0532L113.596 58.7243H95.355L68.8125 115.145V130.042H105.411V143.179Z" fill="#FF6633"/>
<path d="M174.308 144.939C180.544 144.939 186.001 143.629 190.678 141.009C195.355 138.39 198.999 134.734 201.611 130.042C204.222 125.35 205.528 119.876 205.528 113.62V88.2835C205.528 82.0276 204.222 76.5537 201.611 71.8617C198.999 67.1698 195.355 63.514 190.678 60.8943C186.001 58.2747 180.544 56.9648 174.308 56.9648C168.072 56.9648 162.616 58.2747 157.938 60.8943C153.261 63.514 149.617 67.1698 147.006 71.8617C144.394 76.5537 143.089 82.0276 143.089 88.2835V113.62C143.089 119.876 144.394 125.35 147.006 130.042C149.617 134.734 153.261 138.39 157.938 141.009C162.616 143.629 168.072 144.939 174.308 144.939ZM174.308 129.807C171.502 129.807 168.969 129.143 166.708 127.813C164.447 126.484 162.655 124.685 161.329 122.417C160.004 120.15 159.342 117.608 159.342 114.793V86.9932C159.342 84.1781 160.004 81.6366 161.329 79.3688C162.655 77.1011 164.447 75.3025 166.708 73.9731C168.969 72.6437 171.502 71.979 174.308 71.979C177.115 71.979 179.648 72.6437 181.909 73.9731C184.169 75.3025 185.962 77.1011 187.287 79.3688C188.612 81.6366 189.275 84.1781 189.275 86.9932V114.793C189.275 117.608 188.612 120.15 187.287 122.417C185.962 124.685 184.169 126.484 181.909 127.813C179.648 129.143 177.115 129.807 174.308 129.807Z" fill="#FF6633"/>
<path d="M256.137 143.179H272.273V130.042H279.757V115.145H272.273V94.0312H256.137V115.145H237.78L264.322 58.7243H246.082L219.539 115.145V130.042H256.137V143.179Z" fill="#FF6633"/>
<path d="M111.146 58.6602L110.141 60.7988L84.6035 115.081H99.0986V93.9678H118.234V115.081H125.718V132.978H118.234V146.115H99.0986V132.978H62.5V116.246L62.6426 115.942L89.1855 59.5225L89.5908 58.6602H111.146ZM262.74 58.2812L261.734 60.4199L236.197 114.701H250.692V93.5879H269.828V114.701H277.312V132.599H269.828V145.736H250.692V132.599H214.094V115.866L214.236 115.563L240.779 59.1426L241.185 58.2812H262.74ZM169.018 54.3516C175.468 54.3516 181.186 55.7084 186.121 58.4727C191.041 61.2283 194.885 65.0845 197.631 70.0186C200.385 74.9678 201.737 80.7013 201.737 87.1699V112.507C201.737 118.976 200.385 124.709 197.631 129.658C194.885 134.592 191.041 138.449 186.121 141.205C181.186 143.969 175.468 145.325 169.018 145.325C162.567 145.325 156.85 143.969 151.915 141.205C146.995 138.449 143.151 134.593 140.404 129.658C137.65 124.709 136.298 118.976 136.298 112.507V87.1699C136.298 80.7013 137.65 74.9678 140.404 70.0186C143.151 65.0843 146.995 61.2284 151.915 58.4727C156.85 55.7085 162.567 54.3516 169.018 54.3516ZM169.018 72.3662C166.459 72.3663 164.192 72.9681 162.178 74.1523C160.139 75.3515 158.53 76.9661 157.334 79.0127C156.153 81.0342 155.551 83.3111 155.551 85.8799V113.68C155.551 116.249 156.153 118.525 157.334 120.547C158.53 122.593 160.139 124.208 162.178 125.407C164.192 126.592 166.459 127.194 169.018 127.194C171.576 127.194 173.844 126.591 175.857 125.407C177.896 124.208 179.506 122.593 180.702 120.547C181.883 118.525 182.484 116.248 182.484 113.68V85.8799C182.484 83.3111 181.883 81.0342 180.702 79.0127C179.506 76.9661 177.896 75.3515 175.857 74.1523C173.844 72.9682 171.576 72.3662 169.018 72.3662Z" stroke="#1D1D1F" stroke-width="3"/>
<ellipse cx="321.437" cy="47.1716" rx="6.3" ry="6.32" stroke="#1A1A1A" stroke-width="4" stroke-linecap="round" stroke-linejoin="round"/>
<path d="M229.395 162.871L228.791 164.778" stroke="#1A1A1A" stroke-width="4" stroke-linecap="round" stroke-linejoin="round"/>
<path d="M236.211 174.484L234.305 173.878" stroke="#1A1A1A" stroke-width="4" stroke-linecap="round" stroke-linejoin="round"/>
<path d="M220.012 169.328L218.106 168.722" stroke="#1A1A1A" stroke-width="4" stroke-linecap="round" stroke-linejoin="round"/>
<path d="M224.27 179.078L223.666 180.985" stroke="#1A1A1A" stroke-width="4" stroke-linecap="round" stroke-linejoin="round"/>
<path d="M73.6876 42.9311L60.899 50.52L74.8835 57.7884L73.6876 42.9311Z" stroke="#1A1A1A" stroke-width="4" stroke-linecap="round" stroke-linejoin="round"/>
</svg>
