<svg width="39" height="39" viewBox="0 0 39 39" fill="none" xmlns="http://www.w3.org/2000/svg">
<path d="M27.5713 19.8126C27.5707 18.5009 26.507 17.438 25.1953 17.4385C23.8836 17.439 22.8207 18.5028 22.8213 19.8145C22.8213 19.8145 22.8222 22.2041 25.1972 22.2032C27.5722 22.2022 27.5713 19.8126 27.5713 19.8126Z" fill="#FF6633"/>
<path d="M14.5093 20.6817C14.509 20.0258 13.9771 19.4944 13.3213 19.4946C12.6655 19.4949 12.134 20.0268 12.1343 20.6826C12.1343 20.6826 12.1347 21.8701 13.3222 21.8696C14.5097 21.8692 14.5093 20.6817 14.5093 20.6817Z" fill="#FF6633"/>
<path fill-rule="evenodd" clip-rule="evenodd" d="M2.95835 21.8744C2.95816 21.3974 3.34467 21.0106 3.82164 21.0104L34.6966 20.9982C35.1736 20.998 35.5604 21.3845 35.5606 21.8615L35.5622 25.9637C35.5641 30.7335 31.699 34.6016 26.9293 34.6035L11.5998 34.6096C6.83003 34.6115 2.96186 30.7464 2.95997 25.9767L2.95835 21.8744ZM4.68596 22.7373L4.68725 25.976C4.68876 29.7918 7.78329 32.8838 11.5991 32.8823L26.9286 32.8763C30.7444 32.8747 33.8365 29.7802 33.835 25.9644L33.8337 22.7258L4.68596 22.7373Z" fill="#86868B"/>
<path d="M19.2214 13.9189C18.5475 14.5207 17.6109 15.357 15.8529 15.6873C14.145 16.0083 13.2743 15.8522 12.5885 15.6746C12.5388 15.6618 12.4934 15.6499 12.4516 15.6389L12.4516 15.6389C12.2149 15.5769 12.0906 15.5443 11.9384 15.5345C11.7888 15.5248 11.5789 15.5388 11.2168 15.6597C10.7941 15.8007 10.591 16.1173 10.4579 16.8506C10.4142 17.0918 10.388 17.3131 10.3592 17.5564L10.3592 17.5564C10.3411 17.7087 10.3221 17.8696 10.2971 18.0494C10.2402 18.4581 10.1524 18.9509 9.93638 19.3833C9.70541 19.8457 9.57198 20.4725 9.50201 21.0341C9.46821 21.3054 9.45131 21.5433 9.44293 21.7123C9.43875 21.7965 9.43672 21.8629 9.43574 21.9068C9.43525 21.9288 9.43503 21.9451 9.43492 21.9551L9.43484 21.9655C9.43488 22.4423 8.26501 22.1686 7.78812 22.1687C7.73913 22.1688 7.69936 22.1717 7.66742 22.1764C7.45328 22.2079 7.59162 22.3197 7.66742 22.1764C7.69038 22.133 7.7076 22.0662 7.70756 21.9667L7.70756 21.9632L7.70758 21.957L7.70774 21.937C7.70792 21.9205 7.70825 21.8973 7.7089 21.8682C7.7102 21.8101 7.71275 21.728 7.71778 21.6267C7.7278 21.4246 7.74781 21.143 7.78799 20.8205C7.86599 20.1945 8.02884 19.3368 8.39116 18.6115C8.47179 18.45 8.53212 18.2006 8.58627 17.8114C8.6014 17.7026 8.61688 17.574 8.63357 17.4353C8.66763 17.1522 8.70675 16.827 8.7584 16.5423C8.9216 15.6427 9.31163 14.4746 10.6699 14.0212C11.1983 13.8449 11.6337 13.784 12.0494 13.8108C12.3828 13.8322 12.6854 13.913 12.9167 13.9748L12.9168 13.9748C12.9535 13.9846 12.9884 13.994 13.0213 14.0025C13.4777 14.1206 14.0915 14.2608 15.5339 13.9898C16.8169 13.7487 17.4528 13.1817 18.0873 12.6159L18.1493 12.5606C18.4704 12.2747 18.876 11.9149 19.3872 11.7022C19.9447 11.4701 20.5546 11.4367 21.2615 11.6277C21.9388 11.8108 22.444 12.1072 22.8282 12.4892C23.2028 12.8617 23.4193 13.2744 23.5742 13.6021C23.6035 13.664 23.6307 13.7219 23.6561 13.776L23.6562 13.7762C23.9307 14.3604 24.0011 14.5103 24.2963 14.6156C24.4351 14.6651 24.5847 14.6677 24.8218 14.5959C25.0266 14.534 25.2202 14.4442 25.4791 14.3243L25.4791 14.3242L25.4793 14.3242C25.5728 14.2808 25.6749 14.2335 25.789 14.1821C26.5971 13.8186 27.7152 13.4123 29.1129 14.047C29.8343 14.3746 30.2907 14.878 30.5226 15.4955C30.7375 16.0677 30.7314 16.6676 30.696 17.152C30.6809 17.3576 30.6581 17.5664 30.6375 17.7555L30.6375 17.7557L30.6256 17.8651C30.6013 18.0908 30.5824 18.287 30.5762 18.4678C30.5634 18.8464 30.6142 19.0255 30.6737 19.119C31.2261 19.9863 31.2338 20.8269 31.0907 21.4428C31.0209 21.7433 30.9166 21.9878 30.8285 22.1596C30.7842 22.2462 30.7429 22.3162 30.7104 22.368C30.6941 22.3939 30.6798 22.4154 30.6683 22.4322L30.6532 22.454L30.6473 22.4622L30.6448 22.4657L30.6431 22.468C30.6431 22.468 30.6426 22.4687 29.9782 21.9814L30.6426 22.4687C29.9783 22.3682 30.1494 22.7146 29.7648 22.4325C29.3835 22.1528 28.9691 21.8409 29.2427 21.457L29.2484 21.4481C29.2569 21.4345 29.2726 21.4085 29.2914 21.3717C29.3298 21.2969 29.3771 21.1862 29.4083 21.0519C29.4672 20.7983 29.4744 20.4514 29.2168 20.0469C28.8713 19.5044 28.8336 18.8912 28.85 18.409C28.8585 18.1594 28.8837 17.9082 28.9082 17.6804L28.9213 17.5593C28.9419 17.3706 28.9607 17.1981 28.9733 17.0259C29.0044 16.6011 28.9841 16.3118 28.9056 16.1027C28.8441 15.939 28.7279 15.7692 28.3988 15.6198C27.6957 15.3005 27.1725 15.4537 26.4977 15.7573C26.4326 15.7866 26.3618 15.8196 26.2865 15.8546L26.2865 15.8546C26.0019 15.987 25.6548 16.1486 25.3218 16.2493C24.8591 16.3892 24.3107 16.4546 23.716 16.2425C22.6954 15.8784 22.3192 15.029 22.0906 14.5127C22.0628 14.4499 22.0371 14.392 22.0128 14.3406C21.8829 14.0658 21.769 13.8719 21.6104 13.7141C21.4614 13.5659 21.2303 13.4085 20.8108 13.2952C20.421 13.1898 20.2084 13.2313 20.0508 13.2969C19.8467 13.3818 19.6444 13.5422 19.2978 13.8508L19.2214 13.9189Z" fill="#86868B"/>
<path d="M21.6313 14.7413C21.6321 16.7088 20.0377 18.3045 18.0702 18.3052C16.1027 18.306 14.5071 16.7117 14.5063 14.7441C14.5055 12.7766 16.0999 11.181 18.0674 11.1802C20.0349 11.1795 21.6305 12.7738 21.6313 14.7413Z" fill="#FF6633"/>
<path fill-rule="evenodd" clip-rule="evenodd" d="M2.24326 9.22692C2.66979 9.01344 3.18862 9.18616 3.4021 9.61269L9.3443 21.4853C9.55778 21.9119 9.38506 22.4307 8.95853 22.6442C8.532 22.8577 8.01316 22.6849 7.79969 22.2584L1.85749 10.3858C1.64401 9.95923 1.81672 9.4404 2.24326 9.22692Z" fill="#86868B"/>
<path fill-rule="evenodd" clip-rule="evenodd" d="M36.2657 9.21352C36.6924 9.42666 36.8655 9.94535 36.6524 10.3721L30.7196 22.2494C30.5065 22.6761 29.9878 22.8492 29.5611 22.6361C29.1344 22.423 28.9612 21.9043 29.1744 21.4776L35.1072 9.60021C35.3203 9.17351 35.839 9.00038 36.2657 9.21352Z" fill="#86868B"/>
</svg>
