<svg width="16" height="16" viewBox="0 0 16 16" fill="none" xmlns="http://www.w3.org/2000/svg">
<path fill-rule="evenodd" clip-rule="evenodd" d="M12.566 3.9126C12.8179 4.16455 12.8179 4.57304 12.566 4.82499L4.82402 12.5669C4.57206 12.8189 4.16357 12.8189 3.91162 12.5669C3.65967 12.315 3.65967 11.9065 3.91162 11.6545L11.6536 3.9126C11.9055 3.66065 12.314 3.66065 12.566 3.9126Z" fill="#1D1D1F"/>
<path fill-rule="evenodd" clip-rule="evenodd" d="M3.91162 3.9126C4.16357 3.66065 4.57206 3.66065 4.82402 3.9126L12.566 11.6545C12.8179 11.9065 12.8179 12.315 12.566 12.5669C12.314 12.8189 11.9055 12.8189 11.6536 12.5669L3.91162 4.82499C3.65967 4.57304 3.65967 4.16455 3.91162 3.9126Z" fill="#1D1D1F"/>
</svg>
