<svg width="21" height="21" viewBox="0 0 21 21" fill="none" xmlns="http://www.w3.org/2000/svg">
<path fill-rule="evenodd" clip-rule="evenodd" d="M16.0918 4.55298C16.4278 4.88891 16.4278 5.43357 16.0918 5.7695L5.76926 16.0921C5.43333 16.428 4.88867 16.428 4.55273 16.0921C4.2168 15.7562 4.2168 15.2115 4.55273 14.8756L14.8753 4.55298C15.2112 4.21704 15.7559 4.21704 16.0918 4.55298Z" fill="#1D1D1F"/>
<path fill-rule="evenodd" clip-rule="evenodd" d="M4.55273 4.55298C4.88867 4.21704 5.43333 4.21704 5.76926 4.55298L16.0918 14.8756C16.4278 15.2115 16.4278 15.7562 16.0918 16.0921C15.7559 16.428 15.2112 16.428 14.8753 16.0921L4.55273 5.7695C4.2168 5.43357 4.2168 4.88891 4.55273 4.55298Z" fill="#1D1D1F"/>
</svg>
