<svg width="39" height="39" viewBox="0 0 39 39" fill="none" xmlns="http://www.w3.org/2000/svg">
<path fill-rule="evenodd" clip-rule="evenodd" d="M10.8003 12.9829C10.9641 12.7998 11.1981 12.6951 11.4437 12.695L28.0687 12.6884C28.3144 12.6883 28.5484 12.7928 28.7124 12.9758C28.8763 13.1588 28.9545 13.4029 28.9275 13.6471L26.5609 35.023C26.5125 35.4604 26.1429 35.7914 25.7029 35.7916L13.8279 35.7963C13.3878 35.7965 13.018 35.4657 12.9692 35.0284L10.5857 13.6543C10.5585 13.4102 10.6366 13.166 10.8003 12.9829ZM12.4093 14.4219L14.6002 34.0687L24.9292 34.0646L27.1045 14.416L12.4093 14.4219Z" fill="#86868B"/>
<path fill-rule="evenodd" clip-rule="evenodd" d="M8.20249 7.62243C8.2023 7.14545 8.58881 6.75864 9.06578 6.75845L30.4408 6.74998C30.9178 6.74979 31.3046 7.1363 31.3048 7.61328L31.3071 13.5508C31.3073 14.0278 30.9208 14.4146 30.4438 14.4148L9.06882 14.4232C8.59185 14.4234 8.20503 14.0369 8.20484 13.5599L8.20249 7.62243ZM9.9301 8.48538L9.93177 12.6956L29.5795 12.6878L29.5778 8.4776L9.9301 8.48538Z" fill="#86868B"/>
<path d="M26.8847 23.052C26.8862 26.987 23.6975 30.1782 19.7625 30.1798C15.8274 30.1814 12.6362 26.9926 12.6347 23.0576C12.6331 19.1226 15.8218 15.9314 19.7568 15.9298C23.6919 15.9282 26.8831 19.1169 26.8847 23.052Z" fill="#FF6633"/>
<path fill-rule="evenodd" clip-rule="evenodd" d="M10.6014 1.4737C10.7169 1.01093 11.1857 0.729401 11.6485 0.844901L16.399 2.03052C16.6436 2.09157 16.8493 2.25646 16.9622 2.48192L19.339 7.23098C19.5525 7.65751 19.3798 8.17634 18.9533 8.38982C18.5267 8.6033 18.0079 8.43058 17.7944 8.00405L15.5953 3.6102L11.2302 2.52077C10.7675 2.40527 10.4859 1.93648 10.6014 1.4737Z" fill="#86868B"/>
</svg>
