<svg width="323" height="177" viewBox="0 0 323 177" fill="none" xmlns="http://www.w3.org/2000/svg">
<path d="M271.428 36.1829C280.123 60.1954 250.967 96.8102 227.779 124.74C204.591 152.669 187.37 171.743 165.375 174.297C143.551 177.022 117.123 163.057 101.437 139.385C85.5804 115.884 80.2948 82.3346 93.4235 55.7676C106.723 29.3709 138.266 9.78625 177.311 5.52872C216.355 1.27119 262.732 12.3408 271.428 36.1829Z" fill="#EDEDED"/>
<path d="M186.818 99.6938C187.492 98.3925 188.313 97.152 189.276 95.9952C196.541 87.2677 209.552 86.0087 218.355 93.1815C227.179 100.371 228.431 113.305 221.149 122.054C219.032 124.597 210.016 134.065 193.877 150.703C192.763 151.85 190.982 152.023 189.67 151.11C170.65 137.884 159.986 130.32 157.41 128.221C148.586 121.031 147.335 108.097 154.617 99.3489C161.881 90.6214 174.893 89.3624 183.696 96.5352C184.863 97.4859 185.906 98.546 186.818 99.6938Z" fill="#FF6633"/>
<path d="M182.818 94.6938C183.492 93.3925 184.313 92.152 185.276 90.9952C192.541 82.2677 205.552 81.0087 214.355 88.1815C223.179 95.3711 224.431 108.305 217.149 117.054C215.032 119.597 206.016 129.065 189.877 145.703C188.763 146.85 186.982 147.023 185.67 146.11C166.65 132.884 155.986 125.32 153.41 123.221C144.586 116.031 143.335 103.097 150.617 94.3489C157.881 85.6214 170.893 84.3624 179.696 91.5352C180.863 92.4859 181.906 93.546 182.818 94.6938Z" stroke="#1D1D1F" stroke-width="4" stroke-linecap="round" stroke-linejoin="round"/>
<path d="M230.972 5.45326C231.303 4.81773 231.705 4.2119 232.176 3.64694C235.734 -0.615435 242.107 -1.23031 246.418 2.27276C250.739 5.78407 251.352 12.101 247.786 16.3734C246.749 17.6157 242.334 22.2395 234.429 30.3651C233.884 30.9257 233.012 31.0098 232.369 30.564C223.054 24.1045 217.831 20.4105 216.57 19.3854C212.248 15.8741 211.635 9.55724 215.201 5.28484C218.759 1.02246 225.132 0.407582 229.443 3.91065C230.015 4.37497 230.526 4.89269 230.972 5.45326Z" fill="#FF6633"/>
<path d="M229.011 11.0118C229.342 10.3763 229.744 9.77049 230.215 9.20554C233.773 4.94316 240.146 4.32828 244.457 7.83135C248.779 11.3427 249.392 17.6596 245.825 21.932C244.788 23.1743 240.373 27.7981 232.468 35.9237C231.923 36.4843 231.051 36.5684 230.408 36.1226C221.093 29.6631 215.87 25.969 214.609 24.944C210.287 21.4327 209.674 15.1158 213.24 10.8434C216.798 6.58105 223.171 5.96618 227.482 9.46925C228.054 9.93356 228.565 10.4513 229.011 11.0118Z" stroke="#1D1D1F" stroke-width="4" stroke-linecap="round" stroke-linejoin="round"/>
<path d="M81.0529 31.507C81.7493 30.6543 82.544 29.8689 83.4301 29.1669C90.1154 23.8703 99.8746 24.9497 105.241 31.5791C110.62 38.2242 109.547 47.9255 102.846 53.2345C100.897 54.7783 92.8104 60.3491 78.3823 70.0932C77.387 70.7654 76.0512 70.6177 75.2268 69.7443C63.2831 57.0905 56.6088 49.8868 55.0386 47.947C49.6598 41.302 50.7328 31.6006 57.4338 26.2916C64.119 20.9951 73.8783 22.0745 79.2445 28.7039C79.9558 29.5826 80.5596 30.5227 81.0529 31.507Z" fill="#FF6633"/>
<path d="M86.881 29.214C87.5775 28.3613 88.3721 27.5759 89.2582 26.8739C95.9435 21.5773 105.703 22.6567 111.069 29.2862C116.448 35.9312 115.375 45.6326 108.674 50.9416C106.725 52.4853 98.6386 58.0561 84.2104 67.8002C83.2151 68.4725 81.8793 68.3247 81.0549 67.4513C69.1113 54.7975 62.437 47.5938 60.8668 45.654C55.4879 39.009 56.5609 29.3077 63.2619 23.9987C69.9472 18.7021 79.7064 19.7815 85.0727 26.411C85.7839 27.2897 86.3878 28.2298 86.881 29.214Z" stroke="#1D1D1F" stroke-width="4" stroke-linecap="round" stroke-linejoin="round"/>
</svg>
