<svg width="25" height="24" viewBox="0 0 25 24" fill="none" xmlns="http://www.w3.org/2000/svg">
<path fill-rule="evenodd" clip-rule="evenodd" d="M4.42231 6.88373C3.74301 8.03334 3.51944 9.54025 3.73536 10.8356C4.16005 13.3834 6.36967 15.6795 8.71408 17.4158C9.85741 18.2625 10.9752 18.9342 11.8086 19.3944C12.1933 19.6068 12.5154 19.7731 12.749 19.8898C12.9826 19.7731 13.3047 19.6068 13.6894 19.3944C14.5228 18.9342 15.6406 18.2625 16.784 17.4158C19.1284 15.6795 21.338 13.3835 21.7627 10.8356C21.9786 9.54027 21.755 8.03335 21.0756 6.88373C20.4216 5.77693 19.3552 5 17.7491 5C16.1419 5 15.1626 5.78198 14.549 6.60001C14.2361 7.01722 14.0241 7.43971 13.8908 7.75963C13.8247 7.91826 13.7795 8.04799 13.7518 8.13415C13.738 8.17712 13.7286 8.20893 13.7233 8.2277L13.7183 8.24572L13.7187 8.24416C13.7185 8.24522 13.7186 8.24466 13.7183 8.24572C13.7182 8.24607 13.7184 8.2455 13.7183 8.24572C13.6056 8.68873 13.2065 9.00001 12.749 9C12.2915 8.99999 11.8925 8.68955 11.7799 8.24651C11.7798 8.2463 11.7799 8.24684 11.7799 8.24651L11.7747 8.22766C11.7693 8.2089 11.76 8.17709 11.7462 8.13412C11.7185 8.04796 11.6733 7.91823 11.6072 7.7596C11.4739 7.43969 11.2619 7.0172 10.949 6.59999C10.3355 5.78198 9.35615 4.99999 7.74893 5C6.14271 5.00001 5.0763 5.77695 4.42231 6.88373ZM12.749 8C11.7788 8.24252 11.779 8.24295 11.7791 8.24337L11.7796 8.24538L11.7799 8.24651M12.749 5.68095C12.6861 5.58783 12.6195 5.49398 12.549 5.4C11.6625 4.218 10.1418 2.99999 7.74893 3C5.35502 3.00001 3.67142 4.22307 2.70045 5.86628C1.75478 7.46667 1.47843 9.45975 1.76258 11.1644C2.32439 14.5349 5.11478 17.2389 7.52376 19.023C8.75712 19.9364 9.95437 20.6551 10.8418 21.1452C11.2864 21.3907 11.6556 21.5801 11.9155 21.709C12.0455 21.7734 12.1484 21.8229 12.2199 21.8567C12.2557 21.8736 12.2837 21.8866 12.3032 21.8957L12.3263 21.9063L12.333 21.9094L12.3352 21.9104C12.3355 21.9105 12.3365 21.9109 12.749 21L12.3365 21.9109C12.5987 22.0297 12.8993 22.0297 13.1615 21.911L12.749 21C13.1615 21.911 13.1612 21.9111 13.1615 21.911L13.1649 21.9094L13.1717 21.9063L13.1947 21.8957C13.2143 21.8866 13.2423 21.8736 13.278 21.8567C13.3496 21.8229 13.4524 21.7734 13.5825 21.709C13.8424 21.5801 14.2116 21.3907 14.6562 21.1452C15.5436 20.6551 16.7409 19.9364 17.9743 19.023C20.3833 17.2389 23.1737 14.5349 23.7355 11.1644C24.0196 9.45973 23.7432 7.46665 22.7975 5.86627C21.8265 4.22307 20.1429 3 17.7491 3C15.3562 3 13.8355 4.21802 12.949 5.39999C12.8785 5.49398 12.8119 5.58783 12.749 5.68095Z" fill="#1A1A1A"/>
</svg>
