<svg width="323" height="175" viewBox="0 0 323 175" fill="none" xmlns="http://www.w3.org/2000/svg">
<path d="M233.404 30.8482C258.081 47.5875 282.407 67.0936 287.133 90.335C291.858 113.576 276.807 140.553 252.305 155.217C227.804 169.881 193.676 172.371 160.074 171.956C126.471 171.541 93.2189 168.36 68.8921 153.695C44.5654 139.031 28.9893 112.746 37.2149 93.1018C45.4404 73.4573 77.4677 60.3149 101.794 43.5756C126.296 26.8363 142.922 6.6384 163.574 3.45654C184.225 0.274689 208.902 14.1088 233.404 30.8482Z" fill="#EDEDED"/>
<path d="M186.676 36.207H199.509C202.913 36.207 206.177 37.5591 208.584 39.9658C210.99 42.3725 212.342 45.6368 212.342 49.0404V138.874C212.342 142.277 210.99 145.542 208.584 147.948C206.177 150.355 202.913 151.707 199.509 151.707H122.509C119.106 151.707 115.841 150.355 113.435 147.948C111.028 145.542 109.676 142.277 109.676 138.874V49.0404C109.676 45.6368 111.028 42.3725 113.435 39.9658C115.841 37.5591 119.106 36.207 122.509 36.207H135.342" stroke="#1D1D1F" stroke-width="5" stroke-linecap="round" stroke-linejoin="round"/>
<path d="M184.251 28.8281H145.751C142.207 28.8281 139.334 31.701 139.334 35.2448V48.0781C139.334 51.622 142.207 54.4948 145.751 54.4948H184.251C187.794 54.4948 190.667 51.622 190.667 48.0781V35.2448C190.667 31.701 187.794 28.8281 184.251 28.8281Z" fill="#FF6633"/>
<path d="M180.251 23.8301H141.751C138.207 23.8301 135.334 26.7029 135.334 30.2467V43.0801C135.334 46.6239 138.207 49.4967 141.751 49.4967H180.251C183.794 49.4967 186.667 46.6239 186.667 43.0801V30.2467C186.667 26.7029 183.794 23.8301 180.251 23.8301Z" stroke="#1D1D1F" stroke-width="5" stroke-linecap="round" stroke-linejoin="round"/>
<path d="M190.026 100.672H128.158" stroke="#1D1D1F" stroke-width="5" stroke-linecap="round" stroke-linejoin="round"/>
<path d="M190.026 131.656H128.158" stroke="#1D1D1F" stroke-width="5" stroke-linecap="round" stroke-linejoin="round"/>
<path d="M190.426 70H159.09H127.754" stroke="#1D1D1F" stroke-width="5" stroke-linecap="round" stroke-linejoin="round"/>
<circle cx="278.002" cy="29" r="10" stroke="#1D1D1F" stroke-width="3" stroke-linecap="round" stroke-linejoin="round"/>
<path d="M76.0703 19L75.4654 20.9063" stroke="#1D1D1F" stroke-width="3" stroke-linecap="round" stroke-linejoin="round"/>
<path d="M83.8848 34.0664L81.9784 33.4615" stroke="#1D1D1F" stroke-width="3" stroke-linecap="round" stroke-linejoin="round"/>
<path d="M62.9062 27.4141L60.9999 26.8092" stroke="#1D1D1F" stroke-width="3" stroke-linecap="round" stroke-linejoin="round"/>
<path d="M69.4141 39.9688L68.8092 41.8751" stroke="#1D1D1F" stroke-width="3" stroke-linecap="round" stroke-linejoin="round"/>
</svg>
