<svg width="21" height="21" viewBox="0 0 21 21" fill="none" xmlns="http://www.w3.org/2000/svg">
<path fill-rule="evenodd" clip-rule="evenodd" d="M9.95865 1.93757C10.2762 1.68748 10.7238 1.68748 11.0414 1.93757L18.0414 7.45007C18.252 7.61598 18.375 7.86934 18.375 8.1375V16.8C18.375 17.4463 18.1215 18.0683 17.6669 18.5286C17.212 18.9892 16.5926 19.25 15.9444 19.25H5.05556C4.4074 19.25 3.78802 18.9892 3.33306 18.5286C2.87847 18.0683 2.625 17.4463 2.625 16.8V8.1375C2.625 7.86934 2.74797 7.61598 2.95865 7.45007L9.95865 1.93757ZM4.375 8.56218V16.8C4.375 16.9891 4.44931 17.1684 4.57816 17.2988C4.70665 17.4289 4.87859 17.5 5.05556 17.5H15.9444C16.1214 17.5 16.2933 17.4289 16.4218 17.2988C16.5507 17.1684 16.625 16.9891 16.625 16.8V8.56218L10.5 3.73875L4.375 8.56218Z" fill="#686870"/>
<path fill-rule="evenodd" clip-rule="evenodd" d="M7 10.5C7 10.0168 7.39175 9.625 7.875 9.625H13.125C13.6082 9.625 14 10.0168 14 10.5V18.375C14 18.8582 13.6082 19.25 13.125 19.25C12.6418 19.25 12.25 18.8582 12.25 18.375V11.375H8.75V18.375C8.75 18.8582 8.35825 19.25 7.875 19.25C7.39175 19.25 7 18.8582 7 18.375V10.5Z" fill="#686870"/>
</svg>
