<svg width="68" height="70" viewBox="0 0 68 70" fill="none" xmlns="http://www.w3.org/2000/svg">
<path fill-rule="evenodd" clip-rule="evenodd" d="M52.6025 16.6997C51.9892 15.2637 51.3079 13.6686 48.4658 14.6453V6.89655C48.4658 2.89523 41.7191 0 33.4995 0C25.2799 0 18.5332 2.89523 18.5332 6.89655V41.1034C18.5332 45.1048 25.2799 48 33.4995 48C41.7191 48 48.4658 45.1048 48.4658 41.1034V20.4599C51.0011 20.7935 51.5481 22.7863 51.0747 24.8474L53.6835 25.2612C54.2687 21.4816 52.9829 18.9679 48.4658 18.7711V17.1948C50.2015 16.3589 51.2627 17.7252 52.3507 19.1262C53.243 20.275 54.1533 21.4471 55.4684 21.4471C57.3907 21.4471 58.9011 20.4816 59.9995 18.5505L57.6653 15.3781C57.2076 17.4931 56.1092 18.5505 54.37 18.5505C53.393 18.5505 53.013 17.6607 52.6025 16.6997ZM37.4893 25.737C36.1588 25.4131 34.7909 25.0801 33.4444 25.0801C32.0764 25.0801 30.6942 25.42 29.3546 25.7494C25.8572 26.6094 22.6505 27.398 20.7448 21.879C18.4201 15.1465 23.7268 16.6302 28.5654 17.9829C30.4428 18.5078 32.2498 19.013 33.5131 19.0109C34.7272 19.0088 36.4704 18.5356 38.2931 18.0407L38.2932 18.0407C43.09 16.7385 48.438 15.2867 46.1444 21.879C44.2309 27.378 40.9893 26.5889 37.4893 25.737ZM26.7652 20.7469C26.1758 20.4767 25.5923 20.2286 25.0416 20.049C24.9647 21.0237 25.3852 21.9303 26.3233 22.8138C27.1422 23.585 27.9139 23.675 28.7414 23.0086C29.0141 22.7081 29.2503 22.369 29.4502 21.9914C29.1135 21.8503 28.763 21.6901 28.4051 21.5219C28.4144 21.5796 28.4192 21.6387 28.4192 21.699C28.4192 22.3085 27.9274 22.8025 27.3208 22.8025C26.7141 22.8025 26.2223 22.3085 26.2223 21.699C26.2223 21.2932 26.4404 20.9386 26.7652 20.7469ZM21.8285 21.0094C22.183 19.9412 22.9685 19.6619 23.9632 19.7909C23.7955 21.1648 24.3396 22.458 25.5721 23.6188C25.9273 23.9533 26.2865 24.1983 26.6473 24.3556C26.0709 24.5544 25.4258 24.6804 24.712 24.7335C27.5027 25.2592 29.5041 24.4911 30.7162 22.4292C31.8802 22.7109 32.6757 22.4358 32.6757 20.8715C32.2704 22.4999 30.4248 21.3818 28.3639 20.1332C25.537 18.4205 22.305 16.4624 21.8285 21.0094ZM38.5863 21.4993C38.225 21.6858 37.8709 21.8604 37.5292 22.0068C37.7298 22.3874 37.9674 22.7288 38.2417 23.0312C39.0693 23.6977 39.8409 23.6076 40.6598 22.8364C41.642 21.9114 42.0568 20.9611 41.9275 19.9339C41.3347 20.111 40.7166 20.3947 40.0979 20.7084C40.4879 20.8778 40.7608 21.2677 40.7608 21.7217C40.7608 22.3311 40.2691 22.8251 39.6624 22.8251C39.0557 22.8251 38.564 22.3311 38.564 21.7217C38.564 21.6455 38.5716 21.5712 38.5863 21.4993ZM34.5711 21.7217C34.9859 22.3328 35.5622 22.4964 36.2384 22.4028C37.4475 24.5015 39.4584 25.286 42.2712 24.7562C41.5574 24.7031 40.9123 24.5771 40.3359 24.3782C40.6966 24.2209 41.0559 23.976 41.4111 23.6414C42.6641 22.4614 43.2055 21.1444 43.011 19.745C43.8494 19.7257 44.5931 20.0648 45.1546 21.032C44.6206 16.0912 41.563 18.0921 38.71 19.959C37.1029 21.0107 35.5606 22.0199 34.5711 21.7217ZM34.0219 19.6527C34.0219 20.4218 34.4338 21.032 35.1203 21.17C34.4338 21.3079 33.61 20.7562 34.0219 19.6527ZM46.5436 6.89655C46.5436 9.59882 40.7487 12.1379 33.4995 12.1379C26.2504 12.1379 20.4555 9.59882 20.4555 6.89655C20.4555 4.19428 26.2504 1.65517 33.4995 1.65517C40.7487 1.65517 46.5436 4.19428 46.5436 6.89655Z" fill="black"/>
<ellipse cx="33.5002" cy="6.89632" rx="6.45337" ry="2.75862" fill="#FF6633"/>
<path fill-rule="evenodd" clip-rule="evenodd" d="M10.2319 65.447H9.96179C9.96179 65.3863 9.87033 65.3241 9.68761 65.2605C9.23182 64.7631 9.00392 63.4705 9.00392 61.3827C8.97575 61.3827 8.96185 61.3206 8.96185 61.1962C8.96185 61.1644 8.97575 61.1484 9.00392 61.1484L8.96185 60.9144V60.4934C8.96185 60.4645 8.97575 60.4502 9.00392 60.4502C8.97575 60.3894 8.96185 60.3417 8.96185 60.3069L9.00392 59.1879H9.05038C9.05038 59.1561 9.03501 59.1401 9.00392 59.1401C9.04324 58.7181 9.07434 58.4693 9.09684 58.3939C9.09684 58.3622 9.08129 58.3464 9.05038 58.3464C9.05038 58.3144 9.06592 58.2681 9.09684 58.2076C9.12775 57.4212 9.14311 56.7979 9.14311 56.3381C9.14311 55.8291 9.08275 55.1741 8.96185 54.3732C9.09391 54.1245 9.23035 54 9.37101 54C9.5455 54 9.65103 54.0782 9.68761 54.2343C9.90984 54.2865 10.1066 54.4426 10.2784 54.703C10.2784 54.7866 10.3093 54.8791 10.3711 54.9805L10.4598 54.937H10.5063C10.5654 55.3621 10.5948 55.5949 10.5948 55.6353H10.6877V55.5443C10.817 55.5443 10.8929 55.7611 10.9154 56.195C10.9577 56.195 11.0182 56.4133 11.0969 56.8498C11.128 56.8498 11.1433 56.8658 11.1433 56.8976C11.1433 56.9293 11.128 56.9453 11.0969 56.9453L11.232 57.9256C11.2011 58.0935 11.1856 58.2336 11.1856 58.3464V58.8581C11.1856 58.9305 11.1715 58.9942 11.1433 59.0491C11.1715 59.1069 11.1856 59.1531 11.1856 59.1879C11.0759 60.3387 10.9859 60.9144 10.9154 60.9144L10.9619 61.2439V62.0853C10.9619 62.1546 10.9465 62.2169 10.9154 62.2718C10.9465 62.3269 10.9619 62.3889 10.9619 62.4585V62.506C10.9619 62.5669 10.931 62.5972 10.8692 62.5972C10.8692 62.5654 10.8536 62.5495 10.8227 62.5495V62.5972L10.9154 62.736V62.8315L10.7342 64.3278L10.5063 64.7008C10.405 64.7008 10.3135 64.7471 10.2319 64.8398C10.2319 64.8714 10.2473 64.8873 10.2784 64.8873L10.2319 65.356V65.447ZM13.3524 67.1007C14.8032 67.6324 15.8008 67.9129 16.3447 67.9416C16.3447 67.9416 17.8745 68.2872 18.5847 67.87C19.8651 67.118 19.5367 62.0201 19.5367 62.0201L19.6366 60.5629C19.6509 59.5366 19.556 58.4373 19.3518 57.2654L19.3315 57.211C19.2088 56.8841 18.8623 55.9607 18.9015 55.7606C18.9674 55.6151 19.0264 55.5474 19.0788 55.5583L19.2112 55.5856C19.2229 55.5262 19.2439 55.4995 19.2743 55.5057L19.4976 55.5521L19.5068 55.5053L19.8078 55.616L19.7996 55.6587C19.7112 55.6403 19.6611 55.6623 19.6489 55.7249L19.7491 55.6969L19.7904 55.7053L19.7813 55.7522L19.6677 55.8704C19.6589 55.9157 19.694 55.9701 19.7736 56.0338L19.8645 56.0526C19.8806 55.9703 19.9368 55.9186 20.0328 55.8971L20.041 55.8546L20.219 55.8913C20.2095 55.9394 20.3728 56.1312 20.709 56.466C20.9742 56.7982 21.2202 57.278 21.4475 57.9062C21.6667 58.8392 21.7554 59.4136 21.7131 59.6291L21.6676 59.6195C21.7212 60.138 21.7566 60.7485 21.7742 61.4512C21.7323 61.5046 21.7078 61.5481 21.7012 61.5823C21.7923 61.6009 21.8161 61.8758 21.7724 62.4067L21.7095 62.4864L21.6537 63.718C21.5512 63.9329 21.4958 64.063 21.4869 64.1083L21.4783 64.3943L21.5196 64.4028L21.6198 64.3748L21.6015 64.4684L21.5386 64.5483C21.5688 64.5545 21.5811 64.5733 21.575 64.6045C21.5447 64.5983 21.5264 64.6105 21.5203 64.6417L21.6109 64.6606C21.9954 64.0999 22.2732 63.648 22.4445 63.3047C22.4445 63.2382 22.536 63.1299 22.7189 62.9795L23.3982 61.4395C23.3673 61.4224 23.3517 61.3124 23.3517 61.1099C23.5655 60.6444 23.702 60.4117 23.7611 60.4117C23.9833 59.9142 24.3476 58.8544 24.8541 57.2323L25.2632 56.252C25.2323 56.1911 25.217 56.1448 25.217 56.1131C25.3294 56.1131 25.4953 55.9728 25.7148 55.6923H25.9005L25.9427 55.8788H25.9892C26.051 55.8788 26.0819 55.847 26.0819 55.7833L26.5335 55.8311H26.6262C26.6262 55.9237 26.6559 55.97 26.7149 55.97H26.7614C26.7614 55.8773 26.7923 55.8311 26.8543 55.8311H26.9006C26.9597 55.8397 26.9893 55.8715 26.9893 55.9266L27.082 55.8788H27.1243V56.0653H27.217C27.2763 56.0653 27.3057 56.0335 27.3057 55.97V55.9266L27.2635 55.8311L27.4914 55.7833H27.5801L27.5336 55.8788V56.0177C27.5954 56.0177 27.6263 56.0798 27.6263 56.2043H27.9894C27.9894 56.236 27.9739 56.252 27.943 56.252C27.957 56.4081 28.0033 56.4861 28.0821 56.4861V56.7636C28.099 57.0963 28.189 57.3304 28.3523 57.4663C28.3523 57.4808 28.3986 57.6371 28.4915 57.9349L28.5802 57.8871H28.6266L28.8079 58.5897C28.8979 58.5897 28.9429 58.6822 28.9429 58.8674C28.9122 58.8674 28.8966 58.8834 28.8966 58.9151L28.9893 58.9629V58.9151C28.9584 58.9151 28.9429 58.8993 28.9429 58.8674H29.0823C29.085 59.0437 29.1752 59.3865 29.3524 59.8956C29.3213 60.0661 29.306 60.1904 29.306 60.2684L29.3987 60.3162C29.3987 60.2844 29.4142 60.2684 29.4451 60.2684C29.4451 60.3321 29.5351 60.5344 29.7153 60.8757C30.6521 60.7832 31.2133 60.7369 31.3989 60.7369V60.8324H31.306L31.3525 61.0624L30.4453 61.3442L30.4875 61.4395C30.4875 61.5871 30.3525 61.6796 30.0824 61.7172V61.765H30.1709V61.8605L30.0824 61.9992V62.0902C30.3244 62.8797 30.5212 63.5809 30.6732 64.194C30.6732 64.2433 30.7028 64.3053 30.7617 64.3805V64.4283C30.7617 64.46 30.7463 64.4758 30.7152 64.4758L31.1247 65.6906C31.0966 65.6906 31.0825 65.7063 31.0825 65.7381C31.2118 65.7381 31.347 66.2196 31.4876 67.1826C31.3863 67.1826 31.3117 67.2606 31.2639 67.4167H30.9896C30.9896 67.5122 30.9137 67.5599 30.7617 67.5599C30.6549 67.4529 30.382 67.3272 29.9432 67.1826C29.9432 67.1335 29.7166 67.0408 29.2637 66.9051C29.2637 66.8703 29.1722 66.7921 28.9893 66.6708V66.5753L29.306 66.6231H29.4451C29.5042 66.6231 29.5337 66.5928 29.5337 66.5319C29.5337 66.4336 29.2469 65.6701 28.6729 64.2418C28.6729 64.0507 28.5209 63.5679 28.2171 62.793C27.6349 62.981 26.9992 63.1212 26.3098 63.2137C26.3098 63.1818 26.2944 63.166 26.2635 63.166C26.2635 63.2585 26.1721 63.3205 25.9892 63.3525C25.4743 63.4739 25.217 63.646 25.217 63.8686C25.0256 64.4933 24.8442 64.9284 24.6725 65.1743V65.3174C24.7626 65.3174 24.8076 65.3478 24.8076 65.4085V65.4563L24.7189 65.4085H24.6262C24.5362 65.6514 24.4912 65.8075 24.4912 65.8769L24.3983 65.8293C24.3983 65.9103 24.3068 66.0041 24.1239 66.1111C24.1239 66.169 23.958 66.4495 23.6261 66.9526L23.5332 66.9961H23.4446L23.2632 66.8573H23.2167C23.1577 66.866 23.1282 66.8977 23.1282 66.9526C23.1562 67.0104 23.1703 67.0566 23.1703 67.0914L23.0817 67.1392C23.0422 67.1074 22.9663 67.0914 22.8538 67.0914C22.8538 67.1839 22.7933 67.2301 22.6724 67.2301L21.9424 66.7186C21.7549 66.7186 21.5723 66.4917 21.3943 66.0382C21.3798 66.2419 21.3316 66.5527 21.2498 66.9708L21.1783 67.3363C21.1368 67.5491 21.087 67.6493 21.0291 67.6374L20.9848 68.106L20.9316 68.3782C20.7688 68.8873 20.5692 69.1956 20.3331 69.303C20.2704 69.3532 20.1577 69.3914 19.9969 69.4182C19.9902 69.4203 19.9845 69.4229 19.9775 69.4252C19.9101 69.4822 19.9044 69.5005 19.8979 69.5213C19.8922 69.5394 19.886 69.5595 19.838 69.6087C19.8032 69.6243 19.7233 69.6324 19.6004 69.6335V69.6346C19.5258 69.6685 19.431 69.6768 19.316 69.6593C19.1783 69.8257 19.072 69.9259 18.9974 69.9595L18.5478 69.9544C18.1386 70.0037 17.6292 70.0129 17.0198 69.9821C16.551 69.7484 15.9957 69.5749 15.3537 69.4607C15.0344 69.2103 14.7502 69.0845 14.5007 69.0836C14.4407 68.9433 14.0136 68.6422 13.2196 68.1798C12.9548 68.0279 12.7953 67.964 12.7412 67.9886C12.5412 67.7726 12.4026 67.682 12.3252 67.717L12.2523 67.5463C13.0098 67.8514 13.417 67.9911 13.4735 67.9653L13.4548 67.9219L13.0746 67.7335L13.0576 67.6938L13.1002 67.6747C13.1081 67.6933 13.3493 67.7901 13.8241 67.9657C14.2986 68.1411 14.6991 68.2293 15.0254 68.2302C15.2899 68.2814 15.4596 68.2898 15.5343 68.256L15.5767 68.2368C15.6232 68.2159 15.6382 68.1759 15.6221 68.1169C14.506 67.8285 13.913 67.6023 13.8426 67.4383L13.7802 67.5186C13.6954 67.5572 13.6103 67.4771 13.5253 67.2785L13.4442 67.3152L13.4799 67.3985L13.4373 67.4178C13.3875 67.3015 13.3246 67.1939 13.2487 67.0956L13.3338 67.0573L13.3524 67.1007ZM21.5525 64.7456L21.5551 64.7417L21.5483 64.7406C21.5498 64.7419 21.5512 64.7436 21.5525 64.7456ZM5.40535 66.1655C5.40535 66.3822 5.67824 66.5065 6.22402 66.5383C6.7698 66.5123 7.0427 66.4038 7.0427 66.2132C7.49557 65.5565 7.722 65.0419 7.722 64.6689C7.93581 63.3703 8.07226 62.4047 8.13134 61.7713V61.7279L7.95008 61.8189V61.7279L7.99636 61.4938C7.96545 61.4938 7.95008 61.4779 7.95008 61.4461H7.99636C7.99636 59.9683 8.0569 58.9086 8.1778 58.2665V58.2231H8.08927C8.08927 58.3477 8.04281 58.4098 7.95008 58.4098C7.95008 58.4415 7.96545 58.4878 7.99636 58.5485L7.95008 59.017C7.95008 59.0488 7.96545 59.0951 7.99636 59.1558C7.99636 59.1962 7.93581 59.3365 7.81492 59.5765H7.76846C7.76846 59.2643 7.72346 59.108 7.63348 59.108C7.63348 59.0473 7.67847 59.017 7.76846 59.017V58.6873C7.76846 58.485 7.78401 58.1742 7.81492 57.7547H7.722C7.722 57.8241 7.7081 57.8862 7.67993 57.9413L7.722 58.0366C7.64335 58.0482 7.58281 58.1249 7.54056 58.2665L7.58702 58.4575C7.58702 58.4865 7.57165 58.5008 7.54056 58.5008C7.54056 58.6164 7.55611 58.6944 7.58702 58.735C7.55611 58.735 7.51111 58.8448 7.45204 59.0648C7.48295 59.1167 7.49849 59.1789 7.49849 59.2511V59.2947L7.40558 59.4376L7.45204 59.5288H7.40558C7.40558 59.6329 7.42112 59.7112 7.45204 59.763C7.43228 59.9424 7.38729 60.0825 7.31705 60.1838L7.3593 60.2791H7.31705C7.31705 60.5279 7.25505 60.6521 7.13122 60.6521V60.6999L7.17768 60.9776C7.02587 61.2581 6.94978 61.5544 6.94978 61.8667H6.86126C6.86126 61.8349 6.87662 61.8189 6.90771 61.8189C6.90771 61.7409 6.89217 61.6166 6.86126 61.4461L6.94978 61.3073L6.90771 61.2118C6.96679 61.2118 6.99624 61.1338 6.99624 60.9776L6.94978 60.8864C6.98088 60.8864 7.02733 60.8084 7.08915 60.6521C7.05824 60.5972 7.0427 60.535 7.0427 60.4656C7.0427 60.4252 7.07233 60.2532 7.13122 59.9495V59.8108L7.08915 59.5288L7.13122 59.4376L7.08915 59.2033L7.17768 58.9693C7.14677 58.9144 7.13122 58.8521 7.13122 58.7828L7.22414 58.644H7.13122L7.27059 57.616L7.22414 57.5205C7.43228 57.1302 7.70517 56.8657 8.04281 56.7267V56.6314C8.04281 56.559 7.90637 56.497 7.63348 56.4447C7.35217 56.6269 7.13982 56.8771 6.99624 57.1952V57.2862H7.08915V57.334H6.99624L7.0427 57.4295C7.0427 57.5624 7.01179 57.6869 6.94978 57.8025L6.99624 57.8937C6.94557 58.2291 6.88522 58.4314 6.8148 58.5008L6.86126 58.5963C6.83035 58.5963 6.8148 58.6123 6.8148 58.644V58.6873H6.86126V59.2033C6.86126 59.296 6.89089 59.3423 6.94978 59.3423C6.90204 59.4118 6.85705 59.5519 6.8148 59.763C6.8148 60.4801 6.75426 60.8388 6.63336 60.8388V60.9298H6.72207C6.72207 60.9618 6.70798 60.9776 6.67982 60.9776L6.72207 61.2118C6.69097 61.2118 6.64598 61.2276 6.5869 61.2596C6.61781 61.4735 6.64891 61.6138 6.67982 61.6802C6.62074 61.7121 6.57428 61.7279 6.54044 61.7279V62.1921C6.48155 62.1921 6.45192 62.2543 6.45192 62.3786H6.40546C6.34638 62.3786 6.30139 62.2701 6.27048 62.0534C6.32956 61.8537 6.37455 61.5734 6.40546 61.2118C6.37455 61.1569 6.359 61.0947 6.359 61.0253C6.359 60.8055 6.3901 60.6335 6.45192 60.5092C6.42101 60.4513 6.40546 60.4051 6.40546 60.3703C6.30706 60.3703 6.23115 60.7448 6.17775 61.4938C6.20866 61.4938 6.22402 61.5081 6.22402 61.5371C5.98204 63.2867 5.70933 64.3305 5.40535 64.6689C5.34919 64.3882 5.28865 64.248 5.22391 64.248C4.71323 62.3234 3.83823 60.6504 3.15458 59.3432C2.82134 58.706 2.53357 58.1557 2.35561 57.7057C2.17289 57.4799 2.08144 57.3396 2.08144 57.2847H1.99273V57.3325L2.03498 57.428C1.95615 57.3325 1.83525 57.2847 1.6721 57.2847V57.2415H1.76484V57.146C1.52285 57.146 1.40195 57.0837 1.40195 56.9595L1.27429 56.964C1.08864 57.12 0.952195 57.1981 0.86495 57.1981C0.86495 57.0478 0.773682 56.9074 0.590778 56.7775C0.500607 56.8237 0.455613 56.87 0.455613 56.9162C0.421958 56.9162 0.375501 56.9003 0.316423 56.8685C0.265759 56.8685 0.236311 56.9003 0.227898 56.964L0.274172 57.0552C0.243262 57.0552 0.227898 57.071 0.227898 57.1027L0.134983 57.0552H0.0929149C0.0393242 57.0552 0.00841356 57.0869 0 57.1503V57.1981L0.0929149 57.5235C0.385378 57.5235 0.718628 58.5051 1.09285 60.4688H1.04639C1.07748 60.7695 1.1223 61.0022 1.18156 61.1671H1.1351C1.1351 61.2711 1.15046 61.3491 1.18156 61.4013L1.1351 61.6356C1.16601 61.9073 1.18156 62.0635 1.18156 62.1039C1.15046 62.3237 1.1351 62.4482 1.1351 62.4769C1.19692 62.7257 1.22801 63.0135 1.22801 63.3401C1.22801 63.6178 1.19692 64.0776 1.1351 64.7195C1.1351 65.3356 1.25746 65.7562 1.50219 65.9818V65.8863L1.45573 65.7909C1.48682 65.7909 1.50219 65.7765 1.50219 65.7475V65.6998H1.40945V65.6522C1.44036 65.6522 1.48536 65.6362 1.54444 65.6044C1.69643 65.8964 1.77233 66.1467 1.77233 66.3548C2.07614 66.4069 2.22795 66.5311 2.22795 66.728H2.2744C2.2744 66.6325 2.28849 66.524 2.31665 66.4025H2.40957C2.40957 66.712 2.50084 66.8667 2.68374 66.8667L3.18161 66.6802C3.15069 66.4574 3.13533 66.3332 3.13533 66.3072C3.13533 66.2145 3.16624 66.1683 3.22806 66.1683L3.18161 65.934V65.6044L3.13533 65.5134H3.18161C3.18161 65.4612 3.16624 65.2747 3.13533 64.9537L3.04662 64.9972C3.1057 64.7484 3.13533 64.5937 3.13533 64.533V64.2512L3.09308 64.1557C3.12125 64.1557 3.13533 64.1325 3.13533 64.0863C3.13533 63.7796 3.12125 63.508 3.09308 63.2707C3.11174 63.1571 3.17081 63.172 3.27013 63.3154C3.74842 64.4867 4.12685 65.156 4.40541 65.3237C4.64721 65.4713 4.76829 65.6114 4.76829 65.7445C5.01009 65.9556 5.13117 66.0799 5.13117 66.1177C5.16208 66.1177 5.17745 66.1017 5.17745 66.0699C5.25354 66.1335 5.32944 66.1655 5.40535 66.1655ZM17.3055 66.6444C17.2938 66.5829 17.2186 66.5555 17.0801 66.5623C17.0927 66.6288 16.9673 66.6965 16.7037 66.7659C16.5797 66.6179 16.4352 66.5181 16.2699 66.4664C16.2625 66.428 16.2137 66.3953 16.1232 66.3682L16.0859 66.376L16.102 66.4604C15.8724 66.2885 15.7541 66.1836 15.7468 66.1453C15.205 65.3554 14.8981 64.7724 14.8262 64.3959C14.7219 63.986 14.6082 63.6074 14.4849 63.2597L14.5105 63.1708L14.2859 62.4421L14.3271 62.4338L14.2698 62.3577L14.1273 61.6122L14.0114 61.2088L13.8469 61.242C13.8597 61.3086 13.8323 61.4564 13.7648 61.6855L13.8469 61.669C13.8265 61.995 13.8235 62.1964 13.8383 62.2733C13.8632 62.2682 13.8784 62.2796 13.8837 62.308C13.7965 62.3255 13.78 62.5297 13.8339 62.9204L13.9146 63.1197C13.9007 63.2766 13.8682 63.3975 13.8171 63.4825C13.8224 63.5105 13.8389 63.522 13.8663 63.5164C13.8868 63.9219 13.8808 64.181 13.848 64.2941C13.8828 64.3404 13.9029 64.3787 13.9089 64.4094C13.8286 64.5854 13.7815 64.9952 13.7674 65.639C13.7405 65.9319 13.7132 66.081 13.6858 66.0864L13.5664 66.1105C13.5075 66.4389 13.4156 66.6159 13.2911 66.6409C13.2302 66.5388 13.1799 66.4918 13.14 66.4999L13.0577 66.5164L12.8633 66.5957C12.8397 66.4728 12.7032 66.4152 12.4538 66.423L12.4552 66.2073C12.4287 66.0689 12.3621 66.0107 12.2549 66.0323L12.207 65.7826C12.1812 65.6467 12.1009 65.5925 11.9665 65.6198C11.8471 64.9948 11.8648 63.9166 12.0197 62.3851C12.0144 62.3567 11.998 62.3456 11.9705 62.3511L11.9698 61.9204L12.0602 61.9461L12.0124 61.6963C12.1044 61.6776 12.1344 61.5427 12.1019 61.2911L12.0468 61.0031C12.109 60.9905 12.1306 60.8863 12.1114 60.6908L12.0417 60.5293C12.0508 60.4424 12.0693 60.3962 12.0965 60.3904C12.0912 60.3623 12.0748 60.3509 12.0473 60.3565C12.0313 60.123 12.0356 59.9226 12.0607 59.7553C12.023 59.7071 12.0013 59.6677 11.9952 59.637C12.0428 59.6007 12.0801 59.5799 12.1075 59.5744C12.0669 59.5109 12.0142 59.3777 11.9499 59.1753C11.9846 59.1681 12.0223 59.0741 12.0627 58.8931C12.025 58.8449 12.0036 58.8068 11.9981 58.7784L12.0393 58.7701L11.9821 58.694C12.0099 57.9596 11.9804 57.1487 11.8937 56.2619C11.9806 56.1886 12.0826 56.1401 12.1997 56.1164L12.3193 56.0921C12.3468 56.0867 12.3632 56.098 12.3685 56.1262L12.4428 56.0673C12.7416 56.1826 12.9119 56.3489 12.9535 56.5667L13.0275 56.5078L13.1471 56.4836L13.1554 56.526L13.1332 56.614L13.5333 56.5334L14.0256 56.6932L14.0785 56.7665L13.9589 56.7906L13.9669 56.8327C14.077 57.1111 14.2422 57.3929 14.4624 57.6785C14.8094 58.1801 15.0435 58.7487 15.1648 59.384L15.2756 59.9641C15.3579 59.9474 15.5207 60.3588 15.7638 61.198L15.8035 61.4056C15.8089 61.4336 15.7978 61.4505 15.7703 61.456L15.827 61.5286C15.8514 61.6566 15.8377 61.8749 15.7852 62.1832C15.9265 62.3409 16.0196 62.5363 16.0641 62.7694L16.0804 62.8538L16.1587 62.838C16.2135 62.8269 16.2466 62.634 16.2578 62.2595L16.2989 62.2513L16.2417 62.1749L16.2181 62.052C16.3275 61.825 16.3544 61.1601 16.2988 60.0566C16.3454 59.9222 16.378 59.659 16.3962 59.267C16.5206 58.699 16.6454 58.3294 16.7705 58.158L16.8116 58.1497L16.8277 58.2343L16.8021 58.323L16.8923 58.3488L16.9334 58.3405L16.9254 58.2982L16.8431 58.3148L16.8689 58.226L16.8608 58.1835C16.8553 58.1555 16.8391 58.144 16.8116 58.1497C16.8297 58.0953 16.8328 58.0376 16.8211 57.9763L16.8996 57.9604L16.9018 58.1752C16.989 58.1576 17.0618 57.9568 17.1205 57.5725L17.1123 57.5302L17.199 57.5567L17.191 57.5144C17.1635 57.52 17.1471 57.5086 17.1416 57.4806C17.184 57.4719 17.2338 57.4341 17.2906 57.3666C17.2956 57.3922 17.3106 57.4025 17.3355 57.3975C17.4617 57.0288 17.6045 56.8284 17.764 56.7962L17.8051 56.7879L17.8366 56.9532L17.5535 57.4413L17.4668 57.4148L17.3435 57.4398L17.3515 57.4821L17.5123 57.4495L17.5284 57.5341C17.3715 57.728 17.2963 57.843 17.3033 57.8788C17.2133 58.2881 17.1088 59.1976 16.9901 60.6073L16.9982 60.6496L17.0355 60.6421C17.1416 60.3575 17.1963 59.9873 17.1999 59.5315L17.332 58.9025L17.3744 58.8938C17.3795 58.7785 17.4032 58.7165 17.4458 58.708L17.4868 58.6995C17.5 58.7687 17.5408 58.8324 17.6088 58.8905L17.619 58.944C17.6384 58.9322 17.6552 58.9249 17.6694 58.922L17.6777 58.9643C17.6369 59.1852 17.606 59.4629 17.5844 59.797L17.6255 59.7887C17.6879 59.7763 17.7267 59.5396 17.7422 59.079C17.9041 59.0463 18.0036 58.768 18.0407 58.2446L18.123 58.2279C18.1342 58.2869 18.115 58.477 18.0651 58.7983C18.1324 58.7846 18.1827 58.8316 18.2161 58.9393L18.2149 59.1551C18.2578 59.2315 18.2931 59.267 18.3206 59.2614L18.3433 60.0309C18.3595 60.1153 18.4074 60.1495 18.4872 60.1335L18.4945 60.1719C18.5141 61.1548 18.4808 62.2932 18.3943 63.5876C18.305 64.0685 18.1311 64.7632 17.8726 65.6719C17.6736 66.2282 17.5604 66.5091 17.533 66.5147L17.3055 66.6444ZM17.4501 59.094L17.4277 58.9766C17.4419 58.9767 17.4564 58.9779 17.471 58.9803L17.4913 59.0858L17.4501 59.094ZM17.4379 58.5983L17.479 58.59C17.4633 58.5082 17.4818 58.462 17.5341 58.4512L17.5098 58.3245L17.4724 58.332C17.4887 58.4165 17.4556 58.4672 17.3733 58.4838C17.411 58.5321 17.4326 58.5702 17.4379 58.5983ZM6.35204 60.2899H6.3985C6.3985 60.1628 6.38314 60.0384 6.35204 59.9169L6.3985 59.6827V59.6394H6.30998C6.30998 59.7233 6.27888 59.8158 6.21706 59.9169L6.26352 60.0124C6.23261 60.0124 6.21706 60.0282 6.21706 60.0602V60.1512C6.26498 60.2437 6.30998 60.2899 6.35204 60.2899ZM24.8753 59.1589C24.94 59.1444 25.0004 59.0664 25.0567 58.9246C25.0286 58.8697 25.0147 58.8075 25.0147 58.7381C25.0849 58.7381 25.2213 58.4734 25.4238 57.9444L25.3775 57.8489V57.8011C25.5434 57.6075 25.6334 57.3429 25.6475 57.0073H25.4661V57.1028H25.559C25.1032 58.0948 24.8753 58.7801 24.8753 59.1589ZM16.6787 63.9026C16.679 64.0542 16.6516 64.2019 16.5965 64.3461C16.5492 64.3557 16.5166 64.3343 16.4987 64.282L16.4592 64.0747L16.5003 64.0664L16.6792 63.2561C16.6739 63.2281 16.6523 63.1899 16.6146 63.1416C16.6571 63.1329 16.7052 63.094 16.7591 63.0246L16.7674 63.0668L16.7123 63.2057L16.7284 63.2901L16.8069 63.2743L16.7835 63.1512L16.8246 63.1431L16.8714 63.3888C16.7952 63.7208 16.7308 63.8921 16.6787 63.9026ZM26.1557 61.7367C26.3104 61.7367 26.8112 61.6125 27.6579 61.3637V61.3162C27.6579 61.2494 27.4455 60.5801 27.0206 59.3077V59.2644C26.8772 59.4581 26.7254 59.8006 26.565 60.2924C26.4974 60.7232 26.3765 61.1424 26.2021 61.5502H26.1557V61.7367ZM30.2239 64.0527V64.1004C30.134 64.1004 29.9975 63.7417 29.8146 63.0246C29.9357 63.0246 29.9961 63.1344 29.9961 63.3544H30.089L30.1775 63.3067C30.1775 63.3384 30.193 63.3544 30.2239 63.3544L30.1775 63.5885C30.2086 63.8603 30.2239 64.0151 30.2239 64.0527ZM16.8381 62.1229C16.8181 62.0178 16.8564 61.8531 16.9533 61.6288C16.9718 61.5771 16.9723 61.5051 16.9548 61.413L16.9394 61.3323L16.8982 61.3406C16.8633 61.3477 16.8203 61.5559 16.7691 61.9652L16.6458 61.9902L16.6773 62.1552L16.7184 62.147L16.7392 62.1318C16.7382 62.2216 16.7071 62.4157 16.6458 62.714L16.6524 62.9719L16.6597 63.0105L16.7009 63.002C16.7614 62.4393 16.79 62.1475 16.7859 62.127L16.781 62.1012L16.7934 62.0921C16.7982 62.1175 16.8132 62.1278 16.8381 62.1229Z" fill="black"/>
<path fill-rule="evenodd" clip-rule="evenodd" d="M37.3815 66.7719L36.4664 66.6783L36.3776 66.7251C36.0046 66.6316 35.7306 66.4941 35.5556 66.3126C35.16 65.9863 34.9624 65.7425 34.9624 65.5808C34.9624 65.5526 34.9314 65.4293 34.8691 65.2108V65.1683L34.9158 65.0747C34.8763 65.0747 34.7859 64.9528 34.6447 64.7089V64.5726C34.6447 64.5414 34.7505 64.4493 34.9624 64.296L34.9158 64.0665C35.4496 63.6695 35.8154 63.4709 36.013 63.4709V63.5178C36.013 63.6396 35.9058 63.8836 35.6911 64.2494V64.296C35.7561 64.296 35.9241 64.3416 36.1952 64.4323L36.9707 64.3429V64.3897C37.174 64.3585 37.3718 64.3117 37.5639 64.2494L37.8816 64.296C38.3222 64.2254 38.8702 63.9501 39.5256 63.4709C39.712 63.3149 39.8942 63.071 40.0721 62.7393C40.2245 62.5776 40.3008 62.4244 40.3008 62.2798C38.6088 61.914 37.6965 61.6843 37.5639 61.5908C37.5639 61.6529 37.5327 61.6843 37.4706 61.6843C36.4002 61.4261 35.7772 61.1824 35.602 60.9526C35.4722 60.9526 35.2434 60.7996 34.9158 60.4931C34.8366 60.4847 34.67 60.2861 34.4157 59.8976C34.3424 59.8976 34.2662 59.7914 34.1871 59.5784C34.0655 59.5784 34.0049 59.4254 34.0049 59.1191C34.0049 58.6087 34.1558 58.1648 34.4581 57.7877C34.6418 57.4757 34.855 57.2163 35.0979 57.0092C35.2419 56.8647 35.3337 56.7127 35.3734 56.554C35.8393 56.2166 36.1135 56.0479 36.1952 56.0479C36.8817 56.1187 37.383 56.2405 37.6994 56.4135C38.3999 56.788 38.7502 57.1396 38.7502 57.4685V57.8345H38.657V57.8812L38.7036 57.9748L38.4748 58.0174C38.3758 58.0174 38.1484 57.8956 37.7925 57.6514C37.2671 57.867 36.9481 58.0202 36.835 58.1111C36.8097 58.2557 36.6119 58.4386 36.2419 58.6596C36.2419 58.7107 36.0894 58.8639 35.7844 59.1191C35.6008 59.397 35.5089 59.5644 35.5089 59.6212C36.119 59.8961 37.1232 60.1712 38.5212 60.4465C39.7869 60.7527 40.5621 61.059 40.8475 61.3653C41.7626 61.8218 42.2202 62.1721 42.2202 62.4159H42.1269C42.1269 62.3364 41.9603 62.1849 41.627 61.9606H41.5337V62.0032C41.6722 62.3777 41.8854 62.6229 42.1736 62.7393C42.1736 62.7789 42.2498 62.9165 42.4024 63.1518C42.3401 63.1604 42.3091 63.1901 42.3091 63.2412L42.3557 63.6538C42.3557 63.8865 42.1736 64.0692 41.8092 64.2027C41.8092 64.3019 41.6722 64.455 41.3982 64.662C41.3982 64.8153 41.1538 65.0293 40.6653 65.3044C40.6653 65.3638 40.4675 65.5469 40.0721 65.8531C39.9818 65.89 39.9364 65.9369 39.9364 65.9935H39.8899L39.8009 65.9468C39.8009 66.1679 39.5115 66.3821 38.9324 66.589C38.9324 66.4955 38.9012 66.4487 38.8391 66.4487C38.7403 66.5875 38.5736 66.6797 38.3393 66.7251L38.0638 66.6783H37.9747C37.907 66.6783 37.8464 66.6939 37.7925 66.7251L37.6994 66.6783C37.6456 66.7096 37.585 66.7251 37.5173 66.7251L37.4282 66.6783L37.3815 66.7719ZM46.1899 66.2662H46.0966C45.7831 66.2662 45.5699 66.2209 45.4568 66.1302L45.2746 66.177C45.2267 66.177 45.1361 66.116 45.0035 65.9939L44.9102 66.0365C44.6985 65.9882 44.5007 65.8053 44.3171 65.4876L44.224 65.5344H44.1349C43.4965 65.0071 43.1774 64.6555 43.1774 64.4796C42.6604 63.4076 42.402 62.1853 42.402 60.8127C42.3794 60.8127 42.3328 60.3702 42.2621 59.4856H42.3087C42.2467 59.3294 42.2156 59.2232 42.2156 59.1664C42.2382 58.982 42.2693 58.8898 42.3087 58.8898L42.0335 57.5626C42.0898 57.5626 42.1365 57.4251 42.1732 57.15C42.2946 57.15 42.3554 57.1188 42.3554 57.0565V57.0097H42.402L42.5376 57.1033C42.6026 57.1033 42.6929 57.0111 42.8088 56.8268C42.8426 56.8268 42.8892 56.8111 42.9486 56.7799V56.8736L43.1774 56.8268C43.1774 56.9204 43.1915 56.9671 43.2198 56.9671C43.262 56.9359 43.3384 56.9204 43.4484 56.9204C43.4484 56.991 43.5403 57.0364 43.7239 57.0565V57.1033L43.6774 57.1926C43.7395 57.1926 43.7705 57.2237 43.7705 57.2861H43.813C43.844 57.2861 43.9669 57.2549 44.1815 57.1926H44.3171V57.5158L44.224 57.6519L44.3637 57.7455L44.224 58.4305C44.2352 58.4928 44.2662 58.524 44.3171 58.524C44.286 58.8813 44.2706 59.1409 44.2706 59.3025V59.3493L44.3171 59.8044H44.2706L44.3171 59.898V59.9449C44.3171 60.4355 44.3622 61.3203 44.4526 62.5992H44.4061C44.4372 62.6702 44.4992 62.9154 44.5925 63.3353L44.5459 63.565C44.6052 63.6642 44.6348 63.7549 44.6348 63.8372L44.5925 63.9308C44.7422 63.9308 44.8171 64.0839 44.8171 64.3901C44.8678 64.3901 44.9301 64.4809 45.0035 64.6625C45.1532 64.6625 45.5176 64.2965 46.0966 63.565C46.4327 62.9949 46.7674 62.0164 47.1007 60.6298V59.9873L47.0541 59.6683H47.1007L47.0541 59.5789C47.0541 59.5082 47.0697 59.4457 47.1007 59.3919C47.0104 58.1951 46.9652 57.4776 46.9652 57.2394C47.0752 57.0919 47.2124 56.9698 47.3762 56.8736V56.7373H47.4651V56.8268H47.6006C47.7562 56.614 47.893 56.5076 48.0116 56.5076L48.0583 56.597L48.1516 56.5544H48.2404V56.6905H48.2871L48.5159 56.6438L48.7912 56.8268V56.9671H48.9734V56.8736C49.0329 56.9047 49.078 56.9204 49.1091 56.9204C49.1684 56.8891 49.2136 56.8736 49.2446 56.8736C49.4593 57.072 49.5665 57.3159 49.5665 57.605C49.5355 57.605 49.5199 57.6207 49.5199 57.6519C49.5794 57.6633 49.609 57.6945 49.609 57.7455C49.5186 57.8165 49.4734 57.9227 49.4734 58.0647H49.4268L49.3379 57.7881C49.2756 57.7994 49.2446 57.8305 49.2446 57.8816V58.524C49.2446 58.8133 49.229 59.1649 49.198 59.5789L49.2446 59.8044C49.0555 61.0408 48.8733 61.8663 48.6981 62.2802C48.6669 62.2802 48.6514 62.2959 48.6514 62.3271V62.7397L48.6981 63.195C48.5765 63.195 48.5159 63.3183 48.5159 63.565H48.4693C48.4693 63.6642 48.5301 64.0002 48.6514 64.573H48.6048L48.6514 64.6625V64.8922C48.6514 64.9602 48.636 65.0213 48.6048 65.0751C48.636 65.1347 48.6514 65.18 48.6514 65.2112C48.5837 65.2112 48.5075 65.0594 48.4226 64.7561H48.3802C48.3802 64.7843 48.3648 64.7985 48.3337 64.7985C48.3931 65.122 48.4693 65.4437 48.5626 65.7642C48.5313 65.8239 48.5159 65.8693 48.5159 65.9004C48.4678 65.9004 48.3618 65.5798 48.198 64.939H48.1516L48.1049 65.0283V65.0751H48.198V65.3515H48.2871C48.2871 65.3829 48.2715 65.3983 48.2404 65.3983L48.2871 65.4876V65.6238L48.198 65.5813C48.198 65.6096 48.1826 65.6238 48.1516 65.6238C48.0583 65.4422 47.951 65.1063 47.8295 64.6156H47.7406C47.6981 64.6156 47.6375 64.7532 47.5584 65.0283C47.4991 65.0283 47.3465 65.197 47.1007 65.5344L47.1474 65.6238C47.0655 65.7258 46.8523 65.818 46.5076 65.9004C46.2957 66.0763 46.1899 66.1982 46.1899 66.2662ZM48.8814 67.002H48.7458C48.7146 66.7779 48.6836 66.6404 48.6525 66.5893C48.6836 66.5384 48.6992 66.4619 48.6992 66.3598H48.7923V66.5425L48.7458 66.6319C48.8052 66.6631 48.8503 66.6785 48.8814 66.6785V66.7254L48.7923 66.8616C48.8516 66.8729 48.8814 66.9042 48.8814 66.9551V67.002ZM59.5725 67.9544L59.3904 67.8651C59.331 67.8935 59.2844 67.9077 59.2506 67.9077L59.0682 67.8651C59.0091 67.8935 58.9639 67.9077 58.9327 67.9077C58.9327 67.8284 58.8255 67.7674 58.6108 67.7248C58.543 67.546 58.4215 67.3944 58.2463 67.2696C58.0655 66.9406 57.9286 66.4826 57.8354 65.8955L57.8819 65.8019C57.8509 65.7423 57.8354 65.697 57.8354 65.6658H57.8819C57.8283 65.5666 57.7675 65.1385 57.6997 64.381H57.7464C57.69 64.1968 57.5374 62.7618 57.2887 60.0762C57.2577 60.0762 57.2125 59.831 57.1532 59.3404C57.1532 59.3092 57.1688 59.2637 57.1999 59.2041C57.1999 58.8866 57.0162 58.5348 56.6491 58.1492C56.6491 58.1291 56.5729 57.9151 56.4203 57.5067C56.4543 57.3706 56.5615 57.2644 56.7422 57.1879H56.7889V57.2771C57.0035 57.2176 57.1249 57.1879 57.1532 57.1879H57.1999V57.4643H57.2887L57.2423 57.5535V57.6003C57.3043 57.6003 57.3354 57.616 57.3354 57.6472L57.6997 57.4174H57.7464V57.4643C57.7153 57.5209 57.6997 57.5662 57.6997 57.6003C57.7309 57.6003 57.7464 57.616 57.7464 57.6472C57.8057 57.616 57.8509 57.6003 57.8819 57.6003C58.1475 57.6175 58.4215 57.8612 58.7039 58.3322C58.7039 58.5335 58.8099 58.8398 59.0218 59.2509C59.2363 61.2106 59.3437 62.2798 59.3437 62.4585H59.3904C60.0823 62.3648 60.5993 62.318 60.941 62.318H61.1232C61.3972 62.318 61.5342 62.1507 61.5342 61.8161H61.5809L61.5342 61.7224V61.68C61.6866 61.68 61.8393 60.7623 61.9919 58.9275C61.9296 58.9275 61.8986 58.8978 61.8986 58.8383V58.5617C62.0624 58.5617 62.184 58.5164 62.2629 58.4256H62.3562L62.3986 58.6554C62.3702 58.6554 62.3562 58.6696 62.3562 58.6978L62.4451 58.7446C62.4451 58.7135 62.4607 58.6978 62.4917 58.6978L62.4451 58.6085V58.5617C62.6456 58.5617 62.7672 58.4697 62.8094 58.2853H62.9027C62.9027 58.3192 62.9183 58.3661 62.9494 58.4256L63.0383 58.379H63.0849C63.0849 58.481 63.1003 58.5575 63.1316 58.6085L63.2204 58.5617C63.2827 58.5704 63.3137 58.6015 63.3137 58.6554V58.6978H63.2204V58.7446H63.3604L63.4026 58.6554C63.3745 58.5956 63.3604 58.5492 63.3604 58.5151H63.4493C63.6329 58.6766 63.7247 58.8141 63.7247 58.9275H63.8603L63.9534 58.8807L63.9069 58.7915C63.9154 58.7291 63.9451 58.6978 63.9958 58.6978C64.2219 58.6978 64.3447 58.7446 64.3645 58.8383V58.9275C64.3645 58.99 64.3179 59.0212 64.2246 59.0212C64.3462 59.3389 64.4068 59.5373 64.4068 59.6168C64.2571 60.2237 64.1824 60.9865 64.1824 61.9055L64.2713 61.9523C64.2713 61.921 64.2867 61.9055 64.3179 61.9055C64.3179 61.9678 64.3333 61.9988 64.3645 61.9988L64.5465 61.9055V61.9523C64.5465 62.043 64.4251 62.1039 64.1824 62.1351V62.4116H64.5001L65.0932 62.2754C65.0932 62.3039 65.1089 62.318 65.1397 62.318C65.1397 62.2586 65.2613 62.2132 65.5042 62.1819V62.2287C65.5042 62.2684 65.3065 62.3747 64.9111 62.5477C64.9111 62.6696 64.6371 62.8071 64.0891 62.9603V63.0538L64.3179 63.0072C64.3489 63.0072 64.3645 63.0227 64.3645 63.0538C64.4239 63.0227 64.469 63.0072 64.5001 63.0072H64.5932V63.0538C64.2261 63.0992 64.0424 63.1602 64.0424 63.2367C64.0424 63.3276 64.0268 63.373 63.9958 63.373L64.0424 63.4665C63.9831 63.7246 63.9534 63.8764 63.9534 63.9217L63.9958 64.1983C63.9958 64.4791 63.9054 65.1809 63.7247 66.3039H63.6314V66.2147H63.5892V66.8101H63.4493L63.2671 66.674C63.2671 66.7251 63.1909 66.8626 63.0383 67.0867C63.0383 67.4128 62.9479 67.5957 62.7672 67.6356C62.7672 67.7263 62.6146 67.7716 62.3096 67.7716H62.2629C62.2629 67.6809 62.2177 67.6356 62.1274 67.6356H62.0807V67.2696C62.0807 67.1988 62.0653 67.1377 62.0341 67.0867C62.0341 67.0555 62.0497 67.0398 62.0807 67.0398C62.0807 66.9775 62.0653 66.9462 62.0341 66.9462C62.1048 65.7862 62.1656 65.2065 62.2165 65.2065L62.174 65.1128C62.2334 64.9028 62.2629 64.7201 62.2629 64.5641V64.1983L62.3096 63.9686C62.2361 63.909 62.1753 63.8793 62.1274 63.8793C61.6782 63.97 61.3732 64.0451 61.2121 64.1046V64.381C61.1331 64.381 61.0272 64.5497 60.8944 64.8873L60.4834 65.8019C60.4241 65.833 60.3789 65.8487 60.3479 65.8487V66.2147C60.3479 66.2883 60.2717 66.4258 60.1191 66.6272C60.1191 66.8086 60.088 66.8995 60.026 66.8995L60.0724 66.993C59.8295 67.2539 59.7081 67.4071 59.7081 67.4527V67.6822L59.7547 67.7716C59.653 67.7716 59.5922 67.8325 59.5725 67.9544ZM61.7662 61.9058C61.9102 61.4438 62.0162 61.1984 62.084 61.17C62.0529 61.0481 62.0077 60.9417 61.9484 60.851L62.0373 60.7149H61.9951C61.9442 60.7149 61.8819 60.8213 61.8085 61.0339L61.8551 61.2636C61.841 61.3855 61.7958 61.4466 61.7196 61.4466V61.4932L61.7662 61.5828H61.673V61.8124C61.6843 61.8749 61.7154 61.9058 61.7662 61.9058ZM62.9065 65.663C62.98 65.663 63.0252 65.5095 63.0421 65.2033C63.0138 65.1439 62.9998 65.0986 62.9998 65.0672H63.0887V64.8845C63.0887 64.822 63.059 64.7908 62.9998 64.7908L63.0421 64.5611V64.1058C63.0421 64.0747 63.0577 64.059 63.0887 64.059L63.0421 63.9655C63.0421 63.9344 63.0577 63.8888 63.0887 63.8294L62.9998 63.4168C63.0279 63.4168 63.0421 63.4011 63.0421 63.37H62.9532V63.6934C62.9532 63.7614 62.9376 63.8223 62.9065 63.8761C62.9065 63.9074 62.9221 63.9229 62.9532 63.9229L62.9065 64.1484V64.2419L62.9532 64.5611H62.9065L62.9532 64.6547V64.744C62.9532 64.8063 62.9221 64.8377 62.8599 64.8377C62.9221 64.9369 62.9532 65.029 62.9532 65.114V65.3395L62.9065 65.663ZM62.5893 66.0754C62.6488 65.8456 62.6783 65.7081 62.6783 65.6627C62.6783 65.6316 62.6627 65.6159 62.6317 65.6159L62.6783 65.3862V64.8843L62.6317 64.3311H62.6783L62.6317 64.2417V63.9227C62.6317 63.8916 62.6473 63.8759 62.6783 63.8759C62.6473 63.8362 62.6317 63.7284 62.6317 63.5527C62.5724 63.5641 62.5428 63.5953 62.5428 63.6463V63.9653C62.5428 64.1412 62.5272 64.2491 62.4962 64.2885C62.5272 64.4532 62.5428 64.5906 62.5428 64.7014V66.0754H62.5893ZM60.5337 64.9259C60.5337 64.8267 60.6396 64.6139 60.8514 64.2877L61.0802 63.8284V63.7348H61.0337C60.8585 63.9306 60.7215 64.1758 60.6227 64.4708C60.6029 64.4708 60.5421 64.5473 60.4406 64.7005V64.9259H60.5337ZM59.4813 65.6626C59.6622 65.4638 59.9968 64.9591 60.4855 64.148C60.4855 64.1196 60.5011 64.1054 60.5321 64.1054V64.2415H60.6212C60.6212 64.1139 60.6522 63.9609 60.7143 63.7822H60.6676V63.8291C60.6366 63.8291 60.6212 63.8134 60.6212 63.7822C60.1211 63.9664 59.833 64.0586 59.7568 64.0586C59.5505 63.9679 59.4291 63.9225 59.3924 63.9225V64.0586C59.3924 64.1267 59.4066 64.1877 59.4346 64.2415C59.4346 64.2727 59.4207 64.2884 59.3924 64.2884C59.4207 64.4274 59.4503 64.8854 59.4813 65.6626ZM66.6885 67.6414H66.4174C66.4174 67.5818 66.3256 67.5208 66.1419 67.4585C65.6843 66.9706 65.4557 65.703 65.4557 63.6554C65.4274 63.6554 65.4132 63.5945 65.4132 63.4725C65.4132 63.4413 65.4274 63.4256 65.4557 63.4256L65.4132 63.1961V62.7833C65.4132 62.755 65.4274 62.7408 65.4557 62.7408C65.4274 62.6813 65.4132 62.6345 65.4132 62.6003L65.4557 61.5029H65.5021C65.5021 61.4717 65.4867 61.4561 65.4557 61.4561C65.4952 61.0421 65.5262 60.7982 65.5488 60.7244C65.5488 60.6931 65.5333 60.6776 65.5021 60.6776C65.5021 60.6464 65.5177 60.6009 65.5488 60.5415C65.58 59.7703 65.5954 59.159 65.5954 58.708C65.5954 58.2089 65.5346 57.5665 65.4132 56.781C65.546 56.5371 65.683 56.415 65.8242 56.415C65.9994 56.415 66.1052 56.4917 66.1419 56.6448C66.3651 56.696 66.5629 56.8491 66.7351 57.1044C66.7351 57.1865 66.7663 57.2772 66.8284 57.3766L66.9173 57.334H66.9639C67.0233 57.7509 67.053 57.9793 67.053 58.019H67.1461V57.9296C67.2759 57.9296 67.3523 58.1422 67.3749 58.5677C67.4174 58.5677 67.4781 58.7818 67.5571 59.2099C67.5881 59.2099 67.6038 59.2256 67.6038 59.2567C67.6038 59.2879 67.5881 59.3036 67.5571 59.3036L67.6926 60.265C67.6616 60.4296 67.6462 60.567 67.6462 60.6776V61.1795C67.6462 61.2505 67.6318 61.313 67.6038 61.3668C67.6318 61.4234 67.6462 61.4688 67.6462 61.5029C67.536 62.6315 67.4456 63.1961 67.3749 63.1961L67.4216 63.5193V64.3444C67.4216 64.4125 67.406 64.4735 67.3749 64.5273C67.406 64.5814 67.4216 64.6422 67.4216 64.7104V64.7571C67.4216 64.8168 67.3904 64.8465 67.3283 64.8465C67.3283 64.8153 67.3129 64.7997 67.2816 64.7997V64.8465L67.3749 64.9826V65.0762L67.1928 66.5439L66.9639 66.9096C66.8624 66.9096 66.7706 66.9549 66.6885 67.0458C66.6885 67.077 66.7041 67.0925 66.7351 67.0925L66.6885 67.5521V67.6414ZM51.9597 58.2388C52.3824 58.081 52.7793 57.9489 53.1504 57.8429H53.191V57.9204C53.0583 57.9279 52.992 57.955 52.992 58.002C52.7536 58.0168 52.6342 58.0699 52.6342 58.1612H52.5163C52.4278 58.1612 52.3358 58.2006 52.2399 58.2795H51.9597V58.2388ZM56.4964 64.2911H56.5368C56.5368 64.2343 56.4975 64.1541 56.4189 64.0505V63.9321L56.4558 63.8506L56.2199 63.4511C55.7824 63.0067 55.2787 62.6083 54.7085 62.2555C54.1557 61.9273 53.8778 61.7409 53.8755 61.6967C53.6567 61.6028 53.0742 61.2451 52.1281 60.6234C51.6097 60.3297 51.2532 60.0238 51.0591 59.7053C51.0714 59.5993 51.1107 59.5462 51.177 59.5462C51.177 59.3687 51.9869 59.081 52.6752 58.7973C53.0731 58.6887 53.2722 58.5961 53.2722 58.5196C53.9579 58.2902 54.3412 58.1434 54.4223 58.0793C54.8205 57.9904 55.0196 57.9238 55.0196 57.8794C55.0785 57.8794 55.1314 57.9733 55.178 58.1608L55.1375 58.2384C55.1375 58.2928 55.1768 58.3197 55.2554 58.3197V58.3605C55.1768 58.3605 55.1375 58.4001 55.1375 58.479C55.1645 58.6121 55.2443 58.7849 55.3771 58.9971H55.495L55.4544 58.9158H55.5725C55.688 58.5703 55.7813 58.3975 55.8526 58.3975V58.3197C55.8526 58.189 55.8919 58.0559 55.9705 57.92C55.9435 57.8733 55.9301 57.82 55.9301 57.761C55.9178 57.6698 55.7064 57.497 55.2959 57.2429L54.6214 57.043H54.5808C54.399 57.043 54.2012 57.0836 53.9875 57.1651C53.2426 57.3229 52.7661 57.4821 52.5571 57.6427L52.4761 57.6019H52.3986C52.2634 57.7079 52.0914 57.7745 51.8825 57.8018L50.4927 58.4383C49.9201 58.7344 49.6019 59.0405 49.538 59.3561C49.538 59.3956 49.6043 59.5684 49.737 59.8742L49.6964 59.9557C49.6964 59.9781 49.7493 60.0964 49.8551 60.311C49.8551 60.3826 49.9214 60.4628 50.0542 60.5517C50.0542 60.6282 50.1732 60.7873 50.4116 61.029C50.7091 61.2092 50.9338 61.3819 51.0863 61.5471C51.3516 61.594 51.4844 61.6607 51.4844 61.747C52.0054 62.0334 52.2965 62.2196 52.358 62.3061C53.0289 62.6785 53.717 63.1164 54.4223 63.62C54.8721 63.8517 55.0971 64.0122 55.0971 64.101C54.8242 64.3205 54.0169 64.4934 52.6752 64.6192C52.6752 64.592 52.6616 64.5784 52.6344 64.5784C52.5877 64.6055 52.5349 64.6192 52.4761 64.6192H50.9278C50.505 64.6192 50.2937 64.7783 50.2937 65.0965V65.2151C50.3945 65.2151 50.4608 65.3089 50.4927 65.4963L50.7287 65.6556C50.8418 65.7343 50.9215 65.7739 50.9684 65.7739C51.1182 65.88 51.2238 65.9329 51.2853 65.9329C51.2853 66.0688 51.5373 66.1626 52.041 66.2144V66.2513L52.0004 66.3326C52.2166 66.3326 52.3494 66.3586 52.3986 66.4104H52.5165L52.7561 66.3734L52.8335 66.4104C53.2145 66.3783 53.5449 66.3391 53.8251 66.2921C53.8251 66.3192 53.8387 66.3326 53.8657 66.3326C54.3893 66.2686 54.9187 66.1353 55.4544 65.9329C55.6241 65.8936 55.7703 65.7208 55.8932 65.4149H56.1695L56.2507 65.1373V65.0152C56.2507 64.9534 56.5776 64.4663 56.4964 64.2911Z" fill="black"/>
</svg>
