<svg width="69" height="70" viewBox="0 0 69 70" fill="none" xmlns="http://www.w3.org/2000/svg">
<mask id="mask0_5617_100382" style="mask-type:alpha" maskUnits="userSpaceOnUse" x="10" y="0" width="48" height="48">
<path d="M28.6145 46.9729C28.714 46.7159 28.8974 46.4942 29.1393 46.3387V46.3387C29.2998 46.4323 29.4582 46.5297 29.6167 46.6233C30.4421 46.7546 31.2584 46.9313 32.0613 47.1525L32.7342 47.1104C32.6539 47.2614 32.7836 47.3569 32.9111 47.3989C33.0367 47.4428 33.0819 47.4486 33.1972 47.4887C34.8722 46.268 37.9938 46.9156 39.924 47.0359C40.9764 46.4325 42.1765 46.0868 43.4119 46.0311C47.8526 45.1963 52.2603 42.3461 54.3181 38.5656C54.6638 37.9276 54.1679 38.7242 54.4313 38.2294C54.1782 38.2657 53.995 38.1816 53.7707 38.1702C53.7892 38.0823 53.8078 37.9982 53.8181 37.9085C55.349 36.4853 56.5734 35.5492 56.0713 33.4498C56.5611 33.3237 56.703 32.6054 56.8327 32.3361C56.9623 32.0667 56.8759 32.1985 57.0385 32.0572C56.9315 31.7649 57.0014 31.5089 57.0611 31.2052C57.592 28.9491 58.018 26.458 57.5591 24.137C57.8904 20.3374 57.2175 17.8807 56.4643 14.3314C56.3491 13.7888 56.4993 14.4403 56.4108 14.0219C53.2625 8.15724 52.0895 7.64336 47.5275 3.668C47.4596 3.67946 47.4061 3.69092 47.332 3.70811C47.3135 4.02714 47.0768 4.54865 46.7805 4.64417C46.5747 4.70912 46.7373 4.64417 46.5747 4.68428C46.6303 4.04624 46.0767 3.56102 45.6302 3.14266C45.6137 1.93916 41.0558 1.41001 40.3932 1.25145C40.1236 1.37562 40.2841 1.48069 39.8396 1.35843C39.3952 1.23808 38.3169 0.88085 37.7942 0.726115C37.7366 0.783424 37.7304 0.861747 37.6913 0.926698C35.115 0.554187 30.9131 -0.421983 28.8964 1.68318C26.3695 1.53227 23.9928 2.96691 21.5893 3.5572C19.655 4.58877 17.9327 5.97757 16.0251 7.06071C15.5354 7.90698 15.0724 9.21555 14.2287 9.8364C13.9468 11.0514 13.7698 12.3714 12.8685 13.3476C11.3848 18.6124 9.95676 21.6842 11.2223 27.1419C11.391 27.354 11.6338 27.5832 11.6832 27.8468C11.7326 28.1105 11.6133 28.334 11.5186 28.5689C11.7923 30.7734 11.5371 32.9378 12.9158 34.8481C13.6895 37.1558 14.6176 39.1731 16.6754 40.7224C17.1137 41.5285 17.5952 42.1837 18.6241 42.2506C21.7457 44.3978 24.7233 46.3616 28.6145 46.9729Z" fill="#E72E2E"/>
</mask>
<g mask="url(#mask0_5617_100382)">
<path d="M37.8136 -1.2627H31.2222C-1.93324 -1.2627 1.43731 50.5816 34.5179 50.5816C67.5985 50.5816 70.9691 -1.2627 37.8136 -1.2627Z" fill="#E72E2E"/>
<path d="M26.3385 41.6839C25.9038 39.2029 25.7427 35.4369 25.6836 33.1855C25.6565 32.1546 24.788 31.3393 23.7582 31.3936C22.8271 31.4426 22.125 32.056 22.1879 32.9863C22.3593 35.5246 23.3117 40.4062 25.3672 42.2896C25.5342 42.4426 25.7778 42.4649 25.9835 42.3701C26.2448 42.2497 26.3882 41.9673 26.3385 41.6839Z" fill="#FFA100"/>
<path d="M21.5991 40.0983C20.2377 36.7808 19.9157 33.4043 19.8644 31.1566C19.8339 29.8201 18.6928 28.8088 17.3758 29.0385C16.6769 29.1603 16.0756 29.5816 16.097 30.2907C16.1746 32.8717 18.2614 38.8808 21.1706 40.4975C21.2309 40.531 21.3001 40.5405 21.3679 40.528C21.5637 40.4919 21.6747 40.2825 21.5991 40.0983Z" fill="#FFA100"/>
<path d="M43.4886 41.6839C43.9234 39.2029 44.0844 35.4369 44.1436 33.1855C44.1707 32.1546 45.0391 31.3393 46.0689 31.3936C47.0001 31.4426 47.7021 32.056 47.6393 32.9863C47.4678 35.5246 46.5155 40.4062 44.4599 42.2896C44.2929 42.4426 44.0493 42.4649 43.8436 42.3701C43.5823 42.2497 43.439 41.9673 43.4886 41.6839Z" fill="#FFA100"/>
<path d="M48.228 40.0994C49.5678 36.8102 49.8632 33.2117 49.8939 30.7609C49.9115 29.363 51.2241 28.3941 52.5358 28.8776C52.9991 29.0484 53.4095 29.3621 53.4473 29.8544C53.628 32.2086 51.7033 38.8015 48.6572 40.4983C48.597 40.5319 48.5277 40.5415 48.4599 40.529C48.2641 40.4929 48.1529 40.2838 48.228 40.0994Z" fill="#FFA100"/>
<path d="M53.8279 36.0658C55.5251 32.9673 55.9336 29.93 55.9821 27.7928C56.0139 26.3951 57.266 25.4283 58.5777 25.9118C59.041 26.0826 59.4582 26.3978 59.4707 26.8915C59.526 29.0828 57.2391 34.7968 54.2034 36.4592C54.1484 36.4893 54.0855 36.4982 54.0239 36.4868C53.8326 36.4516 53.7345 36.2363 53.8279 36.0658Z" fill="#FFA100"/>
<path d="M15.7004 36.4251C14.0032 33.3267 13.5948 30.2894 13.5462 28.1521C13.5144 26.7545 12.2624 25.7877 10.9506 26.2712C10.4874 26.442 10.0701 26.7572 10.0576 27.2508C10.0023 29.4422 12.2893 35.1562 15.3249 36.8186C15.3799 36.8487 15.4428 36.8576 15.5045 36.8462C15.6957 36.8109 15.7938 36.5957 15.7004 36.4251Z" fill="#FFA100"/>
<path d="M14.0704 20.7017C10.2999 19.7467 7.51427 17.8864 5.76798 16.4565C4.73202 15.6082 3.17129 15.9008 2.68347 17.1053C2.51009 17.5334 2.4774 18.0125 2.82794 18.3313C4.48753 19.841 10.68 22.1689 14.0874 21.2155C14.1542 21.1967 14.2093 21.1552 14.2453 21.0998C14.3451 20.9466 14.2563 20.7488 14.0704 20.7017Z" fill="#FFA100"/>
<path d="M14.6744 16.2208C11.0812 14.87 8.56627 12.7403 7.0145 11.1346C6.07481 10.1623 4.47872 10.263 3.83784 11.4089C3.61024 11.8159 3.51708 12.2925 3.83156 12.6528C5.29978 14.335 11.1359 17.3107 14.6348 16.7354C14.7023 16.7243 14.761 16.6899 14.8029 16.64C14.9219 16.4985 14.8558 16.289 14.6744 16.2208Z" fill="#FFA100"/>
<path d="M16.0676 12.2077C12.9359 10.1812 11.0095 7.63192 9.87913 5.75714C9.16909 4.57946 7.5807 4.3129 6.67528 5.3036C6.3544 5.65471 6.14824 6.10791 6.3784 6.53566C7.4272 8.48482 12.3819 12.5567 15.9206 12.7092C15.9869 12.712 16.0497 12.6915 16.1005 12.653C16.2509 12.5392 16.2325 12.3144 16.0676 12.2077Z" fill="#FFA100"/>
<path d="M55.1346 20.7017C58.9052 19.7467 61.6908 17.8864 63.4371 16.4565C64.4731 15.6082 66.0338 15.9008 66.5216 17.1053C66.695 17.5334 66.7277 18.0125 66.3771 18.3313C64.7176 19.841 58.5251 22.1689 55.1177 21.2155C55.0508 21.1967 54.9958 21.1552 54.9597 21.0998C54.86 20.9466 54.9487 20.7488 55.1346 20.7017Z" fill="#FFA100"/>
<path d="M54.5307 16.2208C58.1238 14.87 60.6388 12.7403 62.1906 11.1346C63.1303 10.1623 64.7264 10.263 65.3672 11.4089C65.5948 11.8159 65.688 12.2925 65.3735 12.6528C63.9053 14.335 58.0692 17.3107 54.5703 16.7354C54.5027 16.7243 54.4441 16.6899 54.4022 16.64C54.2832 16.4985 54.3493 16.289 54.5307 16.2208Z" fill="#FFA100"/>
<path d="M53.1365 12.2077C56.2682 10.1812 58.1946 7.63192 59.325 5.75714C60.035 4.57946 61.6234 4.3129 62.5288 5.3036C62.8497 5.65471 63.0559 6.10791 62.8257 6.53566C61.7769 8.48482 56.8222 12.5567 53.2835 12.7092C53.2172 12.712 53.1544 12.6915 53.1036 12.653C52.9532 12.5392 52.9716 12.3144 53.1365 12.2077Z" fill="#FFA100"/>
</g>
<path d="M29.4544 31.6521C28.8695 31.5623 28.685 32.4122 29.0645 32.6404C30.1535 33.3784 30.8986 33.6605 32.8664 33.5388C33.2563 33.5146 33.3538 32.7302 32.9639 32.6404L29.4544 31.6521Z" fill="#FFA100"/>
<path d="M35.8893 34.3474C34.905 34.5861 34.4196 33.3714 35.3044 33.1795C36.9616 32.8202 38.6189 32.371 40.3736 31.3827C40.8445 31.1175 41.446 31.8353 40.861 32.1913C39.1333 33.2428 37.7415 33.8982 35.8893 34.3474Z" fill="#FFA100"/>
<path fill-rule="evenodd" clip-rule="evenodd" d="M35.6504 35.4809L36.2792 37.5817L36.1014 37.68C35.9267 37.7766 35.8622 37.9809 35.9533 38.1488L36.0192 38.2703C36.1108 38.439 36.3284 38.5138 36.5175 38.4415L39.4547 37.3179C40.5123 36.9133 41.034 35.811 40.6363 34.8214C40.4902 34.4579 40.0561 34.2681 39.6581 34.3938L36.9616 35.2458L36.9306 35.1458C36.8406 34.8555 36.5094 34.6899 36.1962 34.7787L36.0422 34.8224C35.7399 34.9081 35.5663 35.1999 35.6504 35.4809ZM37.0591 36.1442L37.2541 37.2223L38.9703 36.5532C39.4249 36.3759 39.642 35.896 39.4587 35.4736C39.4254 35.397 39.3317 35.3588 39.2478 35.3878L37.0591 36.1442Z" fill="#FFA100"/>
<path d="M32.2345 34.6173C31.0035 35.5291 30.5431 35.9648 28.6774 35.9648C27.7026 35.9648 27.7026 36.9991 28.6774 36.953C29.9052 36.8949 30.5593 36.7591 31.602 36.1445C30.6945 38.5301 30.0312 39.8369 28.9191 41.8967C28.7928 42.1306 28.906 42.4224 29.1572 42.5092C29.3357 42.5709 29.5338 42.5093 29.6438 42.3559C30.2369 41.5279 30.6327 40.865 31.3095 39.5584C31.827 40.5989 31.8922 41.2348 31.7741 42.1311C31.7388 42.3989 31.9131 42.6523 32.1787 42.7012C32.4507 42.7514 32.7125 42.5679 32.7468 42.2935C32.9074 41.0105 32.7808 40.1549 32.0894 38.7498C32.7906 39.1477 33.2076 39.342 33.8639 39.5142C33.9741 39.5432 34.0914 39.5171 34.1807 39.4465C34.4125 39.2634 34.3486 38.8915 34.0803 38.7679C33.5023 38.5016 32.9575 38.1347 32.2844 37.5819L33.1874 35.3627C33.3295 35.0136 33.1352 34.6188 32.7719 34.5184C32.5871 34.4673 32.3886 34.5031 32.2345 34.6173Z" fill="#FFA100"/>
<path fill-rule="evenodd" clip-rule="evenodd" d="M34.8115 39.363L35.4058 42.2381C35.4606 42.5033 35.7215 42.6891 36.0138 42.6711L38.4264 42.5229L39.4012 42.8823C41.0938 42.4663 42.2199 40.9926 42.0744 39.3838L42.0037 38.6016C41.968 38.2068 41.5592 37.9339 41.141 38.0256L35.7942 39.1988L35.7552 39.1088C35.6653 38.9017 35.4258 38.7852 35.1895 38.8336C34.929 38.8869 34.7616 39.1214 34.8115 39.363ZM38.5238 39.9176V39.2887L40.7586 38.8134C40.9163 38.7799 41.0692 38.8838 41.0812 39.0324L41.1031 39.3045C41.1909 40.3973 40.4426 41.3995 39.3037 41.7143L38.2314 41.6245L38.4264 40.816L39.777 40.2714C39.9041 40.2202 39.9861 40.1045 39.9861 39.9768C39.9861 39.7655 39.7688 39.6116 39.5473 39.666L38.5238 39.9176ZM35.8917 40.7261L35.7942 40.0972L37.549 39.4684L37.6465 40.2769L35.8917 40.7261ZM35.9892 41.4448L36.1842 42.0737L37.2565 41.8042L37.549 41.0855L35.9892 41.4448Z" fill="#FFA100"/>
<path d="M52.5825 18.5663C52.5825 30.6084 43.5874 27.0746 34.5426 27.0712C24.9223 27.0676 16.3331 31.0304 16.8642 17.8141C17.0388 13.4703 19.6673 9.54934 24.2991 8.72844C26.9229 8.26343 30.3131 7.90723 34.5426 7.90723C38.5851 7.90723 41.9315 8.23263 44.5985 8.66742C49.6748 9.49499 52.5825 13.8155 52.5825 18.5663Z" fill="white"/>
<path d="M20.0415 13.498C18.6363 17.1926 20.7472 21.2376 24.7564 22.5326C28.7655 23.8275 33.1547 21.8822 34.5599 18.1875C35.9651 14.4928 33.8541 10.4479 29.845 9.1529C25.8359 7.85792 21.4467 9.80327 20.0415 13.498Z" fill="url(#paint0_radial_5617_100382)"/>
<path d="M28.0303 12.6553C30.0019 12.6554 31.6455 14.1338 31.6455 16.0117C31.6455 17.8896 30.0019 19.368 28.0303 19.3682C26.0585 19.3682 24.415 17.8897 24.415 16.0117C24.415 14.1337 26.0585 12.6553 28.0303 12.6553Z" fill="white" stroke="#FFA100" stroke-width="0.637621"/>
<path d="M33.9805 10.7797C31.7827 11.5391 31.1417 9.26071 28.0282 9.42942C31.1417 8.24778 31.1417 10.3576 33.9805 10.7797Z" fill="#1C1A1A"/>
<path d="M22.5244 18.1917C22.8159 17.4941 22.2814 16.9498 21.9777 16.7648C22.9253 16.9551 23.1621 17.7954 23.1621 18.1917C23.1621 20.0943 18.5156 20.2529 18.3334 17.0819C18.024 11.698 22.8835 10.0504 25.6221 10.1058C29.5397 10.1851 30.8152 12.3255 32.5462 12.3255C33.9311 12.3255 33.8521 11.6385 33.6395 11.2949C34.1862 11.2949 34.5506 12.8011 32.5462 12.8011C30.0863 12.8011 28.8108 10.903 25.6221 11.0571C20.7022 11.2949 19.0623 14.6244 19.3356 17.0819C19.5813 19.2913 22.16 19.0638 22.5244 18.1917Z" fill="#1C1A1A"/>
<path d="M49.7601 13.498C51.1652 17.1926 49.0543 21.2376 45.0452 22.5326C41.0361 23.8275 36.6469 21.8822 35.2417 18.1875C33.8365 14.4928 35.9474 10.4479 39.9566 9.1529C43.9657 7.85792 48.3549 9.80327 49.7601 13.498Z" fill="url(#paint1_radial_5617_100382)"/>
<path d="M41.7686 12.6553C43.7402 12.6554 45.3838 14.1338 45.3838 16.0117C45.3838 17.8896 43.7402 19.368 41.7686 19.3682C39.7968 19.3682 38.1533 17.8897 38.1533 16.0117C38.1533 14.1337 39.7968 12.6553 41.7686 12.6553Z" fill="#1C1A1A" stroke="#FFA100" stroke-width="0.637621"/>
<path d="M41.7686 13.292C43.4381 13.2921 44.7461 14.534 44.7461 16.0117C44.7461 17.4894 43.4381 18.7313 41.7686 18.7314C40.0989 18.7314 38.79 17.4895 38.79 16.0117C38.79 14.5339 40.0989 13.292 41.7686 13.292Z" fill="#1C1A1A" stroke="white" stroke-width="0.637621"/>
<path d="M35.7275 10.7797C37.9253 11.5391 38.5663 9.26071 41.6798 9.42942C38.5663 8.24778 38.5663 10.3576 35.7275 10.7797Z" fill="#1C1A1A"/>
<path d="M47.0889 18.1917C46.7974 17.4941 47.3319 16.9498 47.6355 16.7648C46.688 16.9551 46.4511 17.7954 46.4511 18.1917C46.4511 20.0943 51.0976 20.2529 51.2799 17.0819C51.5892 11.698 46.7298 10.0504 43.9912 10.1058C40.0736 10.1851 38.7981 12.3255 37.067 12.3255C35.6822 12.3255 35.7612 11.6385 35.9737 11.2949C35.4271 11.2949 35.0627 12.8011 37.067 12.8011C39.527 12.8011 40.8025 10.903 43.9912 11.0571C48.9111 11.2949 50.551 14.6244 50.2777 17.0819C50.0319 19.2913 47.4533 19.0638 47.0889 18.1917Z" fill="#1C1A1A"/>
<path d="M34.9208 21.3183C39.0132 21.2085 41.9657 24.3348 45.9023 24.8256L46.2418 24.8594L46.5868 24.878C46.8031 24.8949 47.0204 24.8949 47.2367 24.878C47.6533 24.849 48.0608 24.7506 48.4396 24.5876C48.8097 24.4235 49.1367 24.1868 49.3979 23.894C49.6574 23.5954 49.8352 23.2434 49.9163 22.8678C50.001 22.4956 49.9569 22.1083 49.7904 21.7605C49.6132 21.4055 49.2996 21.1239 48.9105 20.9706C48.4812 20.8049 48.0171 20.7304 47.5525 20.7529C47.059 20.775 46.5694 20.8457 46.0922 20.9639C46.5416 20.7447 47.0203 20.5813 47.516 20.4778C48.0349 20.3676 48.5746 20.3722 49.0913 20.4913C49.3647 20.5624 49.6228 20.6766 49.8543 20.8289C50.0908 20.9863 50.2927 21.1839 50.4493 21.4112C50.7542 21.8775 50.8915 22.421 50.8418 22.964C50.7862 23.5013 50.5913 24.0183 50.2735 24.4711C49.9557 24.9239 49.5245 25.2991 49.0164 25.5649C48.5162 25.8283 47.9659 26.0002 47.3955 26.0712C47.1216 26.1136 46.8445 26.1356 46.5668 26.1371H46.167L45.7672 26.1185C44.6963 26.0501 43.6463 25.8103 42.6641 25.4096C42.1844 25.2142 41.7164 24.995 41.2622 24.7531C40.815 24.5168 40.3897 24.2653 39.9717 24.0222C39.186 23.5418 38.3602 23.1202 37.5019 22.7614C36.685 22.434 35.8103 22.2469 34.9208 22.2095V21.3183Z" fill="#1C1A1A"/>
<path d="M34.971 21.3183C30.8298 21.2071 27.9122 24.3365 23.9895 24.8256L23.65 24.8594L23.305 24.878C23.0887 24.8949 22.8714 24.8949 22.6551 24.878C22.2385 24.849 21.831 24.7506 21.4522 24.5876C21.0821 24.4235 20.7551 24.1868 20.4939 23.894C20.2344 23.5954 20.0566 23.2434 19.9755 22.8678C19.8908 22.4956 19.9349 22.1083 20.1014 21.7605C20.2786 21.4055 20.5922 21.1239 20.9813 20.9706C21.4106 20.8049 21.8747 20.7304 22.3393 20.7529C22.8328 20.775 23.3224 20.8457 23.7996 20.9639C23.3502 20.7447 22.8715 20.5813 22.3758 20.4778C21.8569 20.3676 21.3172 20.3722 20.8005 20.4913C20.5271 20.5624 20.269 20.6766 20.0375 20.8289C19.801 20.9863 19.5991 21.1839 19.4425 21.4112C19.1376 21.8775 19.0003 22.421 19.05 22.964C19.1056 23.5013 19.3005 24.0183 19.6183 24.4711C19.9361 24.9239 20.3673 25.2991 20.8754 25.5649C21.3755 25.8283 21.9259 26.0002 22.4963 26.0712C22.7702 26.1136 23.0473 26.1356 23.325 26.1371H23.7248L24.1246 26.1185C25.1955 26.0501 26.2455 25.8103 27.2277 25.4096C27.7074 25.2142 28.1754 24.995 28.6296 24.7531C29.0768 24.5168 29.5021 24.2653 29.9201 24.0222C30.7058 23.5418 31.5316 23.1202 32.3899 22.7614C33.2068 22.434 34.0815 22.2469 34.971 22.2095V21.3183Z" fill="#1C1A1A"/>
<path d="M28.7117 26.2218L29.959 25.2001C30.0116 25.157 30.0878 25.1593 30.1378 25.2053C30.1915 25.2548 30.1967 25.3378 30.1496 25.3935L29.1097 26.6257C29.0189 26.7333 28.8631 26.7583 28.7431 26.6846C28.5763 26.5822 28.5603 26.3458 28.7117 26.2218Z" fill="#1C1A1A"/>
<path d="M30.886 26.2174L31.8828 24.9052C31.9309 24.8419 32.023 24.8337 32.0815 24.8876C32.1254 24.9281 32.1374 24.9927 32.111 25.0463L31.3821 26.5242C31.3058 26.6789 31.113 26.7345 30.966 26.6442C30.8184 26.5535 30.7813 26.3553 30.886 26.2174Z" fill="#1C1A1A"/>
<path d="M33.1582 26.0916L33.6457 24.8722C33.6783 24.7906 33.7826 24.767 33.8472 24.8266C33.878 24.8549 33.8926 24.8967 33.8862 24.938L33.685 26.2357C33.6549 26.4298 33.4369 26.5306 33.2695 26.4278C33.1556 26.3577 33.1086 26.2158 33.1582 26.0916Z" fill="#1C1A1A"/>
<path d="M41.2814 26.2218L40.0342 25.2001C39.9816 25.157 39.9053 25.1593 39.8554 25.2053C39.8017 25.2548 39.7965 25.3378 39.8436 25.3935L40.8834 26.6257C40.9742 26.7333 41.1301 26.7583 41.25 26.6846C41.4168 26.5822 41.4328 26.3458 41.2814 26.2218Z" fill="#1C1A1A"/>
<path d="M39.1022 26.2174L38.1055 24.9052C38.0574 24.8419 37.9653 24.8337 37.9068 24.8876C37.8629 24.9281 37.8508 24.9927 37.8773 25.0463L38.6062 26.5242C38.6825 26.6789 38.8753 26.7345 39.0223 26.6442C39.1699 26.5535 39.207 26.3553 39.1022 26.2174Z" fill="#1C1A1A"/>
<path d="M36.8349 26.0916L36.3475 24.8722C36.3149 24.7906 36.2106 24.767 36.146 24.8266C36.1152 24.8549 36.1006 24.8967 36.107 24.938L36.3081 26.2357C36.3382 26.4298 36.5563 26.5306 36.7236 26.4278C36.8376 26.3577 36.8846 26.2158 36.8349 26.0916Z" fill="#1C1A1A"/>
<path d="M39.706 24.6169C39.8352 24.3648 39.4103 24.2121 39.1677 24.0659C36.332 22.3578 33.1157 22.4749 30.2791 24.2885C30.2623 24.2992 30.2442 24.308 30.2265 24.3172C29.9798 24.4454 30.134 24.8055 30.4033 24.7574C30.4198 24.7544 30.4356 24.7485 30.4509 24.7418C33.2205 23.5239 36.1834 23.4305 38.9673 24.5792C39.2187 24.6829 39.5819 24.8589 39.706 24.6169V24.6169Z" fill="#E72E2E"/>
<path d="M30.2024 21.5091C31.0277 19.6339 33.0375 19.0273 33.622 20.3208C33.6711 20.4294 33.8143 20.4721 33.9025 20.3919L33.9235 20.3729C33.9639 20.3363 33.9827 20.2795 33.9717 20.2262C33.5156 18.0133 30.7051 18.9691 29.8374 21.3821C29.7994 21.488 29.8649 21.6014 29.9746 21.6267C30.0684 21.6483 30.1636 21.5973 30.2024 21.5091Z" fill="#E72E2E"/>
<path d="M39.5124 21.5091C38.6871 19.6339 36.6774 19.0273 36.0929 20.3208C36.0438 20.4294 35.9006 20.4721 35.8123 20.3919L35.7913 20.3729C35.751 20.3363 35.7322 20.2795 35.7431 20.2262C36.1992 18.0133 39.0097 18.9691 39.8774 21.3821C39.9155 21.488 39.8499 21.6014 39.7403 21.6267C39.6464 21.6483 39.5512 21.5973 39.5124 21.5091Z" fill="#E72E2E"/>
<path d="M13.504 56.0674C13.8164 56.1826 13.9943 56.349 14.0377 56.5668L14.1151 56.5079L14.2401 56.4837L14.2487 56.5261L14.2256 56.6141L14.6436 56.5335L15.1581 56.6933L15.2134 56.7666L15.0884 56.7907L15.0968 56.8328C15.2118 57.1113 15.3844 57.3931 15.6146 57.6787C15.9772 58.1803 16.2218 58.7489 16.3485 59.3842L16.4644 59.9645C16.5504 59.9477 16.7205 60.3591 16.9745 61.1984L17.016 61.406C17.0217 61.434 17.0101 61.4509 16.9814 61.4564L17.0407 61.529C17.0661 61.657 17.0517 61.8753 16.9969 62.1836C17.1446 62.3414 17.2419 62.5367 17.2884 62.7699L17.3054 62.8543L17.3872 62.8385C17.4445 62.8274 17.4791 62.6345 17.4908 62.26L17.5338 62.2517L17.474 62.1754L17.4493 62.0524C17.5636 61.8255 17.5917 61.1604 17.5336 60.057C17.5823 59.9225 17.6164 59.6593 17.6355 59.2673C17.7655 58.6993 17.8958 58.3296 18.0265 58.1582L18.0696 58.1499C18.0885 58.0955 18.0917 58.0378 18.0795 57.9765L18.1615 57.9605L18.1638 58.1755C18.255 58.1578 18.331 57.957 18.3924 57.5727L18.3838 57.5304L18.4744 57.5569L18.466 57.5146C18.4373 57.5202 18.4201 57.5087 18.4144 57.4807C18.4587 57.4721 18.5107 57.4343 18.5701 57.3668C18.5753 57.3924 18.591 57.4027 18.617 57.3976C18.7489 57.0289 18.8981 56.8285 19.0648 56.7963L19.1078 56.7881L19.1407 56.9533L18.8448 57.4414L18.7542 57.4149L18.6254 57.4399L18.6338 57.4822L18.8018 57.4497L18.8186 57.5343C18.6546 57.7282 18.5761 57.8432 18.5833 57.8789C18.4893 58.2883 18.3802 59.1979 18.2561 60.6077L18.2645 60.65L18.3035 60.6425C18.4144 60.3578 18.4715 59.9876 18.4753 59.5318L18.6133 58.9027L18.6601 58.8936C18.6654 58.7785 18.6902 58.7167 18.7348 58.7081L18.7776 58.6997C18.7913 58.7688 18.834 58.8326 18.9051 58.8907L18.9155 58.943C18.9348 58.932 18.9517 58.9251 18.966 58.9223L18.9746 58.9646C18.932 59.1855 18.8997 59.4632 18.8771 59.7973L18.9201 59.789C18.9853 59.7766 19.0258 59.5399 19.0421 59.0793C19.2112 59.0465 19.3152 58.7683 19.354 58.2448L19.44 58.2281C19.4517 58.2871 19.4316 58.4772 19.3794 58.7986C19.4498 58.7848 19.5023 58.8318 19.5373 58.9396L19.536 59.1554C19.5809 59.2317 19.6178 59.2673 19.6464 59.2616L19.6701 60.0312C19.6872 60.1156 19.7372 60.1498 19.8206 60.1339L19.8282 60.1722C19.8487 61.1552 19.8139 62.2936 19.7235 63.5882C19.6302 64.0691 19.4484 64.7638 19.1783 65.6725C18.9704 66.2289 18.8521 66.5098 18.8234 66.5154L18.5856 66.6452C18.5734 66.5837 18.4948 66.5562 18.3501 66.563C18.3633 66.6296 18.2322 66.6972 17.9568 66.7666C17.8272 66.6186 17.6762 66.5188 17.5034 66.4671C17.4958 66.4287 17.4447 66.396 17.3501 66.369L17.3111 66.3767L17.3279 66.4611C17.0881 66.2892 16.9644 66.1843 16.9568 66.146C16.3906 65.3561 16.0699 64.773 15.9948 64.3964C15.8858 63.9866 15.7669 63.6079 15.6381 63.2602L15.6648 63.1713L15.4301 62.4426L15.4731 62.4343L15.4133 62.3581L15.2644 61.6126L15.1432 61.2091L14.9714 61.2424C14.9848 61.309 14.9561 61.4568 14.8856 61.686L14.9714 61.6694C14.95 61.9954 14.9469 62.1968 14.9624 62.2737C14.9884 62.2686 15.0043 62.2801 15.0098 62.3085C14.9186 62.326 14.9014 62.5302 14.9578 62.9209L15.0421 63.1202C15.0276 63.2772 14.9936 63.3981 14.9402 63.483C14.9458 63.5111 14.963 63.5225 14.9917 63.5169C15.0131 63.9225 15.0068 64.1815 14.9725 64.2947C15.0089 64.341 15.0299 64.3793 15.0362 64.41C14.9523 64.586 14.903 64.9959 14.8883 65.6396C14.8602 65.9326 14.8317 66.0817 14.803 66.0871L14.6782 66.1112C14.6166 66.4397 14.5207 66.6166 14.3905 66.6416C14.3269 66.5395 14.2743 66.4925 14.2326 66.5006L14.1466 66.5171L13.9435 66.5965C13.9188 66.4735 13.7762 66.416 13.5155 66.4237L13.517 66.208C13.4893 66.0696 13.4197 66.0113 13.3077 66.033L13.2577 65.7833C13.2307 65.6473 13.1468 65.5932 13.0063 65.6205C12.8815 64.9955 12.9 63.9172 13.0619 62.3856C13.0564 62.3572 13.0392 62.3461 13.0105 62.3515L13.0097 61.9208L13.1042 61.9466L13.0543 61.6967C13.1504 61.6781 13.1818 61.5431 13.1478 61.2915L13.0902 61.0035C13.1552 60.9909 13.1778 60.8867 13.1577 60.6912L13.0849 60.5296C13.0944 60.4428 13.1137 60.3965 13.1422 60.3907C13.1367 60.3627 13.1195 60.3512 13.0908 60.3569C13.074 60.1233 13.0786 59.9229 13.1047 59.7556C13.0654 59.7074 13.0426 59.668 13.0363 59.6373C13.086 59.601 13.125 59.5801 13.1537 59.5747C13.1112 59.5111 13.0562 59.378 12.9889 59.1755C13.0252 59.1684 13.0646 59.0744 13.1068 58.8933C13.0675 58.8452 13.0451 58.807 13.0394 58.7786L13.0824 58.7703L13.0226 58.6942C13.0516 57.9598 13.0208 57.1489 12.9302 56.262C13.021 56.1887 13.1277 56.1401 13.25 56.1165L13.375 56.0922C13.4037 56.0867 13.4209 56.098 13.4264 56.1262L13.504 56.0674ZM18.8015 58.3236L18.827 58.4503C18.7723 58.4611 18.753 58.5073 18.7694 58.5891L18.7264 58.5974C18.7209 58.5694 18.6983 58.5312 18.6589 58.4829C18.745 58.4663 18.7796 58.4156 18.7625 58.3311L18.8015 58.3236ZM18.0696 58.1499L18.0864 58.2345L18.0596 58.3232L18.1538 58.349L18.1969 58.3407L18.1884 58.2984L18.1024 58.315L18.1294 58.2262L18.121 58.1837C18.1152 58.1557 18.0982 58.1442 18.0696 58.1499Z" fill="black"/>
<path d="M20.6429 55.5048L20.8762 55.5512L20.8858 55.5044L21.2004 55.6152L21.1918 55.6578C21.0995 55.6394 21.0471 55.6614 21.0343 55.724L21.1391 55.696L21.1822 55.7045L21.1727 55.7513L21.054 55.8695C21.0448 55.9149 21.0815 55.9692 21.1647 56.0329L21.2597 56.0517C21.2765 55.9694 21.3352 55.9177 21.4355 55.8962L21.4441 55.8537L21.6301 55.8904C21.6201 55.9385 21.7908 56.1303 22.1421 56.4652C22.4193 56.7974 22.6764 57.2772 22.914 57.9054C23.1429 58.8386 23.2356 59.413 23.1915 59.6284L23.1439 59.6188C23.1999 60.1374 23.237 60.7479 23.2553 61.4507C23.2116 61.5041 23.1859 61.5475 23.1791 61.5818C23.2743 61.6004 23.2991 61.8752 23.2534 62.4062L23.1877 62.4859L23.1294 63.7176C23.0223 63.9326 22.9644 64.0627 22.9551 64.108L22.9461 64.394L22.9893 64.4024L23.094 64.3744L23.0749 64.468L23.0091 64.5479C23.0407 64.5541 23.0535 64.5729 23.0472 64.6042C23.0155 64.598 22.9963 64.6102 22.99 64.6414L23.0832 64.66C23.4847 64.0996 23.7748 63.6479 23.9538 63.3048C23.9538 63.2383 24.0493 63.13 24.2405 62.9795L24.9503 61.4395C24.918 61.4224 24.9018 61.3124 24.9018 61.1099C25.1252 60.6444 25.2678 60.4116 25.3296 60.4116C25.5618 59.9141 25.9425 58.8542 26.4718 57.232L26.8994 56.2517C26.8671 56.1907 26.851 56.1445 26.851 56.1127C26.9686 56.1127 27.1419 55.9724 27.3713 55.6919H27.5653L27.6095 55.8784H27.658C27.7226 55.8784 27.7549 55.8467 27.7549 55.7829L28.2268 55.8307H28.3237C28.3237 55.9234 28.3547 55.9696 28.4164 55.9696H28.465C28.465 55.8769 28.4973 55.8307 28.5621 55.8307H28.6104C28.6722 55.8393 28.7031 55.8711 28.7031 55.9262L28.8001 55.8784H28.8442V56.065H28.9411C29.003 56.065 29.0338 56.0332 29.0338 55.9696V55.9262L28.9897 55.8307L29.2278 55.7829H29.3205L29.272 55.8784V56.0174C29.3366 56.0174 29.3689 56.0794 29.3689 56.2039H29.7483C29.7483 56.2357 29.732 56.2517 29.6997 56.2517C29.7145 56.4077 29.7628 56.4857 29.8452 56.4857V56.7633C29.8628 57.0961 29.9568 57.3301 30.1275 57.4661C30.1275 57.4806 30.1759 57.6368 30.273 57.9346L30.3657 57.8869H30.4142L30.6036 58.5895C30.6904 58.5895 30.7372 58.6683 30.7439 58.8261L30.7447 58.8672H30.8903C30.8932 59.0436 30.9874 59.3863 31.1727 59.8955C31.1402 60.066 31.1241 60.1903 31.1241 60.2683L31.221 60.3161C31.221 60.2843 31.2373 60.2683 31.2696 60.2683C31.2696 60.3321 31.3636 60.5344 31.5519 60.8756C32.5309 60.7831 33.1173 60.7369 33.3113 60.7369V60.8324H33.2142L33.2627 61.0623L32.3147 61.3442L32.3589 61.4395C32.3589 61.5871 32.2178 61.6796 31.9355 61.7172V61.7649H32.028V61.8605L31.9355 61.9992V62.0902C32.1884 62.8797 32.394 63.581 32.5529 64.1942C32.5529 64.2434 32.5838 64.3055 32.6454 64.3807V64.4284C32.6454 64.4602 32.6293 64.476 32.5968 64.476L33.0248 65.6908C32.9953 65.6908 32.9806 65.7066 32.9806 65.7384C33.1158 65.7384 33.257 66.2199 33.404 67.1829C33.2981 67.1829 33.2201 67.2609 33.1702 67.417H32.8835C32.8835 67.5125 32.8042 67.5603 32.6454 67.5603C32.5337 67.4533 32.2486 67.3275 31.79 67.1829C31.79 67.1338 31.5532 67.0411 31.08 66.9054C31.08 66.8706 30.9844 66.7924 30.7932 66.6711V66.5756L31.1241 66.6234H31.2696C31.3313 66.6234 31.3621 66.5931 31.3621 66.5322C31.3621 66.4338 31.0624 65.6703 30.4626 64.2419C30.4626 64.0509 30.3037 63.568 29.9863 62.793C29.3779 62.9811 28.7135 63.1213 27.9931 63.2138C27.9931 63.1819 27.977 63.1661 27.9447 63.1661C27.9447 63.2586 27.8491 63.3206 27.658 63.3526C27.12 63.474 26.851 63.6461 26.851 63.8687C26.6511 64.4935 26.4615 64.9286 26.282 65.1745V65.3176C26.3762 65.3176 26.4233 65.348 26.4233 65.4088V65.4565L26.3306 65.4088H26.2336C26.1396 65.6517 26.0926 65.8077 26.0926 65.8771L25.9955 65.8295C25.9955 65.9106 25.8999 66.0044 25.7088 66.1114C25.7088 66.1693 25.5354 66.4498 25.1885 66.953L25.0914 66.9964H24.9989L24.8093 66.8576H24.7607C24.699 66.8663 24.6682 66.8981 24.6682 66.953C24.6975 67.0107 24.7122 67.0569 24.7122 67.0917L24.6197 67.1395C24.5784 67.1077 24.4991 67.0917 24.3815 67.0917C24.3815 67.1842 24.3183 67.2305 24.1919 67.2305L23.4291 66.7189C23.2337 66.7189 23.0434 66.4934 22.858 66.0426C22.8424 66.2464 22.7921 66.5557 22.7073 66.9706L22.6326 67.3361C22.5892 67.5489 22.5372 67.6491 22.4766 67.6373L22.4304 68.1058L22.3748 68.3781C22.2046 68.8872 21.9961 69.1956 21.7494 69.3029C21.6838 69.3531 21.5661 69.3913 21.398 69.4182L21.3778 69.4252C21.2461 69.5318 21.3397 69.5028 21.2319 69.6087C21.1956 69.6243 21.1121 69.6324 20.9837 69.6335V69.6346C20.9057 69.6685 20.8067 69.6767 20.6864 69.6592C20.5425 69.8256 20.4315 69.9259 20.3535 69.9595L19.8837 69.9544C19.4561 70.0037 18.9238 70.0129 18.2869 69.9821C17.797 69.7484 17.2167 69.5748 16.5458 69.4607C16.2121 69.2103 15.9151 69.0845 15.6543 69.0835C15.5917 68.9433 15.1453 68.6421 14.3156 68.1797C14.0388 68.0278 13.8722 67.9639 13.8156 67.9885C13.6067 67.7725 13.4618 67.6818 13.381 67.7168L13.3047 67.5461C14.0964 67.8513 14.5219 67.991 14.5809 67.9652L14.5614 67.9218L14.164 67.7334L14.1463 67.6937L14.1908 67.6745C14.199 67.6931 14.4511 67.79 14.9473 67.9656C15.4431 68.141 15.8617 68.2292 16.2027 68.2301C16.4791 68.2813 16.6565 68.2897 16.7345 68.2559L16.7788 68.2367C16.8274 68.2158 16.843 68.1758 16.8262 68.1167C15.6599 67.8283 15.0402 67.6021 14.9666 67.4382L14.9015 67.5185C14.8128 67.557 14.7239 67.4769 14.635 67.2784L14.5503 67.315L14.5876 67.3983L14.5431 67.4177C14.4911 67.3013 14.4253 67.1937 14.346 67.0954L14.4349 67.0571L14.4544 67.1005C15.9705 67.6322 17.013 67.9127 17.5814 67.9415C17.5814 67.9415 19.1801 68.2871 19.9223 67.8699C21.2602 67.1178 20.9171 62.0196 20.9171 62.0196L21.0215 60.5623C21.0364 59.5359 20.9372 58.4366 20.7239 57.2646C20.6216 57.0025 20.2097 55.9724 20.2533 55.7597C20.3221 55.6142 20.3839 55.5465 20.4385 55.5574L20.5769 55.5847C20.5891 55.5253 20.6111 55.4986 20.6429 55.5048ZM31.6539 63.0247C31.8451 63.7418 31.9877 64.1005 32.0817 64.1005V64.0528C32.0817 64.0152 32.0656 63.8604 32.0332 63.5885L32.0817 63.3545C32.0494 63.3545 32.0332 63.3385 32.0332 63.3067L31.9406 63.3545H31.8435C31.8435 63.1345 31.7805 63.0247 31.6539 63.0247ZM28.7351 59.2643C28.5852 59.4579 28.4266 59.8005 28.2589 60.2924C28.1882 60.7231 28.0619 61.1424 27.8797 61.5502H27.8312V61.7367C27.9929 61.7367 28.5162 61.6125 29.401 61.3637V61.3161C29.401 61.2494 29.1791 60.58 28.7351 59.3075V59.2643ZM27.3002 57.0081H27.1106V57.1036H27.2077C26.7314 58.0956 26.4932 58.7809 26.4932 59.1598C26.5609 59.1453 26.6239 59.0672 26.6828 58.9255C26.6534 58.8706 26.6389 58.8083 26.6389 58.739C26.7123 58.739 26.8548 58.4742 27.0664 57.9451L27.0181 57.8496V57.8019C27.1914 57.6082 27.2855 57.3437 27.3002 57.0081Z" fill="black"/>
<path d="M7.00424 66.5385C6.43388 66.5067 6.1487 66.3825 6.1487 66.1657C6.06938 66.1657 5.99006 66.1337 5.91054 66.0702C5.91054 66.1019 5.89449 66.1179 5.86219 66.1179C5.86219 66.0801 5.73565 65.9559 5.48297 65.7447C5.48297 65.6116 5.35644 65.4715 5.10375 65.3239C4.81265 65.1562 4.41718 64.4869 3.91736 63.3155C3.81357 63.172 3.75183 63.1572 3.73234 63.2707C3.76177 63.508 3.77649 63.7797 3.77649 64.0864C3.77649 64.1326 3.76177 64.1558 3.73234 64.1558L3.77649 64.2513V64.5331C3.77649 64.5938 3.74552 64.7486 3.68379 64.9973L3.77649 64.9539C3.80879 65.2748 3.82485 65.4614 3.82485 65.5136H3.77649L3.82485 65.6046V65.9342L3.8734 66.1685C3.80879 66.1685 3.77649 66.2148 3.77649 66.3074C3.77649 66.3334 3.79254 66.4577 3.82485 66.6805L3.30457 66.867C3.11343 66.867 3.01805 66.7123 3.01805 66.4028H2.92095C2.89152 66.5242 2.8768 66.6327 2.8768 66.7282H2.82825C2.82825 66.5314 2.66961 66.4071 2.35213 66.355C2.35213 66.1469 2.27281 65.8966 2.11397 65.6046C2.05223 65.6364 2.00521 65.6524 1.97291 65.6524V65.7H2.06982V65.7477C2.06982 65.7767 2.05376 65.7911 2.02127 65.7911L2.06982 65.8865V65.982C1.81407 65.7564 1.6862 65.3358 1.6862 64.7196C1.75081 64.0777 1.7833 63.6178 1.7833 63.3401C1.7833 63.0135 1.75081 62.7257 1.6862 62.4769C1.6862 62.4482 1.70226 62.3237 1.73475 62.1039C1.73475 62.0635 1.71851 61.9072 1.6862 61.6355L1.73475 61.4013C1.70226 61.349 1.6862 61.271 1.6862 61.167H1.73475C1.67282 61.0021 1.62599 60.7693 1.5935 60.4687H1.64205C1.25098 58.5048 0.902728 57.5232 0.597098 57.5232L0.5 57.1977V57.15C0.508792 57.0866 0.541095 57.0548 0.597098 57.0548H0.64106L0.738158 57.1024C0.738158 57.0706 0.754214 57.0548 0.786516 57.0548L0.738158 56.9636C0.74695 56.8999 0.777723 56.8681 0.830669 56.8681C0.892406 56.8999 0.940955 56.9159 0.976125 56.9159C0.976125 56.8696 1.02314 56.8234 1.11738 56.7771C1.30851 56.9071 1.40389 57.0475 1.40389 57.1977C1.49506 57.1977 1.63765 57.1197 1.83166 56.9636L1.96507 56.9591C1.96507 57.0834 2.09142 57.1456 2.34429 57.1456V57.2412H2.24738V57.2844C2.41788 57.2844 2.54422 57.3322 2.6266 57.4277L2.58245 57.3322V57.2844H2.67515C2.67515 57.3393 2.77072 57.4796 2.96167 57.7054C3.52916 59.0789 5.1653 61.3853 5.95909 64.2481C6.02676 64.2481 6.09002 64.3883 6.1487 64.669C6.46637 64.3306 6.75136 63.2867 7.00424 61.537C7.00424 61.5081 6.98818 61.4938 6.95588 61.4938C7.01169 60.7447 7.09101 60.3702 7.19385 60.3702C7.19385 60.405 7.21009 60.4512 7.24239 60.5091C7.17779 60.6334 7.1453 60.8054 7.1453 61.0252C7.1453 61.0946 7.16154 61.1568 7.19385 61.2118C7.16154 61.5733 7.11452 61.8536 7.05279 62.0533C7.08509 62.2701 7.13211 62.3786 7.19385 62.3786H7.24239C7.24239 62.2543 7.27336 62.1921 7.33491 62.1921V61.7279C7.37027 61.7279 7.41882 61.7121 7.48055 61.6801C7.44825 61.6137 7.41576 61.4735 7.38345 61.2595C7.44519 61.2275 7.49221 61.2118 7.52471 61.2118L7.48055 60.9775C7.50999 60.9775 7.52471 60.9617 7.52471 60.9297H7.432V60.8387C7.55835 60.8387 7.62161 60.48 7.62161 59.7629C7.66577 59.5517 7.71279 59.4117 7.76267 59.3421C7.70113 59.3421 7.67016 59.2958 7.67016 59.2031V58.687H7.62161V58.6438C7.62161 58.612 7.63786 58.596 7.67016 58.596L7.62161 58.5005C7.6952 58.4311 7.75828 58.2288 7.81122 57.8934L7.76267 57.8022C7.82747 57.6866 7.85977 57.5621 7.85977 57.4292L7.81122 57.3337H7.90832V57.2859H7.81122V57.1949C7.96126 56.8768 8.18318 56.6265 8.47715 56.4443C8.76232 56.4966 8.90491 56.5587 8.90491 56.631V56.7264C8.55207 56.8653 8.26689 57.1299 8.04938 57.5202L8.09793 57.6157L7.95228 58.6438H8.04938L7.95228 58.7825C7.95228 58.8519 7.96853 58.9142 8.00083 58.9691L7.90832 59.2031L7.95228 59.4374L7.90832 59.5286L7.95228 59.8106V59.9494C7.89074 60.253 7.85977 60.4251 7.85977 60.4655C7.85977 60.5349 7.87602 60.5971 7.90832 60.652C7.84372 60.8083 7.79517 60.8863 7.76267 60.8863L7.81122 60.9775C7.81122 61.1337 7.78045 61.2118 7.71871 61.2118L7.76267 61.3073L7.67016 61.446C7.70246 61.6166 7.71871 61.7408 7.71871 61.8189C7.68622 61.8189 7.67016 61.8348 7.67016 61.8666H7.76267C7.76267 61.5543 7.84219 61.258 8.00083 60.9775L7.95228 60.6998V60.652C8.08168 60.652 8.14648 60.5277 8.14648 60.279H8.19063L8.14648 60.1837C8.21987 60.0823 8.26689 59.9422 8.28754 59.7629C8.25524 59.711 8.23899 59.6328 8.23899 59.5286H8.28754L8.23899 59.4374L8.33609 59.2945V59.2509C8.33609 59.1787 8.31984 59.1165 8.28754 59.0646C8.34928 58.8446 8.3963 58.7348 8.4286 58.7348C8.3963 58.6942 8.38005 58.6161 8.38005 58.5005C8.41254 58.5005 8.4286 58.4862 8.4286 58.4573L8.38005 58.2662C8.4242 58.1247 8.48747 58.048 8.56966 58.0363L8.5257 57.941C8.55513 57.8859 8.56966 57.8238 8.56966 57.7545H8.66676C8.63445 58.1739 8.61821 58.4847 8.61821 58.687V59.0168C8.52417 59.0168 8.47715 59.0471 8.47715 59.1078C8.57119 59.1078 8.61821 59.2641 8.61821 59.5764H8.66676C8.7931 59.3363 8.85636 59.196 8.85636 59.1556C8.82406 59.0948 8.80801 59.0486 8.80801 59.0168L8.85636 58.5483C8.82406 58.4875 8.80801 58.4413 8.80801 58.4095C8.90491 58.4095 8.95346 58.3475 8.95346 58.2228H9.04597V58.2662C8.91963 58.9083 8.85636 59.9682 8.85636 61.446H8.80801C8.80801 61.4778 8.82406 61.4938 8.85636 61.4938L8.80801 61.7279V61.8189L8.99742 61.7279V61.7713C8.93569 62.4047 8.7931 63.3704 8.56966 64.669C8.56966 65.0421 8.33303 65.5567 7.85977 66.2134C7.85977 66.4041 7.57459 66.5126 7.00424 66.5385Z" fill="black"/>
<path d="M11.1935 65.4477H10.9112C10.9112 65.387 10.8156 65.3248 10.6246 65.2612C10.1483 64.7637 9.91017 63.4711 9.91017 61.3831C9.88074 61.3831 9.86621 61.3211 9.86621 61.1966C9.86621 61.1648 9.88074 61.1489 9.91017 61.1489L9.86621 60.9148V60.4938C9.86621 60.4649 9.88074 60.4506 9.91017 60.4506C9.88074 60.3898 9.86621 60.3421 9.86621 60.3073L9.91017 59.1882H9.95872C9.95872 59.1564 9.94267 59.1404 9.91017 59.1404C9.95127 58.7183 9.98376 58.4696 10.0073 58.3942C10.0073 58.3624 9.99102 58.3466 9.95872 58.3466C9.95872 58.3147 9.97497 58.2684 10.0073 58.2079C10.0396 57.4214 10.0556 56.7981 10.0556 56.3382C10.0556 55.8292 9.99255 55.1742 9.86621 54.3732C10.0042 54.1245 10.1468 54 10.2938 54C10.4761 54 10.5864 54.0782 10.6246 54.2343C10.8569 54.2865 11.0625 54.4426 11.242 54.703C11.242 54.7867 11.2743 54.8792 11.3389 54.9805L11.4316 54.9371H11.4802C11.5419 55.3622 11.5727 55.595 11.5727 55.6354H11.6698V55.5444C11.8049 55.5444 11.8842 55.7612 11.9078 56.1951C11.9519 56.1951 12.0152 56.4134 12.0974 56.85C12.1299 56.85 12.1459 56.866 12.1459 56.8978C12.1459 56.9295 12.1299 56.9455 12.0974 56.9455L12.2386 57.9258C12.2063 58.0937 12.1901 58.2338 12.1901 58.3466V58.8584C12.1901 58.9308 12.1753 58.9945 12.1459 59.0494C12.1753 59.1072 12.1901 59.1534 12.1901 59.1882C12.0754 60.3391 11.9813 60.9148 11.9078 60.9148L11.9563 61.2444V62.0858C11.9563 62.1551 11.9402 62.2174 11.9078 62.2723C11.9402 62.3274 11.9563 62.3894 11.9563 62.459V62.5066C11.9563 62.5675 11.924 62.5977 11.8594 62.5977C11.8594 62.566 11.8432 62.55 11.8108 62.55V62.5977L11.9078 62.7365V62.832L11.7183 64.3285L11.4802 64.7015C11.3743 64.7015 11.2787 64.7477 11.1935 64.8404C11.1935 64.872 11.2095 64.888 11.242 64.888L11.1935 65.3567V65.4477Z" fill="black"/>
<path d="M7.18886 60.2915H7.14025C7.09624 60.2915 7.04916 60.2453 6.99902 60.1527V60.0617C6.99902 60.0297 7.01529 60.0139 7.04763 60.0139L6.99902 59.9183C7.0637 59.8171 7.09624 59.7245 7.09624 59.6406H7.18886V59.6839L7.14025 59.9183C7.17278 60.0398 7.18886 60.1644 7.18886 60.2915Z" fill="black"/>
<path d="M47.6254 57.3526C47.6614 57.3675 47.7078 57.2729 47.7156 57.2505C47.7156 57.2306 47.8058 57.3202 47.8161 57.2903C47.8496 57.1783 47.8908 57.019 47.914 56.8995C47.914 56.8995 47.8341 56.8746 47.8831 56.8472C47.9405 56.7941 47.9755 56.7222 47.981 56.6456C47.981 56.6082 47.9269 56.5535 47.9372 56.541C47.9475 56.5286 48.0119 56.5858 48.0351 56.5858C48.0573 56.4682 48.0918 56.3531 48.1382 56.2423V56.2423C48.1382 56.2075 48.0866 56.1651 48.0918 56.1427C48.097 56.1203 48.0918 56.0979 48.0918 56.0929C48.0918 56.088 48.164 56.1353 48.1871 56.1377C48.2499 55.817 48.3538 55.5051 48.4964 55.2092C48.4964 55.2092 48.4964 55.2092 48.4964 55.2092C48.4964 55.2092 48.4964 55.1818 48.4964 55.1519C48.4964 55.1221 48.4268 55.1519 48.401 55.1519C48.1497 55.643 47.9594 56.1611 47.8341 56.6954V56.6954C47.8341 56.7302 47.8856 56.7576 47.8831 56.7925C47.664 56.8746 47.6254 57.0937 47.5738 57.2903C47.5738 57.2903 47.5738 57.3177 47.5738 57.3401C47.5738 57.3625 47.5919 57.3401 47.6254 57.3526ZM40.3325 68.3209C40.3634 68.3209 40.317 68.2785 40.3325 68.2785C40.3788 68.2809 40.4253 68.2809 40.4716 68.2785C40.7474 68.2138 40.9587 68.1391 41.0643 67.8753C41.2382 67.784 41.3745 67.6383 41.4509 67.462C41.4664 67.4297 41.4019 67.3973 41.4097 67.3649C41.8606 66.8173 42.2652 66.3094 42.4018 65.6074C42.3889 65.58 42.3065 65.5751 42.309 65.5377C42.3317 65.4302 42.3628 65.3246 42.4018 65.2216C42.6125 64.6141 42.7846 63.9947 42.9172 63.367C42.9172 63.3396 42.9172 63.3421 42.9172 63.367C42.943 63.2375 42.8992 63.3421 42.9172 63.235C43.1027 63.2027 43.0692 62.9487 43.0924 62.8218C43.0924 62.7819 43.1801 62.8541 43.1929 62.8218C43.3682 63.6906 43.3965 64.6141 43.93 65.356C44.0137 65.777 44.2471 66.1564 44.5897 66.4289C44.5484 66.6032 44.9118 67.2753 44.9659 67.35C45.0999 67.5068 45.0716 67.35 45.1437 67.4023C45.2159 67.4545 45.2262 67.3326 45.252 67.3799C45.3331 67.5511 45.4508 67.7037 45.5973 67.828C45.6127 67.8404 45.5818 67.828 45.5973 67.828C45.6127 67.828 45.6127 67.828 45.6462 67.828C45.6797 67.828 45.6462 67.7483 45.6591 67.7383C45.6896 67.7309 45.7215 67.7309 45.7519 67.7383C45.7777 67.7383 45.7287 67.7682 45.7519 67.7906C45.8204 67.8499 45.8833 67.9148 45.94 67.9848C45.9658 68.0196 45.9246 67.9624 45.94 67.9848C45.9555 68.0072 46.0714 67.9848 46.0895 67.9848C46.1075 67.9848 46.1024 67.9499 46.0895 67.945C46.0766 67.94 46.0044 67.945 45.9993 67.945C45.9941 67.945 45.9993 67.8603 45.9993 67.8504C46.0314 67.8422 46.0651 67.8422 46.0972 67.8504C46.1307 67.8504 46.2106 67.94 46.2441 67.9474C46.2776 67.9549 46.3266 67.9773 46.342 67.9474C46.3932 67.8826 46.4591 67.8298 46.5345 67.7931C46.61 67.7565 46.6931 67.7369 46.7775 67.7358C46.9488 67.5402 47.065 67.3053 47.1151 67.0538C47.5932 66.0404 47.9695 64.985 48.2387 63.9022C48.2387 63.9022 48.2567 63.9022 48.2387 63.9022C48.3186 63.5736 48.1717 63.6134 48.2645 63.1554C48.3572 62.6973 48.5788 61.6244 48.6252 61.0543C48.6252 60.9771 48.6252 61.0145 48.6252 61.0543C48.6407 60.8552 48.6252 61.0394 48.6252 60.9746C48.6252 60.9099 48.5943 61.002 48.5814 60.9597C48.5557 61.0294 48.5557 61.124 48.5247 61.1838C48.4938 61.2435 48.4448 61.1838 48.4217 61.1838C48.5196 60.188 48.6794 59.1922 48.8417 58.1965C48.8417 58.1666 48.8417 58.1566 48.8417 58.1492C48.7567 58.1143 48.6149 58.3682 48.584 58.3981C48.5531 58.428 48.6072 58.3558 48.584 58.3981C48.5608 58.4404 48.5067 58.3807 48.4809 58.4106C48.4809 58.2861 48.5196 58.2537 48.5299 58.1118C48.5402 57.9699 48.5299 57.7135 48.5299 57.5567C48.5299 57.5268 48.6227 57.5716 48.6201 57.5567C48.6149 57.4722 48.5993 57.3887 48.5737 57.3078C48.5608 57.2879 48.499 57.2854 48.4706 57.3078C48.448 57.3979 48.4316 57.4894 48.4217 57.5816C48.4036 57.6214 48.4217 57.5816 48.4217 57.5816C48.4217 57.5816 48.3315 57.5169 48.3237 57.5467C48.2576 57.8913 48.1716 58.2321 48.066 58.5674V58.5674C48.066 58.6047 48.1201 58.6396 48.115 58.6794C47.9217 58.8014 47.9346 59.0902 47.8959 59.2769C47.8959 59.3117 47.8186 59.2221 47.8032 59.2321C47.7877 59.242 47.7594 59.2146 47.7465 59.2321C47.6723 59.4073 47.6195 59.5902 47.5893 59.7772V59.7772C47.5893 59.8196 47.6357 59.8445 47.6357 59.8942C47.6102 59.9789 47.5579 60.0538 47.4862 60.1083C47.445 60.1083 47.4862 60.1083 47.4862 60.1083C47.4862 60.1083 47.396 60.1258 47.378 60.1083C47.3599 60.0909 47.378 60.0013 47.378 59.9415C47.3977 59.8594 47.4131 59.7763 47.4244 59.6926C47.4244 59.6727 47.3702 59.6602 47.378 59.6354C47.3857 59.6105 47.378 59.6503 47.378 59.6354C47.378 59.6204 47.4269 59.6354 47.4295 59.6354C47.5996 58.8761 47.7697 58.1268 47.8624 57.3551C47.8161 57.3551 47.6949 57.3426 47.6692 57.3551C47.6434 57.3675 47.7439 57.4123 47.6975 57.4497C47.6511 57.487 47.6073 57.3924 47.5403 57.4148C47.4733 57.4372 47.445 57.6637 47.4501 57.7185C47.4553 57.7733 47.4501 57.7185 47.4501 57.7185C47.4501 57.7708 47.4888 57.9675 47.4939 58.0372C47.4991 58.1069 47.4939 58.1517 47.4939 58.2064C47.2517 58.418 47.262 58.789 47.2362 59.0802C47.2362 59.14 47.2929 59.1325 47.2775 59.1997C47.262 59.2669 47.146 59.3665 47.0893 59.4163C47.0327 59.4661 47.1254 59.5283 47.1228 59.5731C47.1203 59.6179 47.1228 59.5731 47.1228 59.5731C47.0929 59.6492 47.0576 59.7232 47.0172 59.7947C47.0172 59.8295 47.0919 59.8942 47.0584 59.9042C46.9708 59.9341 46.9553 60.1208 46.9605 60.1731C46.9657 60.2253 46.9605 60.1731 46.9605 60.1731C46.9605 60.2253 47.012 60.2552 46.9992 60.2851C46.9863 60.315 46.9837 60.2851 46.9347 60.2851C46.9054 60.3125 46.8823 60.3454 46.8668 60.3818C46.8513 60.4182 46.8437 60.4573 46.8445 60.4967V60.4967C46.8445 60.5216 46.7621 60.4967 46.7389 60.4967C46.7188 60.4958 46.6991 60.4907 46.6813 60.4817C46.6635 60.4726 46.6479 60.4599 46.6358 60.4444C46.61 60.4096 46.677 60.3199 46.6899 60.2851C46.7028 60.2502 46.6899 60.3075 46.6899 60.2851C46.6899 60.2627 46.6332 60.2179 46.6461 60.1755C46.659 60.1332 46.6848 60.1108 46.6976 60.061C46.7105 60.0112 46.6435 59.9615 46.659 59.9042C46.698 59.8005 46.7315 59.695 46.7595 59.5881C46.7595 59.5308 46.7595 59.6229 46.7595 59.5881C46.766 59.5518 46.766 59.5148 46.7595 59.4785C46.7595 59.4412 46.726 59.4935 46.7105 59.4785C46.3626 60.7805 46.0328 62.0849 45.7004 63.3918C45.721 63.4317 45.7416 63.469 45.7596 63.5089C45.5251 63.6483 45.5174 63.8574 45.5174 64.1038C45.489 64.0764 45.4839 64.1436 45.4581 64.0814C45.4323 64.0192 45.319 63.9271 45.3009 63.8499C45.2623 63.6756 45.3009 63.479 45.2726 63.2997C45.2726 63.2574 45.3344 63.2325 45.319 63.1952C45.27 63.0981 45.3525 63.3271 45.2365 63.1305C45.1004 62.8149 45.0295 62.4766 45.0278 62.1347C45.0458 62.1347 45.0767 62.0974 45.0767 62.0874C45.0767 62.0774 45.0767 62.0874 45.0767 62.0874C44.8422 60.9622 44.6335 59.8469 44.417 58.7118C44.4015 58.7118 44.3268 58.7765 44.3217 58.7541C44.292 58.6694 44.2576 58.5863 44.2186 58.5052C44.2186 58.4902 44.2624 58.4604 44.2624 58.4479C44.2624 58.3209 44.2624 58.199 44.2624 58.0745C44.1335 58.0944 44.1104 57.8853 44.1078 57.8256C44.1078 57.5916 44.1078 57.3924 44.1078 57.1659C44.0253 57.1783 44.0073 57.0588 44.0021 57.029C44.0021 57.014 43.9171 57.0041 43.9016 57.029C43.8862 57.0538 43.9197 57.1086 43.832 57.1161C43.7784 57.1282 43.7278 57.1508 43.6835 57.1825C43.6392 57.2142 43.602 57.2543 43.5743 57.3003V57.3003L43.3166 57.243C43.3373 57.1684 43.3527 57.0787 43.3708 57.009C43.3888 56.9393 43.3708 56.8671 43.3708 56.8074C43.3708 56.7477 43.2522 56.658 43.2342 56.668C43.1088 56.77 42.9723 56.8585 42.827 56.9319C42.7265 56.9518 42.827 56.9319 42.827 56.9319C42.7265 56.9518 42.7806 56.8746 42.6775 56.8895C42.5745 56.9045 42.3632 57.0464 42.34 57.1758C42.3167 57.341 42.3167 57.5085 42.34 57.6737C42.376 58.0396 42.4894 58.4504 42.4972 58.8313C42.5052 59.3218 42.4428 59.8111 42.3116 60.2851C42.2884 60.3697 42.3709 60.4643 42.3477 60.534C42.3477 60.5614 42.273 60.534 42.2549 60.534C42.1036 61.0941 41.9212 61.6459 41.7086 62.187V62.187L41.7653 62.2791C41.5901 62.9064 41.3427 63.484 41.1236 64.1013C40.9633 64.6644 40.7138 65.2001 40.384 65.6896V65.6896C40.384 65.6896 40.3454 65.6896 40.3428 65.6896C40.325 65.2572 40.262 64.8277 40.1547 64.4075V64.4075C40.1882 64.4075 40.1753 64.4324 40.2139 64.4075C40.2526 64.3826 40.1727 64.2482 40.1572 64.2134C40.1418 64.1785 40.1572 64.2358 40.1572 64.2134C40.1572 64.1909 40.2036 64.1387 40.1933 64.1063C40.183 64.0739 40.1495 64.0266 40.1444 64.0042C40.1251 63.7656 40.1251 63.5259 40.1444 63.2873C40.1444 63.2599 40.1444 63.2574 40.1444 63.2873C40.1444 63.0956 40.116 63.0533 40.1057 62.8815C39.848 62.5305 39.8042 62.0127 39.7243 61.6045C39.6908 61.4352 39.7552 61.3555 39.6934 61.2111C39.6315 61.0668 39.5491 60.8651 39.4975 60.7133C39.303 60.1929 39.0552 59.6925 38.7579 59.2196C38.5337 58.8811 38.6342 58.9508 38.3637 58.7491C38.3972 58.5002 37.9333 57.96 37.7684 57.8878C37.6035 57.8156 37.7838 57.8729 37.7684 57.8878C37.6009 57.8156 37.6936 57.9973 37.5803 57.9699C37.5957 57.8753 37.4411 57.7733 37.3741 57.7534C37.3071 57.7335 37.3741 57.7534 37.3741 57.7534C37.3097 57.7359 37.1705 57.7808 37.1164 57.7708C37.1319 57.8679 37.0623 57.9077 36.9901 57.9351C36.918 57.9625 36.9309 57.8604 36.918 57.848C36.9051 57.8355 36.936 57.8654 36.918 57.848C36.8999 57.8305 36.8896 57.848 36.8613 57.848C36.8329 57.848 36.7556 57.9326 36.7247 57.95C36.6938 57.9675 36.6964 57.95 36.6629 57.95C36.6294 57.95 36.5624 57.8953 36.5572 57.8654C36.552 57.8355 36.5572 57.8828 36.5572 57.8654C36.5572 57.848 36.6087 57.7758 36.5881 57.7608C36.5395 57.7532 36.4896 57.7583 36.4438 57.7758C36.3946 57.8107 36.3473 57.8481 36.3021 57.8878C36.3021 57.8032 36.3175 57.7185 36.3227 57.6389C36.1553 57.6918 36.0009 57.7774 35.8691 57.8903V57.8903C35.8898 57.9849 35.8691 57.9923 35.9001 58.1118C35.9327 58.2724 35.9873 58.4281 36.0624 58.5749C36.3916 59.0611 36.6597 59.5834 36.8613 60.1307C37.1874 60.4874 37.4207 60.9141 37.5416 61.3754C37.5619 61.5232 37.5731 61.672 37.5751 61.821C37.6035 61.9878 37.6808 62.0401 37.7323 62.182C37.7581 62.2542 37.6962 62.3214 37.7323 62.411C38.0172 63.3449 38.2266 64.2987 38.3585 65.2639C38.4667 66.175 38.4951 66.531 38.8043 67.2853C38.8043 67.2654 38.8043 67.2853 38.8043 67.2853C38.8043 67.2853 38.8713 67.2853 38.8971 67.2853C38.9229 67.2853 38.8816 67.1857 38.91 67.1932C38.9383 67.2006 38.9409 67.1483 39.0363 67.2131C39.1647 67.3637 39.2531 67.5423 39.294 67.7334C39.6336 67.9111 39.9615 68.1089 40.2758 68.3258V68.3258C40.3299 68.3457 40.299 68.3109 40.3325 68.3209ZM44.5175 58.1392C44.5175 57.8156 44.5175 57.5019 44.5175 57.1758C44.4299 57.2406 44.3964 57.1609 44.2933 57.2505C44.1945 57.4431 44.1629 57.6614 44.2031 57.8729V57.8729C44.2031 57.8878 44.1877 57.9102 44.2031 57.9177C44.2186 57.9251 44.2804 57.9376 44.301 57.9177C44.3217 57.8978 44.3397 57.7434 44.3526 57.726C44.3655 57.7086 44.3964 57.711 44.399 57.726C44.4144 57.8455 44.399 58.0148 44.399 58.1318C44.4247 58.1542 44.5021 58.1143 44.5175 58.1392ZM42.6518 60.544C42.6002 60.5564 42.474 60.4992 42.3941 60.4967C42.476 60.2585 42.5346 60.0135 42.5693 59.7648V59.7648C42.5848 59.7922 42.6105 59.725 42.6157 59.7648C42.6194 59.8087 42.6194 59.8528 42.6157 59.8967C42.6157 59.9913 42.5745 60.2577 42.5719 60.3772C42.5719 60.4046 42.6621 60.3772 42.6621 60.3772C42.6621 60.3772 42.6827 60.5315 42.6518 60.539V60.544ZM42.1956 63.4391C42.1956 63.3421 42.1802 63.235 42.175 63.1404C42.1699 63.0458 42.2575 63.0757 42.3039 63.0533C42.3503 63.0309 42.2575 63.0135 42.2626 62.996C42.2884 62.9164 42.3632 62.7272 42.3271 62.6525C42.291 62.5778 42.1956 62.4857 42.1725 62.4309C42.1493 62.3762 42.1853 62.4583 42.1725 62.4309C42.1596 62.4036 42.0977 62.4309 42.0771 62.4135C42.0565 62.3961 42.0771 62.5006 42.0771 62.4982C42.0771 62.4957 41.9843 62.4982 41.9818 62.4857C41.9792 62.4733 41.9431 62.3836 41.9818 62.3563C42.0748 62.2875 42.1389 62.1884 42.1621 62.0774C42.2338 61.7542 42.3293 61.4364 42.4482 61.1265V61.1265C42.4662 61.1265 42.5384 61.1912 42.5435 61.1688C42.5355 61.0951 42.5226 61.0219 42.5049 60.9498C42.5049 60.9099 42.4894 60.9124 42.5049 60.89C42.5203 60.8676 42.577 60.9025 42.5925 60.89C42.608 60.8776 42.5925 60.8651 42.5925 60.8427C42.5925 60.8203 42.5307 60.773 42.5564 60.7431C42.5822 60.7133 42.5873 60.7755 42.6054 60.7904C42.6234 60.8054 42.6492 60.7556 42.6518 60.7456C42.6544 60.7357 42.6518 60.7456 42.6518 60.7456H42.6982C42.6982 60.7456 42.6544 60.8153 42.6518 60.8452C42.648 60.8916 42.648 60.9382 42.6518 60.9846C42.6544 60.9882 42.6579 60.9911 42.6619 60.9932C42.6659 60.9952 42.6704 60.9962 42.675 60.9962C42.6795 60.9962 42.684 60.9952 42.688 60.9932C42.6921 60.9911 42.6955 60.9882 42.6982 60.9846C42.7009 60.9531 42.7009 60.9215 42.6982 60.89C42.8837 61.007 42.8476 61.246 42.8425 61.4377C42.8425 61.5248 42.8425 61.6418 42.742 61.6692C42.742 62.0078 42.6534 62.3409 42.4843 62.6376C42.4843 62.9164 42.5152 63.3097 42.1931 63.4267L42.1956 63.4391ZM47.3239 61.9978C47.3058 62.0526 47.2852 62.0102 47.2672 61.9978C47.2402 61.9501 47.2235 61.8976 47.2182 61.8434C47.2182 61.8136 47.262 61.7563 47.2697 61.724C47.2774 61.5301 47.26 61.3361 47.2182 61.1464C47.2182 61.0419 47.2182 61.1464 47.2182 61.1464C47.2182 61.0419 47.1899 61.1265 47.2182 61.0593C47.2465 60.9921 47.3135 61.1614 47.311 61.1763C47.3084 61.1912 47.311 61.1564 47.311 61.1763C47.3097 61.1954 47.3097 61.2145 47.311 61.2335C47.311 61.2559 47.2388 61.3157 47.2672 61.3431C47.349 61.4756 47.3835 61.6304 47.3651 61.7837C47.3651 61.7837 47.3651 61.7837 47.3651 61.7837C47.3597 61.8563 47.3458 61.9281 47.3239 61.9978ZM41.6184 64.6291C41.5875 64.6042 41.4947 64.6291 41.4767 64.6017C41.4618 64.5513 41.4618 64.4978 41.4767 64.4474C41.4896 64.3777 41.5901 64.2507 41.6029 64.1611C41.6029 64.1287 41.5617 64.0988 41.554 64.0515C41.5462 64.0042 41.5849 64.0515 41.5978 63.9993C41.688 63.6582 41.6802 63.1529 42.0101 62.9139C42.0256 63.0259 42.0771 63.0608 42.0771 63.1952C42.0427 63.3518 41.9512 63.4914 41.8194 63.5885C41.8039 63.5885 41.8709 63.7329 41.8761 63.7404C41.8787 63.7569 41.8787 63.7737 41.8761 63.7902C41.8091 64.0789 41.6828 64.3403 41.6184 64.6291V64.6291Z" fill="#FFA100"/>
<path d="M57.6802 61.2892C57.6802 61.1946 57.4225 60.8112 56.9071 60.1441C56.7602 60.1441 56.6056 60.0271 56.4432 59.7981H56.3917C56.3907 59.8672 56.4094 59.9352 56.4458 59.9947V60.047L56.2345 59.9449C55.5207 59.447 55.0929 59.1981 54.946 59.1981C54.5323 59.1253 54.1325 58.9919 53.7606 58.8023L53.6601 58.8521C53.4324 58.8013 53.2085 58.7356 52.9901 58.6554C52.8489 58.6639 52.7103 58.6959 52.5803 58.75C52.5803 58.7201 52.5623 58.7052 52.5262 58.7052L52.7839 58.3542V58.1053H52.7324C52.5637 57.9055 52.3516 57.744 52.1111 57.6321C51.8706 57.5203 51.6077 57.4609 51.3408 57.458C51.1966 57.4573 51.0546 57.4924 50.9285 57.5601C50.9285 57.5252 50.913 57.5078 50.8769 57.5078H50.6708V57.6099C50.4079 57.6099 50.0128 58.3227 49.4854 59.7483C49.384 59.7483 49.2818 60.827 49.1787 62.9845C49.2243 63.0784 49.243 63.1824 49.2328 63.2857C49.2339 63.3548 49.2151 63.4229 49.1787 63.4824C49.3514 64.1047 49.4364 64.4358 49.4364 64.4781C49.4291 64.4773 49.4217 64.4781 49.4148 64.4805C49.4078 64.4828 49.4015 64.4867 49.3963 64.4917C49.3911 64.4967 49.3872 64.5028 49.3847 64.5095C49.3823 64.5162 49.3815 64.5233 49.3823 64.5304C49.5274 65.1043 49.7169 65.6668 49.9492 66.2132L50.0549 66.1609C50.2225 66.4877 50.4145 66.8022 50.6296 67.1019C50.7617 67.2566 50.9183 67.3901 51.0934 67.4978C51.7377 68.1301 52.3819 68.4462 53.0545 68.4462C53.0545 68.3865 53.2091 68.3392 53.5184 68.2968C54.3172 68.2968 54.7794 68.0819 54.9048 67.6521C55.6263 67.1119 55.9897 66.7808 55.9897 66.6563C56.1108 66.5966 56.317 66.3327 56.6056 65.8622C57.1897 64.7005 57.4818 64.0533 57.4818 63.9205L57.5874 63.9678C57.5812 63.9155 57.5627 63.8653 57.5333 63.8209C57.5845 63.6588 57.6182 63.4919 57.6338 63.323H57.6802V63.4251C57.7506 63.4251 57.8537 63.1438 57.9894 62.5812C57.9406 62.1401 57.8368 61.7063 57.6802 61.2892V61.2892ZM52.2273 66.7111H51.9206C51.8768 66.7111 51.8072 66.6115 51.7145 66.4124C51.3692 65.2673 51.1991 64.4383 51.1991 63.923H51.0934L51.145 63.674V63.6168L50.9388 63.2708L50.9929 62.9695L50.9388 62.7206C51.011 62.7206 51.0445 62.636 51.0445 62.4717C51.0445 62.4393 51.029 62.4244 50.9929 62.4244C50.9929 62.2576 50.9233 62.1754 50.7868 62.1754C50.8085 61.955 50.8983 61.746 51.0445 61.5755C51.0445 61.5182 51.011 61.4859 50.9388 61.4784C51.0338 61.2029 51.1028 60.9196 51.145 60.632C51.138 60.6328 51.1309 60.6321 51.1243 60.6298C51.1177 60.6276 51.1116 60.624 51.1067 60.6192C51.1017 60.6144 51.0979 60.6086 51.0956 60.6022C51.0933 60.5958 51.0926 60.5889 51.0934 60.5822C51.3163 60.3325 51.628 60.1726 51.967 60.1341C52.0084 60.0222 52.084 59.9251 52.1839 59.8557C52.2838 59.7863 52.4032 59.748 52.5262 59.7458H52.7839V59.7981C52.8733 59.8062 52.9632 59.788 53.0416 59.7458C53.1708 59.7698 53.2931 59.8208 53.3998 59.8951L53.5055 59.8429C53.7578 60.0272 53.9972 60.2276 54.2219 60.4428L54.3275 60.393C54.3275 60.4727 54.4822 60.6544 54.7914 60.9382C55.202 61.524 55.4073 61.9887 55.4073 62.3323C55.3265 63.2766 54.8111 64.3553 53.8611 65.5685C53.379 66.0265 52.8283 66.4117 52.2273 66.7111V66.7111ZM55.1135 64.9685L55.0079 64.9162H54.9048C54.9048 65.0507 54.8713 65.1154 54.8043 65.1154C54.7218 65.3494 54.6522 65.4664 54.5981 65.4664V65.3594H54.4925V65.4614H54.392V65.4116C54.7682 65.0333 54.9563 64.7992 54.9563 64.7146H55.1032L55.1135 64.9685ZM56.1959 63.3753V63.4251H56.0902C56.0335 63.7587 55.9304 63.923 55.7835 63.923V64.1147H55.8763V64.2117C55.7045 64.2217 55.5499 64.4881 55.4124 65.0108H55.2063V64.9611L55.5645 64.4109V64.264L55.5181 64.1669C55.8943 63.5222 56.0825 63.1413 56.0825 63.0193H56.134C56.1401 63.0724 56.1586 63.1235 56.1881 63.1687L56.0825 63.3678L56.1959 63.3753Z" fill="#FFA100"/>
<path d="M59.3516 68.844C59.4588 68.8605 59.6344 68.8982 59.6856 68.7734C59.7636 68.7734 59.827 68.804 59.9074 68.8111C59.9878 68.8181 60.0195 68.7192 60.0317 68.6556C60.5802 68.4201 60.5656 67.6124 60.5461 67.1343C60.5461 67.1131 60.5144 66.986 60.512 66.9648C60.4925 66.8094 60.5266 66.5103 60.6777 66.4585C60.7387 66.4373 60.6436 66.4255 60.6485 66.4067C60.6667 66.3673 60.6805 66.3263 60.6899 66.2842C60.6899 66.2512 60.6607 66.2206 60.6461 66.1924C60.6656 65.9027 60.6924 65.6107 60.6997 65.3234C60.6997 65.2928 60.629 65.3234 60.6631 65.2622C60.8021 64.9913 60.9264 64.3202 60.7923 64.0235C60.9198 63.6495 61.1294 63.3065 61.4066 63.0179C61.5822 62.8177 61.7065 62.6576 62.0063 62.3444C62.3062 62.0312 63.1009 61.2705 63.4203 60.9032C63.664 60.6135 63.9517 60.2815 64.1077 60.0907C64.3515 59.7964 64.332 59.6504 64.5953 59.4525C64.5788 59.4234 64.5657 59.3926 64.5563 59.3607H64.6465C64.6777 59.2206 64.7448 59.0902 64.8415 58.9816C64.8951 58.9509 64.8098 58.9486 64.8147 58.9297C64.8196 58.9109 64.8147 58.9038 64.8147 58.8897C64.8537 58.9227 64.8951 58.9533 64.9341 58.991C64.8437 59.1027 64.7736 59.2286 64.7269 59.3631C64.7272 59.4418 64.7329 59.5205 64.744 59.5985C64.7127 59.6205 64.6834 59.6449 64.6562 59.6715C64.588 59.754 64.5173 59.907 64.4124 59.907C64.2613 60.0672 64.1126 60.2273 63.9566 60.378C63.9566 60.378 63.9566 60.4086 63.9566 60.4181C63.9566 60.4275 63.9858 60.4181 63.9931 60.4181C64.0681 60.4044 64.1372 60.3699 64.1922 60.3189C64.2472 60.2679 64.2856 60.2025 64.3027 60.1308L64.432 60.1449C64.432 60.1449 64.432 60.1826 64.432 60.1849C64.432 60.1873 64.3783 60.1567 64.3466 60.1849C64.3149 60.2132 64.3832 60.2226 64.3832 60.2344C64.3832 60.2815 64.3393 60.3851 64.2735 60.3969C64.1955 60.4816 64.0127 60.703 63.9639 60.7713C63.8298 60.9456 63.7201 61.1387 63.53 61.1764C63.5239 61.1791 63.5172 61.1805 63.5105 61.1805C63.5037 61.1805 63.4971 61.1791 63.491 61.1764C63.4611 61.1613 63.4326 61.144 63.4056 61.1245C63.4056 61.1787 63.3861 61.2234 63.3788 61.2776C63.3715 61.3318 63.4032 61.3553 63.4544 61.3695C63.3751 61.4092 63.3041 61.4627 63.2447 61.5272C63.196 61.7627 62.9327 61.897 62.8084 62.0312C62.7216 62.1128 62.6231 62.1818 62.5158 62.2361C62.4476 62.2596 62.489 62.3256 62.4842 62.3444C62.4622 62.4292 62.4573 62.5069 62.3696 62.5187C62.2776 62.5423 62.1914 62.5835 62.1161 62.6397C62.0407 62.6959 61.9777 62.766 61.9308 62.846C61.9454 62.8766 61.9552 62.9049 61.9698 62.9355L61.882 62.9143C61.7313 63.1888 61.5627 63.4539 61.3774 63.7079V63.8351L61.453 63.8516C61.5724 63.7833 61.5334 63.6749 61.6455 63.5949C61.9186 63.3994 62.077 63.098 62.3574 62.8036C62.5353 62.6152 62.9376 62.2455 63.0351 61.9299C63.0511 61.9257 63.0679 61.9257 63.0838 61.9299C63.1131 61.9441 63.135 61.9653 63.1643 61.9817C63.5227 61.6144 63.8737 61.2423 64.2101 60.8561L64.2467 60.6017H64.3344C64.3856 60.5429 64.449 60.4581 64.5343 60.4534C64.5343 60.3827 64.5343 60.3097 64.5173 60.2367C64.5459 60.2392 64.5744 60.2431 64.6026 60.2485C64.7854 60.013 64.7927 59.8435 65.0463 59.6174C65.4656 59.2453 65.8142 58.5365 66.0653 58.009C66.0653 57.9925 66.0165 57.9454 65.9848 57.9595C66.1572 57.6767 66.2699 57.3638 66.3164 57.0387C66.2018 57.0058 66.1213 56.8927 66.0214 56.8315C66.0063 56.8268 65.9901 56.8268 65.9751 56.8315C65.9507 56.8315 65.9093 56.8762 65.8824 56.8645C65.8556 56.8527 65.8824 56.8127 65.841 56.8174C65.8066 56.8241 65.7731 56.8343 65.741 56.848C65.741 56.8197 65.741 56.7915 65.741 56.7608L65.88 56.7773C65.8871 56.736 65.892 56.6943 65.8946 56.6525C65.8312 56.6737 65.6728 56.7279 65.624 56.6973C65.5753 56.6667 65.624 56.6667 65.624 56.6101C65.624 56.5536 65.7898 56.4995 65.8678 56.5206C65.8678 56.4877 65.8678 56.4618 65.8678 56.4312H65.7752C65.593 56.558 65.3811 56.6389 65.1584 56.6667C65.1072 56.6667 65.1584 56.6172 65.1097 56.629C65.2047 56.5065 65.2925 56.3935 65.3851 56.2663C65.3705 56.2663 65.3559 56.2663 65.3412 56.2663L65.1438 56.3723C65.1438 56.3299 65.1438 56.2875 65.1609 56.2451C64.7574 56.3303 64.375 56.4902 64.0346 56.7161C63.8371 56.848 63.4325 57.2365 63.3033 57.3472C62.9083 57.691 62.3476 58.3363 62.1209 58.5789C61.7187 59.0098 61.4261 59.0616 61.2287 59.5208C60.8429 59.8132 60.5304 60.1859 60.3145 60.6112C60.2264 60.5056 60.1707 60.3784 60.1536 60.2438C60.0805 59.8199 60.0927 59.0805 59.8075 58.7154C59.7221 58.48 59.6124 57.9783 59.3345 57.8794C59.2833 57.8606 59.276 57.9053 59.2321 57.903C59.2321 57.83 59.1639 57.6251 59.0883 57.6063C59.052 57.5955 59.0141 57.5907 58.9762 57.5921C58.8982 57.5921 58.7324 57.5921 58.6422 57.5921C58.6422 57.5686 58.6422 57.5238 58.6422 57.505C58.6422 57.4862 58.6129 57.505 58.6007 57.505C58.5203 57.5521 58.452 57.6204 58.357 57.6675C58.357 57.6675 58.357 57.6675 58.3058 57.6675C58.2546 57.6675 58.2107 57.5521 58.2375 57.4909C58.1619 57.4296 58.101 57.3661 58.0279 57.3072C58.0279 57.3072 58.001 57.3072 57.9815 57.3072C57.9758 57.3065 57.97 57.307 57.9645 57.3087C57.959 57.3105 57.954 57.3133 57.9498 57.3172C57.9456 57.321 57.9423 57.3257 57.9402 57.3309C57.9381 57.3361 57.9373 57.3417 57.9377 57.3472C57.6939 57.3943 57.4501 57.4579 57.3867 57.7217C57.5107 57.8922 57.6223 58.0708 57.7207 58.2562C58.1424 59.5138 58.6032 62.5987 58.6495 63.5501C58.7324 65.1986 58.6495 66.2818 58.6495 67.2874C58.6495 68.293 58.8762 67.968 58.9396 68.7216C58.9396 68.7404 58.9396 68.7216 58.9396 68.7545C59.0427 68.7485 59.1461 68.7485 59.2492 68.7545C59.3565 68.7451 59.3467 68.7804 59.3516 68.844ZM61.2823 60.3356C61.492 59.6551 62.1575 59.1064 62.6304 58.5883C62.6304 58.5883 62.6304 58.553 62.6304 58.5482C62.6153 58.5442 62.5993 58.5442 62.5841 58.5482C62.5548 58.5482 62.5207 58.5694 62.489 58.5741C62.489 58.5412 62.4744 58.4705 62.5037 58.4493C62.5462 58.4302 62.594 58.4244 62.6402 58.4329C62.6548 58.4329 62.6597 58.4823 62.6841 58.48C62.7084 58.4776 62.7182 58.4917 62.7304 58.48C62.8644 58.4093 62.7133 58.2774 62.9205 58.2445C63.0646 58.1849 63.1936 58.096 63.2988 57.9839C63.404 57.8717 63.4829 57.7389 63.53 57.5945C63.53 57.5945 63.53 57.5592 63.53 57.5545C63.53 57.5498 63.4666 57.5545 63.4471 57.5403C63.4276 57.5262 63.4471 57.5121 63.4471 57.5027L63.6689 57.4862C63.6562 57.4563 63.6456 57.4256 63.6372 57.3943C63.6348 57.3669 63.6348 57.3393 63.6372 57.3119L63.7177 57.3614C63.7177 57.3402 63.7177 57.2978 63.7177 57.2813C63.7177 57.2648 63.7494 57.2813 63.7616 57.2813C63.7737 57.2813 63.8176 57.319 63.8469 57.3331C63.8812 57.1901 63.9677 57.0638 64.0907 56.9775C64.1199 56.994 64.1467 57.0152 64.1784 57.0293C64.1784 56.9657 64.2637 56.7938 64.3198 56.8503C64.3759 56.9069 64.2052 57.034 64.176 57.067C64.2033 57.073 64.231 57.0778 64.2589 57.0811C64.1004 57.5686 63.5543 58.0231 63.2228 58.3763C62.6499 59.0027 61.7796 59.6574 61.3506 60.3686L61.2823 60.3356ZM64.2516 58.9533C64.193 58.9345 64.2516 58.8285 64.1955 58.8002C64.2735 58.6165 64.3637 58.2986 64.6026 58.2821C64.6245 58.2821 64.6416 58.268 64.6562 58.2821C64.6709 58.2963 64.7074 58.4117 64.6855 58.4352C64.6635 58.4588 64.5709 58.4847 64.5831 58.5412C64.5953 58.5977 64.6197 58.5883 64.627 58.6354C64.6343 58.6825 64.5026 58.6919 64.4685 58.699C64.4515 58.7932 64.3418 58.9745 64.2516 58.9533ZM60.6119 63.8516C60.5851 63.8516 60.5607 63.8115 60.5315 63.7974C60.6475 63.6454 60.7403 63.478 60.8069 63.3005C60.9162 63.1052 61.0705 62.9368 61.2579 62.8083C61.275 62.6764 61.3457 62.6458 61.4749 62.6694C61.4749 62.7047 61.4749 62.7424 61.4749 62.7777C61.4481 62.7777 61.4237 62.7636 61.3896 62.7589C61.3316 62.9124 61.2333 63.0488 61.1044 63.1545C60.9717 63.2717 60.8855 63.4299 60.8606 63.6019C60.7265 63.6325 60.7119 63.7456 60.7094 63.8657C60.6765 63.8647 60.6437 63.86 60.6119 63.8516V63.8516ZM59.8343 66.5856L59.7368 66.5715C59.7368 66.5456 59.7806 66.5268 59.7831 66.4985C59.7892 66.4445 59.7892 66.39 59.7831 66.336C59.7831 66.3101 59.727 66.2724 59.7392 66.2465C59.7514 66.2206 59.7879 66.2465 59.7879 66.2088C59.7917 66.1831 59.7917 66.1569 59.7879 66.1311C59.7879 66.1052 59.7319 66.0652 59.7416 66.0416C59.7514 66.0181 59.7758 66.0181 59.7758 66.004C59.777 65.9914 59.777 65.9788 59.7758 65.9663C59.7611 65.931 59.7416 65.9051 59.727 65.8721C59.7594 65.8661 59.793 65.8711 59.8221 65.8862C59.8406 65.9013 59.8548 65.9206 59.8633 65.9425C59.8718 65.9643 59.8744 65.9879 59.8708 66.011C59.8538 66.0393 59.8391 66.011 59.8245 66.011C59.8367 66.1335 59.866 66.263 59.866 66.3855C59.8757 66.4561 59.8391 66.5173 59.8343 66.5856ZM59.2614 67.1791C59.2361 67.1449 59.224 67.1032 59.2273 67.0613C59.279 66.8848 59.3157 66.7044 59.337 66.5221C59.337 66.4844 59.3662 66.5221 59.3857 66.5221C59.4052 66.5221 59.4564 66.6422 59.4247 66.6704C59.393 66.6987 59.4247 66.6469 59.3735 66.6704C59.3223 66.694 59.4125 66.7999 59.4125 66.8235C59.4024 66.946 59.3694 67.0657 59.315 67.1767C59.2882 67.2262 59.2882 67.1956 59.2614 67.1791Z" fill="#FFA100"/>
<path d="M63.5262 64.946C63.4214 64.8636 62.7412 64.2395 62.5267 64.1053C62.2415 63.9192 62.0391 63.7238 61.7954 63.5212C61.6052 63.3729 61.2493 63.3352 61.0787 63.1327C60.869 63.1327 60.8544 63.0691 60.8129 62.8713C60.7555 62.8206 60.6873 62.7829 60.613 62.7606C60.5448 62.737 60.3449 62.5981 60.2766 62.5675C60.0906 62.5067 59.9231 62.4023 59.7891 62.2637C59.869 62.287 59.9504 62.3051 60.0328 62.3179C60.1196 62.3203 60.2062 62.3084 60.2888 62.2825C60.9969 62.451 61.6892 62.6763 62.3585 62.9561C62.378 62.916 62.3902 62.8242 62.4584 62.8524C62.5791 62.9225 62.7075 62.9793 62.8412 63.022C63.0544 63.1172 63.2523 63.2418 63.4287 63.3917C63.4433 63.4082 63.4677 63.3564 63.4848 63.3682C63.5018 63.3799 63.5189 63.3682 63.5262 63.3682C63.5884 63.479 63.671 63.5779 63.77 63.6602C63.8114 63.7002 63.8163 63.7968 63.8504 63.8274C63.8846 63.858 63.9065 63.8274 63.9406 63.8509C63.9478 63.7621 63.9286 63.6731 63.8855 63.5943C63.8423 63.5155 63.7769 63.4501 63.6968 63.4058C63.6627 63.3847 63.6968 63.4671 63.6359 63.4247C63.575 63.3823 63.653 63.4082 63.536 63.3069C63.4189 63.2057 63.0484 62.9796 62.8924 62.8571C62.8582 62.8312 62.8144 62.8995 62.7973 62.876C62.7498 62.8169 62.6892 62.7687 62.6201 62.7349C62.551 62.7011 62.475 62.6825 62.3975 62.6805C62.3756 62.6805 62.3975 62.6146 62.417 62.6122C62.4365 62.6099 62.5681 62.6428 62.595 62.6452C62.6218 62.6476 62.6364 62.6452 62.6462 62.6452C62.6559 62.6452 62.6218 62.5793 62.6291 62.5722C62.6352 62.5693 62.6418 62.5678 62.6486 62.5678C62.6554 62.5678 62.662 62.5693 62.6681 62.5722C62.8294 62.6508 62.9864 62.7372 63.1386 62.8312C63.1532 62.8053 63.1557 62.7983 63.1922 62.7959C63.2288 62.7936 63.1922 62.8265 63.2239 62.8383C63.3772 62.9193 63.5143 63.0262 63.6286 63.1539C63.7042 63.2481 63.67 63.1539 63.7285 63.1915C63.787 63.2292 63.8967 63.1562 63.926 63.1915C63.9553 63.2269 64.0357 63.3376 64.0966 63.3352C64.1576 63.3328 64.1235 63.3187 64.1625 63.3022C64.2015 63.2857 64.1625 63.2222 64.1771 63.1845C64.2136 63.1415 64.244 63.094 64.2673 63.0432C64.2673 62.9937 64.3063 62.9678 64.3039 62.9137C64.289 62.8573 64.2792 62.7998 64.2746 62.7418C63.787 62.5063 63.3556 62.2237 62.8607 61.9952C63.4774 62.0989 63.8358 62.0918 64.4331 62.438C65.0225 62.8186 65.557 63.2731 66.0225 63.7897C66.0159 63.8525 66.0229 63.9159 66.043 63.9759C66.0632 64.0359 66.096 64.0912 66.1395 64.1382C66.4564 64.5244 66.8099 64.8824 66.827 65.3863C66.8904 65.4311 66.9537 65.4805 67.0147 65.5324C67.1697 66.0093 67.3738 66.4701 67.6241 66.9076C67.6802 67.0277 67.6241 67.1431 67.7241 67.2632C67.6716 67.3619 67.6497 67.4731 67.6607 67.5835C67.6607 67.6636 67.5754 67.6071 67.5461 67.6542C67.5169 67.7012 67.5315 67.7483 67.5047 67.7954C67.4779 67.8425 67.4486 67.8473 67.3999 67.892C67.3511 67.9367 67.2024 68.0074 67.1561 68.0521C67.1098 68.0969 67.1561 68.1016 67.1561 68.1087C67.0146 68.2101 66.8446 68.2676 66.6685 68.2735C66.5491 68.2452 66.6003 68.1887 66.5125 68.1534C66.5734 68.1039 66.6222 68.0545 66.5881 67.9815C66.4942 68.0414 66.3873 68.0796 66.2757 68.093C66.1641 68.1065 66.0507 68.0949 65.9445 68.0592C65.8909 68.0404 65.8519 67.8237 65.8421 67.7907C65.8324 67.7578 65.8421 67.8331 65.808 67.7907C65.7781 67.7322 65.743 67.6762 65.7032 67.6235C65.6617 67.5788 65.5861 67.5435 65.5398 67.5011C65.4296 67.0698 65.1985 66.6763 64.8719 66.3636C64.828 66.3213 64.8719 66.4508 64.7817 66.3425C64.6833 66.2534 64.6009 66.1491 64.5379 66.034C64.2313 65.6458 63.893 65.282 63.5262 64.946ZM62.8558 61.9246C62.3049 61.7927 61.7661 61.6232 61.2274 61.4536C61.2274 61.4654 61.2274 61.4842 61.2274 61.496C61.2274 61.5078 61.1932 61.496 61.1859 61.496C60.9421 61.4654 60.7252 61.383 60.4838 61.3312C60.4838 61.31 60.4838 61.2558 60.4838 61.2417C60.4838 61.2275 60.5813 61.2417 60.6106 61.2417C60.6399 61.2417 60.6837 61.2841 60.6935 61.2746C60.7032 61.2652 60.6594 61.2063 60.6594 61.1875C60.83 61.2158 61.0689 61.2228 61.1762 61.3712C61.3541 61.3712 61.5955 61.3476 61.7247 61.4866C62.1212 61.5803 62.502 61.7278 62.8558 61.9246V61.9246ZM60.3108 61.9529C60.1401 61.9222 59.95 61.8681 59.8988 61.7174C59.8988 61.6938 59.9865 61.7174 60.0012 61.7174C60.0709 61.7283 60.1373 61.7538 60.1958 61.7921C60.2543 61.8303 60.3035 61.8803 60.34 61.9387C60.3668 62.0141 60.3181 61.9529 60.3108 61.9529V61.9529ZM61.2712 62.1742C61.1908 62.1954 61.1932 62.1365 61.1396 62.1248C60.8641 62.0635 60.5058 62.1036 60.3181 61.8587C60.5838 61.9128 60.8471 61.974 61.1103 62.0471C61.1225 62.0141 61.1298 61.9458 61.1542 61.9246C61.1786 61.9034 61.2591 61.8822 61.2712 61.9081C61.3127 62.0141 61.3834 62.04 61.515 62.0235C61.4785 62.1177 61.3493 62.1507 61.2712 62.1742V62.1742Z" fill="#FFA100"/>
<defs>
<radialGradient id="paint0_radial_5617_100382" cx="0" cy="0" r="1" gradientUnits="userSpaceOnUse" gradientTransform="translate(27.3007 15.8427) rotate(110.823) scale(7.15733 8.62068)">
<stop offset="0.526744" stop-color="#E72E2E"/>
<stop offset="0.796875" stop-color="#FFA100" stop-opacity="0"/>
</radialGradient>
<radialGradient id="paint1_radial_5617_100382" cx="0" cy="0" r="1" gradientUnits="userSpaceOnUse" gradientTransform="translate(42.5009 15.8427) rotate(69.1768) scale(7.15733 8.62068)">
<stop offset="0.526744" stop-color="#E72E2E"/>
<stop offset="0.796875" stop-color="#FFA100" stop-opacity="0"/>
</radialGradient>
</defs>
</svg>
