<svg width="25" height="24" viewBox="0 0 25 24" fill="none" xmlns="http://www.w3.org/2000/svg">
<path fill-rule="evenodd" clip-rule="evenodd" d="M5.21447 15.4645C6.15215 14.5268 7.42392 14 8.75 14H16.75C18.0761 14 19.3478 14.5268 20.2855 15.4645C21.2232 16.4021 21.75 17.6739 21.75 19V21C21.75 21.5523 21.3023 22 20.75 22C20.1977 22 19.75 21.5523 19.75 21V19C19.75 18.2044 19.4339 17.4413 18.8713 16.8787C18.3087 16.3161 17.5456 16 16.75 16H8.75C7.95435 16 7.19129 16.3161 6.62868 16.8787C6.06607 17.4413 5.75 18.2044 5.75 19V21C5.75 21.5523 5.30228 22 4.75 22C4.19772 22 3.75 21.5523 3.75 21V19C3.75 17.6739 4.27678 16.4021 5.21447 15.4645Z" fill="#686870"/>
<path fill-rule="evenodd" clip-rule="evenodd" d="M12.75 4C11.0931 4 9.75 5.34315 9.75 7C9.75 8.65686 11.0931 10 12.75 10C14.4069 10 15.75 8.65686 15.75 7C15.75 5.34315 14.4069 4 12.75 4ZM7.75 7C7.75 4.23858 9.98858 2 12.75 2C15.5114 2 17.75 4.23858 17.75 7C17.75 9.76142 15.5114 12 12.75 12C9.98858 12 7.75 9.76142 7.75 7Z" fill="#686870"/>
</svg>
