<svg width="400" height="201" viewBox="0 0 400 201" fill="none" xmlns="http://www.w3.org/2000/svg">
<g clip-path="url(#clip0_5668_106654)">
<g clip-path="url(#clip1_5668_106654)">
<path d="M255.832 46.1544C263.738 63.1676 260.833 82.2871 269.708 110.318C278.582 138.349 299.235 175.13 291.167 183.232C283.1 191.171 246.473 170.431 220.496 159.575C194.519 148.719 179.352 147.909 156.763 139.808C134.174 131.868 104.163 116.637 103.033 100.272C101.904 83.9074 129.817 66.5702 152.406 49.395C174.995 32.3819 192.26 15.8549 210.492 15.0447C228.725 14.0725 247.764 29.1413 255.832 46.1544Z" fill="#EDEDED"/>
</g>
</g>
<path d="M191.569 43.4463C194.719 38.5551 201.87 38.5551 205.02 43.4463L271.413 146.535C274.842 151.859 271.019 158.867 264.687 158.867H131.902C125.57 158.867 121.748 151.859 125.176 146.535L191.569 43.4463Z" fill="#F44837"/>
<path d="M232 126L246.339 140.339" stroke="white" stroke-width="4" stroke-linecap="round" stroke-linejoin="round"/>
<path d="M246.34 126L232.001 140.339" stroke="white" stroke-width="4" stroke-linecap="round" stroke-linejoin="round"/>
<path d="M188.236 45.5862C190.03 42.0116 194.919 41.4863 197.431 44.5983L274.457 140.005C277.191 143.392 275.093 148.463 270.765 148.929L138.739 163.114C134.411 163.579 131.283 159.069 133.236 155.178L188.236 45.5862Z" stroke="black" stroke-width="5"/>
<path fill-rule="evenodd" clip-rule="evenodd" d="M183.135 85.2667C183.575 84.6792 184.267 84.3334 185.001 84.3334H213.001C213.736 84.3334 214.427 84.6792 214.868 85.2667L221.868 94.6C222.171 95.0039 222.335 95.4952 222.335 96V128.667C222.335 130.523 221.597 132.304 220.284 133.616C218.972 134.929 217.191 135.667 215.335 135.667H182.668C180.811 135.667 179.031 134.929 177.718 133.616C176.405 132.304 175.668 130.523 175.668 128.667V96C175.668 95.4952 175.832 95.0039 176.135 94.6L183.135 85.2667ZM186.168 89L180.335 96.7778V128.667C180.335 129.286 180.58 129.879 181.018 130.317C181.456 130.754 182.049 131 182.668 131H215.335C215.953 131 216.547 130.754 216.985 130.317C217.422 129.879 217.668 129.286 217.668 128.667V96.7778L211.835 89H186.168Z" fill="white"/>
<path fill-rule="evenodd" clip-rule="evenodd" d="M175.668 96C175.668 94.7113 176.713 93.6666 178.001 93.6666H220.001C221.29 93.6666 222.335 94.7113 222.335 96C222.335 97.2886 221.29 98.3333 220.001 98.3333H178.001C176.713 98.3333 175.668 97.2886 175.668 96Z" fill="white"/>
<path fill-rule="evenodd" clip-rule="evenodd" d="M189.665 103C190.954 103 191.999 104.045 191.999 105.333C191.999 107.19 192.736 108.97 194.049 110.283C195.362 111.596 197.142 112.333 198.999 112.333C200.855 112.333 202.636 111.596 203.948 110.283C205.261 108.97 205.999 107.19 205.999 105.333C205.999 104.045 207.043 103 208.332 103C209.621 103 210.665 104.045 210.665 105.333C210.665 108.428 209.436 111.395 207.248 113.583C205.06 115.771 202.093 117 198.999 117C195.905 117 192.937 115.771 190.749 113.583C188.561 111.395 187.332 108.428 187.332 105.333C187.332 104.045 188.377 103 189.665 103Z" fill="white"/>
<path d="M85.026 110.116L89.3854 128.473L103.437 114.241L85.026 110.116Z" stroke="#1D1D1F" stroke-width="3" stroke-linecap="round" stroke-linejoin="round"/>
<path d="M285.668 154.629L285.063 156.535" stroke="#1D1D1F" stroke-width="3" stroke-linecap="round" stroke-linejoin="round"/>
<path d="M293.477 169.696L291.57 169.091" stroke="#1D1D1F" stroke-width="3" stroke-linecap="round" stroke-linejoin="round"/>
<path d="M272.508 163.043L270.601 162.438" stroke="#1D1D1F" stroke-width="3" stroke-linecap="round" stroke-linejoin="round"/>
<path d="M279.016 175.599L278.411 177.505" stroke="#1D1D1F" stroke-width="3" stroke-linecap="round" stroke-linejoin="round"/>
<circle cx="291" cy="50" r="12" stroke="#1D1D1F" stroke-width="3.67962" stroke-linecap="round" stroke-linejoin="round"/>
<path d="M291 44V50.75L294 53" stroke="#1D1D1F" stroke-width="3.67962" stroke-linecap="round" stroke-linejoin="round"/>
<defs>
<clipPath id="clip0_5668_106654">
<rect width="200" height="200" fill="white" transform="translate(105 1.00012)"/>
</clipPath>
<clipPath id="clip1_5668_106654">
<rect width="200" height="200" fill="white" transform="translate(105 1.00012)"/>
</clipPath>
</defs>
</svg>
