<svg width="26" height="31" viewBox="0 0 26 31" fill="none" xmlns="http://www.w3.org/2000/svg">
<path fill-rule="evenodd" clip-rule="evenodd" d="M5.30121 4.07296C3.29111 5.2801 2.2435 6.82677 2.24411 8.37174C2.24472 9.91671 3.29356 11.4626 5.30462 12.6681C7.29848 13.8633 10.1084 14.63 13.2579 14.6287C16.4075 14.6275 19.2168 13.8586 21.2097 12.6618C23.2198 11.4547 24.2674 9.90799 24.2668 8.36302C24.2662 6.81805 23.2174 5.27221 21.2063 4.06666C19.2125 2.87141 16.4026 2.10477 13.253 2.10602C10.1034 2.10726 7.29413 2.87613 5.30121 4.07296ZM4.41195 2.59218C6.71592 1.20856 9.8435 0.380095 13.2523 0.378745C16.6611 0.377395 19.7893 1.20339 22.0944 2.58518C24.3823 3.95667 25.9932 5.97228 25.9941 8.36234C25.9951 10.7524 24.3858 12.7693 22.099 14.1426C19.795 15.5262 16.6674 16.3547 13.2586 16.356C9.84983 16.3574 6.72159 15.5314 4.41653 14.1496C2.12866 12.7781 0.517781 10.7625 0.516835 8.37242C0.515889 5.98237 2.12517 3.96548 4.41195 2.59218Z" fill="#86868B"/>
<path d="M20.3813 8.36447C20.3821 10.332 17.1927 11.9282 13.2577 11.9298C9.32267 11.9314 6.13207 10.3376 6.13129 8.37012C6.13051 6.4026 9.31985 4.80635 13.2549 4.8048C17.1899 4.80324 20.3805 6.39696 20.3813 8.36447Z" fill="#FF6633"/>
<path fill-rule="evenodd" clip-rule="evenodd" d="M0.517578 8.37219C0.517578 8.37211 0.517578 8.37207 1.38121 8.37173C2.24485 8.37139 2.24485 8.37143 2.24485 8.3715L2.25049 22.6214C2.2511 24.1664 3.29994 25.7122 5.311 26.9177C7.30487 28.113 10.1148 28.8796 13.2643 28.8784C16.4139 28.8771 19.2232 28.1083 21.2161 26.9114C23.2262 25.7043 24.2738 24.1576 24.2732 22.6127L24.2676 8.36267L25.9948 8.36198L26.0005 22.612C26.0014 25.002 24.3922 27.0189 22.1054 28.3922C19.8014 29.7758 16.6738 30.6043 13.265 30.6057C9.85621 30.607 6.72798 29.781 4.42291 28.3992C2.13505 27.0277 0.524167 25.0121 0.52322 22.6221L0.517578 8.37219Z" fill="#86868B"/>
</svg>
