<svg width="39" height="39" viewBox="0 0 39 39" fill="none" xmlns="http://www.w3.org/2000/svg">
<path fill-rule="evenodd" clip-rule="evenodd" d="M20.7719 5.35126C19.0802 6.3473 18.2422 7.59778 18.2427 8.80631C18.2431 10.0148 19.0821 11.2647 20.7747 12.2594C22.4472 13.2423 24.8141 13.8776 27.4748 13.8765C30.1354 13.8755 32.5018 13.2383 34.1736 12.2541C35.8654 11.258 36.7034 10.0075 36.7029 8.799C36.7024 7.59047 35.8634 6.34065 34.1709 5.34596C32.4983 4.36299 30.1314 3.72774 27.4708 3.72879C24.8101 3.72985 22.4437 4.36697 20.7719 5.35126ZM19.8956 3.86281C21.8762 2.6967 24.5561 2.00267 27.4701 2.00152C30.384 2.00037 33.0645 2.69227 35.0461 3.85681C37.0076 5.00962 38.4293 6.72766 38.4302 8.79832C38.431 10.869 37.0106 12.5881 35.05 13.7425C33.0694 14.9086 30.3894 15.6026 27.4755 15.6038C24.5615 15.6049 21.881 14.913 19.8995 13.7485C17.9379 12.5957 16.5162 10.8777 16.5154 8.80699C16.5146 6.73633 17.9349 5.01717 19.8956 3.86281Z" fill="#86868B"/>
<path d="M32.8164 8.80046C32.8169 10.1121 30.4248 11.1764 27.4736 11.1776C24.5223 11.1787 22.1294 10.1164 22.1289 8.80469C22.1284 7.49301 24.5204 6.42874 27.4717 6.42757C30.423 6.4264 32.8159 7.48878 32.8164 8.80046Z" fill="#FF6633"/>
<path fill-rule="evenodd" clip-rule="evenodd" d="M16.5156 8.80674C16.5156 8.80667 16.5156 8.80664 17.3793 8.8063C18.2429 8.80596 18.2429 8.80599 18.2429 8.80605L18.2476 20.681C18.2481 21.8895 19.0871 23.1393 20.7796 24.134C22.4522 25.117 24.8191 25.7522 27.4797 25.7512C30.1404 25.7501 32.5068 25.113 34.1786 24.1287C35.8703 23.1327 36.7083 21.8822 36.7078 20.6736L36.7031 8.79865L38.4304 8.79796L38.4351 20.673C38.4359 22.7436 37.0155 24.4628 35.0549 25.6171C33.0743 26.7833 30.3944 27.4773 27.4804 27.4784C24.5664 27.4796 21.8859 26.7877 19.9044 25.6231C17.9429 24.4703 16.5211 22.7523 16.5203 20.6816L16.5156 8.80674Z" fill="#86868B"/>
<path fill-rule="evenodd" clip-rule="evenodd" d="M4.06791 23.4239C4.52373 23.2835 5.00711 23.5391 5.14756 23.995L6.85244 29.528C7.18932 30.6213 8.04562 31.477 9.1392 31.813L20.6216 35.341C21.5266 35.6191 22.506 35.5136 23.331 35.0491L31.2138 30.6109C31.6295 30.3769 32.1561 30.5241 32.3901 30.9397C32.6241 31.3554 32.4769 31.882 32.0612 32.116L24.1784 36.5542C22.941 37.2509 21.4718 37.4092 20.1143 36.9921L8.63188 33.4641C6.99152 32.96 5.70707 31.6766 5.20175 30.0366L3.49687 24.5036C3.35642 24.0478 3.61208 23.5644 4.06791 23.4239Z" fill="#86868B"/>
<path d="M33.3678 33.2359C31.2358 30.7969 22.5109 28.0845 15.4693 26.6791C6.56232 24.9014 -2.34322 26.6862 1.81044 20.1533C5.80302 13.8737 29.8779 12.3019 34.5708 31.9378C34.9532 33.5379 33.8296 33.7642 33.3678 33.2359Z" fill="#FF6633"/>
<path fill-rule="evenodd" clip-rule="evenodd" d="M17.6727 15.7219C17.7886 16.1846 17.5074 16.6536 17.0447 16.7695C15.7933 17.0829 14.5741 17.9965 13.4862 19.3502C12.4049 20.6957 11.5066 22.4117 10.8829 24.1976C10.2588 25.985 9.92532 27.7975 9.93833 29.3239C9.95165 30.8871 10.3238 31.9737 10.9057 32.5273C11.2513 32.856 11.265 33.4027 10.9362 33.7483C10.6075 34.0939 10.0609 34.1075 9.71526 33.7788C8.62468 32.7414 8.22586 31.0679 8.21112 29.3386C8.19607 27.5726 8.57745 25.5605 9.25225 23.6281C9.92758 21.6943 10.9124 19.7955 12.1398 18.2682C13.3606 16.7492 14.8756 15.5321 16.6251 15.0939C17.0878 14.9781 17.5568 15.2592 17.6727 15.7219ZM24.8122 18.1497C24.8972 18.6191 24.5857 19.0685 24.1164 19.1535C23.1612 19.3265 22.0589 19.958 20.961 20.9991C19.8741 22.0297 18.8501 23.4074 18.0451 24.9608C16.4175 28.1017 15.7836 31.7517 17.0396 34.5814C17.2331 35.0173 17.0366 35.5276 16.6006 35.7211C16.1647 35.9146 15.6544 35.7181 15.4609 35.2821C13.905 31.7769 14.7625 27.5413 16.5115 24.1661C17.3949 22.4615 18.5305 20.9235 19.7724 19.7458C21.0033 18.5786 22.3989 17.7092 23.8085 17.4539C24.2778 17.3689 24.7272 17.6804 24.8122 18.1497Z" fill="#86868B"/>
</svg>
