<svg width="41" height="42" viewBox="0 0 41 42" fill="none" xmlns="http://www.w3.org/2000/svg">
<path d="M17.4346 8.40836L17.4353 10.0245C17.4355 10.5218 16.1219 11.434 13.9387 11.4348C11.7556 11.4357 10.4413 10.5246 10.4411 10.0273L10.4404 8.41113C11.3705 8.88732 12.5633 9.17693 13.9378 9.17638C15.3124 9.19656 16.5252 8.906 17.4346 8.40836Z" fill="#FF6633"/>
<path d="M21.7373 12.3421L19.918 12.3428L19.9207 19.2425L21.74 19.2418L21.7373 12.3421Z" fill="#86868B"/>
<path d="M13.9653 35.5083C9.59895 35.5101 6.16169 33.4809 6.16067 30.9116L6.15332 12.3467L7.97262 12.346L7.97997 30.9109C7.98048 32.1955 10.5281 33.6449 13.9645 33.6436L13.9653 35.5083Z" fill="#86868B"/>
<path d="M13.9584 16.9448C9.57186 16.9465 6.15482 14.9381 6.1538 12.3481C6.15321 10.877 7.26448 9.52974 9.18451 8.67946L9.91291 10.3989C8.70026 10.9381 7.97283 11.6636 7.97311 12.3681C7.97361 13.6527 10.5212 15.1021 13.9577 15.1007C17.3941 15.0994 19.9406 13.648 19.9401 12.3633C19.9398 11.6796 19.2118 10.934 17.9987 10.3957L18.7257 8.67569C20.6464 9.52444 21.7588 10.8708 21.7594 12.3419C21.7402 14.9319 18.3247 16.9431 13.9584 16.9448Z" fill="#86868B"/>
<path d="M19.2522 5.91865L19.2539 10.0419C19.2539 10.2077 19.2338 10.3734 19.1934 10.5392C18.8302 12.1555 16.6879 13.2959 13.959 13.297C11.4322 13.298 9.43055 12.325 8.82356 10.9163C8.70215 10.6262 8.6414 10.3362 8.64127 10.0254L8.63965 5.92285L10.4589 5.92213L10.4606 10.0454C10.4608 10.5427 11.7953 11.4538 13.9582 11.4529C16.1212 11.4521 17.455 10.5399 17.4548 10.0426L17.4532 5.91936L19.2522 5.91865Z" fill="#86868B"/>
<path d="M18.7839 4.53187C17.9748 3.3926 16.1552 2.64741 13.9316 2.64829C12.0113 2.64905 10.3943 3.20912 9.46482 4.10044C8.91923 4.61865 8.61626 5.24037 8.61653 5.92412C8.61694 6.96011 9.30458 7.83007 10.4368 8.4305C11.3669 8.90669 12.5596 9.19629 13.9342 9.19575C15.2886 9.19521 16.5014 8.90465 17.431 8.42773C18.5628 7.84713 19.2497 6.9559 19.2493 5.91991C19.2491 5.40192 19.0872 4.94614 18.7839 4.53187ZM13.9537 7.33096C11.7908 7.33181 10.4562 6.42067 10.456 5.92339C10.4558 5.42612 11.7896 4.51392 13.9526 4.51306C16.1155 4.51221 17.4501 5.42335 17.4503 5.92062C17.4302 6.41791 16.1167 7.3301 13.9537 7.33096Z" fill="#86868B"/>
<path d="M17.4332 5.9218C17.4334 6.41908 16.1199 7.33127 13.9367 7.33214C11.7535 7.333 10.4392 6.42185 10.439 5.92457C10.4388 5.4273 11.7726 4.5151 13.9356 4.51424C16.0985 4.51338 17.433 5.42453 17.4332 5.9218Z" fill="#FF6633"/>
<path d="M22.7133 18.3105C15.6787 18.3132 10.1614 21.4441 10.163 25.443C10.1646 29.442 15.6843 32.5685 22.719 32.5657C29.7536 32.5629 35.2709 29.432 35.2693 25.4331C35.2678 21.4342 29.7682 18.3077 22.7133 18.3105ZM32.3392 27.7342C30.561 29.4753 26.8824 30.6993 22.7182 30.7009C18.5541 30.7026 14.8745 29.4815 13.095 27.7211C12.3872 27.0376 11.9826 26.2504 11.9823 25.4423C11.9812 22.6037 16.8923 20.1775 22.7141 20.1752C28.5156 20.1729 33.4489 22.5745 33.45 25.4338C33.4504 26.2419 33.0464 27.0294 32.3392 27.7342Z" fill="#86868B"/>
<path d="M22.7172 40.1281C17.6434 40.1301 14.1859 38.2045 13.1941 34.869L11.2307 28.2809L12.9689 27.7415L14.9323 34.3296C15.661 36.8364 18.4916 38.265 22.6962 38.2633L22.697 40.1281L22.7172 40.1281Z" fill="#86868B"/>
<path d="M22.7237 40.128L22.7229 38.2632C26.9275 38.2615 29.757 36.8307 30.4837 34.3233L32.4419 27.7129L34.1806 28.251L32.2224 34.8407C31.2534 38.1976 27.7975 40.126 22.7237 40.128Z" fill="#86868B"/>
<path d="M32.3392 27.7338C30.5611 29.4749 26.8825 30.6989 22.7183 30.7005C18.5542 30.7021 14.8746 29.4811 13.0951 27.7207C14.3881 25.959 17.9856 24.3828 22.7158 24.381C27.4662 24.3998 31.065 25.9524 32.3392 27.7338Z" fill="#FF6633"/>
</svg>
