<?xml version="1.0" encoding="UTF-8"?>
<svg xmlns="http://www.w3.org/2000/svg" xmlns:xlink="http://www.w3.org/1999/xlink" style="display: none;">
    <symbol id="icon-spicy" viewBox="0 0 26 26">
        <title>Spicy Icon</title>
        <path
            d="M16.079 6.261c-.025-.242.014-.494.126-.727.312-.652 1.071-.916 1.695-.59l1.53.798 1.909-2.988c.387-.606 1.172-.77 1.753-.366.58.404.737 1.223.35 1.829l-1.734 2.713 1.247.651c.625.326.878 1.118.566 1.77-.087.181-.209.333-.353.45.303 1.397.231 3.053-.222 4.756-1.046 3.934-3.848 7.29-7.74 8.643-4.253 1.48-7.84.856-10.656-1.103-1.04-.724-1.746-1.46-2.13-1.994-.66-.918.042-2.218 1.137-2.103 4.553.475 6.58-1.131 8.434-5.288.123-.275.245-.558.406-.94.047-.11.1-.237.2-.474.081-.192.141-.335.201-.474 1-2.321 1.982-3.845 3.28-4.562Z" />
    </symbol>
    <symbol id="icon-veg" viewBox="0 0 26 26">
        <path
            d="M13.284 21.4106C13.2867 21.7628 13.159 22.0874 12.9468 22.3287C12.7237 22.5803 12.4158 22.7381 12.0732 22.7494C11.7303 22.7609 11.4137 22.6238 11.18 22.3914C10.9503 22.1608 10.8038 21.8454 10.7858 21.4936C10.7368 20.6578 10.7114 19.8495 10.7093 19.0689C10.69 18.7832 10.6668 18.5049 10.6399 18.2339C6.37093 17.7001 3.59563 14.6376 2.48042 9.29978L2.16602 7.79495L3.61165 7.68519C7.30058 7.40513 9.94489 8.88872 11.5264 11.982C13.0886 6.24269 16.885 3.25 22.8673 3.25H23.9514L24.1048 4.39152C24.1667 4.85249 24.2138 5.60811 24.1816 6.56592C24.1281 8.16025 23.8596 9.75945 23.3016 11.2702C21.7905 15.3615 18.5007 17.9524 13.2096 18.2824C13.2058 18.5202 13.2044 18.7616 13.2054 19.0066C13.2576 19.7714 13.2838 20.5729 13.284 21.4106Z">
        </path>
    </symbol>
    <symbol id="icon-packet" viewBox="0 0 24 24">
        <path
            d="M5.2 1.4C5.38885 1.14819 5.68524 1 6 1H18C18.3148 1 18.6111 1.14819 18.8 1.4L21.8 5.4C21.9298 5.5731 22 5.78363 22 6V20C22 20.7957 21.6839 21.5587 21.1213 22.1213C20.5587 22.6839 19.7957 23 19 23H5C4.20435 23 3.44129 22.6839 2.87868 22.1213C2.31607 21.5587 2 20.7957 2 20V6C2 5.78363 2.07018 5.5731 2.2 5.4L5.2 1.4ZM6.5 3L4 6.33333V20C4 20.2652 4.10536 20.5196 4.29289 20.7071C4.48043 20.8946 4.73478 21 5 21H19C19.2652 21 19.5196 20.8946 19.7071 20.7071C19.8946 20.5196 20 20.2652 20 20V6.33333L17.5 3H6.5Z" />
        <path
            d="M2 6C2 5.44772 2.44772 5 3 5H21C21.5523 5 22 5.44772 22 6C22 6.55228 21.5523 7 21 7H3C2.44772 7 2 6.55228 2 6Z" />
        <path
            d="M8 9C8.55228 9 9 9.44772 9 10C9 10.7956 9.31607 11.5587 9.87868 12.1213C10.4413 12.6839 11.2044 13 12 13C12.7956 13 13.5587 12.6839 14.1213 12.1213C14.6839 11.5587 15 10.7956 15 10C15 9.44772 15.4477 9 16 9C16.5523 9 17 9.44772 17 10C17 11.3261 16.4732 12.5979 15.5355 13.5355C14.5979 14.4732 13.3261 15 12 15C10.6739 15 9.40215 14.4732 8.46447 13.5355C7.52678 12.5979 7 11.3261 7 10C7 9.44772 7.44772 9 8 9Z" />
    </symbol>
    <symbol id="icon-close" viewBox="0 0 21 21">
        <path fill-rule="evenodd" clip-rule="evenodd"
            d="M16.0918 4.55298C16.4278 4.88891 16.4278 5.43357 16.0918 5.7695L5.76926 16.0921C5.43333 16.428 4.88867 16.428 4.55273 16.0921C4.2168 15.7562 4.2168 15.2115 4.55273 14.8756L14.8753 4.55298C15.2112 4.21704 15.7559 4.21704 16.0918 4.55298Z" />
        <path fill-rule="evenodd" clip-rule="evenodd"
            d="M4.55273 4.55298C4.88867 4.21704 5.43333 4.21704 5.76926 4.55298L16.0918 14.8756C16.4278 15.2115 16.4278 15.7562 16.0918 16.0921C15.7559 16.428 15.2112 16.428 14.8753 16.0921L4.55273 5.7695C4.2168 5.43357 4.2168 4.88891 4.55273 4.55298Z" />
    </symbol>


</svg>