<svg width="39" height="39" viewBox="0 0 39 39" fill="none" xmlns="http://www.w3.org/2000/svg">
<path fill-rule="evenodd" clip-rule="evenodd" d="M6.11673 16.2979C6.57256 16.1575 7.05594 16.4132 7.19639 16.869L8.90127 22.4021C9.23815 23.4954 10.0944 24.351 11.188 24.687L22.6704 28.2151C23.5754 28.4931 24.5549 28.3876 25.3799 27.9231L33.2627 23.4849C33.6783 23.2509 34.2049 23.3981 34.4389 23.8138C34.6729 24.2294 34.5257 24.756 34.1101 24.99L26.2273 29.4282C24.9898 30.1249 23.5206 30.2833 22.1631 29.8662L10.6807 26.3381C9.04035 25.8341 7.7559 24.5506 7.25058 22.9107L5.5457 17.3776C5.40525 16.9218 5.66091 16.4384 6.11673 16.2979Z" fill="#86868B"/>
<path d="M35.4167 26.11C33.2846 23.6709 24.5597 20.9586 17.5181 19.5531C8.61115 17.7754 -0.294392 19.5602 3.85927 13.0273C7.85185 6.74775 31.9267 5.17594 36.6196 24.8119C37.002 26.412 35.8785 26.6383 35.4167 26.11Z" fill="#FF6633"/>
<path fill-rule="evenodd" clip-rule="evenodd" d="M19.7215 8.59593C19.8374 9.05861 19.5562 9.52762 19.0936 9.6435C17.8421 9.95692 16.623 10.8705 15.535 12.2243C14.4538 13.5697 13.5554 15.2857 12.9318 17.0716C12.3076 18.859 11.9741 20.6715 11.9872 22.1979C12.0005 23.7611 12.3726 24.8478 12.9545 25.4013C13.3001 25.73 13.3138 26.2767 12.9851 26.6223C12.6563 26.9679 12.1097 26.9816 11.7641 26.6528C10.6735 25.6155 10.2747 23.9419 10.2599 22.2126C10.2449 20.4466 10.6263 18.4345 11.3011 16.5022C11.9764 14.5683 12.9613 12.6695 14.1887 11.1423C15.4094 9.62321 16.9245 8.40611 18.6739 7.96797C19.1366 7.8521 19.6056 8.13324 19.7215 8.59593ZM26.8611 11.0238C26.9461 11.4931 26.6345 11.9425 26.1652 12.0275C25.21 12.2006 24.1077 12.8321 23.0098 13.8731C21.923 14.9037 20.8989 16.2814 20.0939 17.8348C18.4663 20.9757 17.8325 24.6257 19.0885 27.4554C19.282 27.8913 19.0854 28.4016 18.6495 28.5951C18.2135 28.7886 17.7032 28.5921 17.5097 28.1561C15.9538 24.6509 16.8113 20.4153 18.5603 17.0401C19.4437 15.3355 20.5793 13.7975 21.8213 12.6198C23.0522 11.4526 24.4477 10.5833 25.8573 10.3279C26.3266 10.2429 26.776 10.5544 26.8611 11.0238Z" fill="#86868B"/>
</svg>
