<svg width="24" height="24" viewBox="0 0 24 24" fill="none" xmlns="http://www.w3.org/2000/svg">
<path fill-rule="evenodd" clip-rule="evenodd" d="M3.8451 9.78999L18.5782 4.21101C19.3794 3.87606 20.4533 3.88497 21.2516 4.6426C22.0354 5.38656 22.1062 6.42685 21.9028 7.2608L19.3949 18.8675L19.3942 18.8704C19.2595 19.5023 18.8982 20.3816 17.9523 20.7997C17.0149 21.2141 16.1159 20.9028 15.5715 20.6084L15.4745 20.5559L12.6923 18.538L11.86 19.3327C11.8548 19.3377 11.8481 19.3442 11.8401 19.3519C11.7562 19.4329 11.5265 19.6548 11.2367 19.8247C10.8505 20.0511 10.4154 20.1677 9.93623 20.1677H9.2258C8.64675 20.1677 8.18874 19.6774 8.22812 19.0997L8.48444 15.3385L8.28893 15.4596L3.76665 14.0743C3.42202 13.97 3.00757 13.7906 2.65749 13.4655C2.2774 13.1125 1.93568 12.5356 2.01033 11.807C2.0787 11.1397 2.46558 10.6768 2.77207 10.4107C3.0893 10.1352 3.46299 9.94053 3.82358 9.79831L3.8451 9.78999ZM4.25951 12.5118L8.05066 13.6732L16.8223 8.2386C16.9059 8.18865 16.988 8.15419 17.0633 8.13322L17.0665 8.13234C17.2252 8.08883 17.3532 8.10543 17.3999 8.16339C17.4404 8.21372 17.4197 8.29522 17.3045 8.39562L10.1985 14.6932L10.1961 14.6938L10.1978 14.6947L9.93623 18.532C10.3071 18.532 10.4774 18.3703 10.6828 18.1752C10.6896 18.1688 10.6964 18.1623 10.7033 18.1558L12.5447 16.3974L16.375 19.1756C17.0813 19.5576 17.5885 19.3613 17.7642 18.5336L20.2786 6.89733C20.5359 5.88402 19.8847 5.42521 19.2109 5.72454L4.44441 11.3161C3.43665 11.7136 3.44248 12.2657 4.25951 12.5118Z" fill="#039BE5"/>
</svg>
