<svg width="288" height="382" viewBox="0 0 288 382" fill="none" xmlns="http://www.w3.org/2000/svg">
<path d="M195.365 365.046C195.365 365.047 195.365 365.046 195.365 365.046ZM195.365 365.046C195.691 364.619 195.928 364.309 196.546 364C197.546 363.5 198.046 363 199.046 362C199.632 361.414 200.046 359.284 200.389 357.52C200.632 356.272 200.839 355.207 201.046 355C201.446 354.6 202.546 350.833 203.046 349L204.046 342L202.546 338L199.046 335.5L194.546 331V327.5L196.546 319.5C196.546 317 196.746 312 197.546 312C198.346 312 198.546 308.667 198.546 307L200.546 302L201.546 299.5H207.046V297L206.046 283.5L204.546 279L204.046 273.5C204.546 273.5 204.746 273.1 201.546 271.5C198.346 269.9 194.546 268.167 193.046 267.5L182.546 265.5L183.046 261.5L175.046 258C175.879 257.167 177.746 255.5 178.546 255.5C179.132 255.5 182.12 255.157 184.595 254.873C186.345 254.672 187.839 254.5 188.046 254.5C188.446 254.5 192.213 254.167 194.046 254C195.046 253.833 197.146 253.5 197.546 253.5C197.946 253.5 197.379 244.833 197.046 240.5L195.546 234.5L194.046 228.5L199.546 225C201.379 223.333 205.146 219.9 205.546 219.5M195.365 365.046C195.164 365.31 194.928 365.618 194.546 366C194.192 366.354 193.9 366.771 193.627 367.162C193.129 367.875 192.692 368.5 192.046 368.5M175.487 51.156C175.487 51.1562 175.486 51.1559 175.487 51.156ZM175.487 51.156C174.042 50.8188 173.188 50.6194 172.046 51.0001C171.392 51.2181 171.023 51.0558 170.732 50.9278C170.356 50.7623 170.11 50.6541 169.546 51.5001C169.075 52.2071 168.603 52.1365 168.184 52.0737C167.714 52.0033 167.31 51.9428 167.046 53.0001C166.046 55.3334 165.491 55.8889 164.935 56.4445C164.657 56.7222 164.379 57.0001 164.046 57.5001C163.223 58.7344 162.739 58.953 162.036 59.2703C161.885 59.3386 161.723 59.4115 161.546 59.5001C160.614 59.8727 160.169 60.2454 159.847 60.5146C159.305 60.9676 159.114 61.1274 157.546 60.5001C156.936 60.256 156.445 60.0417 156.022 59.8572C154.713 59.2858 154.058 59.0001 152.546 59.0001C151.812 59.0001 151.213 59.0674 150.674 59.1279C149.745 59.2324 148.996 59.3166 148.046 59.0001C146.846 58.6001 145.879 57.8334 145.546 57.5001C144.713 57.1667 142.946 56.5001 142.546 56.5001C142.395 56.5001 142.198 56.6376 141.982 56.7877C141.486 57.1334 140.895 57.5459 140.546 56.5001C140.213 55.5001 139.879 54.9445 139.546 54.3889C139.379 54.1112 139.213 53.8334 139.046 53.5001C138.937 53.2811 138.827 53.11 138.728 52.9554C138.375 52.4044 138.156 52.0616 138.546 50.5001C138.863 49.2341 138.778 48.5691 138.674 47.7443C138.613 47.266 138.546 46.7341 138.546 46.0001C138.546 44.0001 138.546 43.5001 137.546 42.0001C137.278 41.5981 137.046 41.2321 136.831 40.8924C136.242 39.9642 135.778 39.2321 135.046 38.5001C134.696 38.1502 134.469 37.9227 134.214 37.732C133.74 37.3776 133.171 37.1502 131.546 36.5001C130.591 36.1181 130.001 35.955 129.497 35.8156C128.681 35.5902 128.091 35.4271 126.546 34.5001C125.466 33.8517 124.852 33.577 124.261 33.3126C123.486 32.9652 122.749 32.6356 121.046 31.5001C119.198 30.2676 117.349 29.6048 116.436 29.2775C115.868 29.0737 115.662 29.0001 116.046 29.0001C116.531 29.0001 115.957 28.647 115.18 28.1692C114.356 27.6622 113.304 27.0149 113.046 26.5001C112.857 26.1226 112.882 25.8163 112.906 25.5275C112.945 25.0513 112.98 24.6226 112.046 24.0001C111.473 23.6181 111.192 23.455 110.952 23.3156C110.563 23.0902 110.282 22.9271 109.046 22.0001C108.223 21.3824 107.569 21.1886 107.049 21.0348C106.307 20.8149 105.84 20.6765 105.546 19.5001C105.337 18.6623 105.215 17.9123 105.108 17.2501C104.958 16.3312 104.837 15.5812 104.546 15.0001M175.487 51.156C175.94 51.2617 176.45 51.3809 177.046 51.5001C179.007 51.8922 179.122 51.9768 179.805 52.4776C179.992 52.6153 180.223 52.7844 180.546 53.0001C181.461 53.6097 181.632 54.2193 181.739 54.6023C181.808 54.8476 181.851 55.0001 182.046 55.0001C182.446 55.0001 183.879 56.6667 184.546 57.5001M28.5461 3.5C26.5461 3.5 26.0461 5.1667 26.0461 6.00005L23.5461 7.00005L29.5461 18.0001L26.0461 24.0001L38.0461 27.0001L45.0461 40.5001L47.5461 50.0001L54.5461 52.5001L57.5461 55.5001V62.5001L52.0461 69.0001L53.5461 86.5001L47.5461 89.0001L39.5461 101.5L24.0461 117L15.0461 114.5C10.0461 117.5 0.246147 123.5 1.04615 123.5C1.84615 123.5 8.04614 124.833 11.0461 125.5L13.5461 141.5L21.5461 137.5L33.0461 155.5L15.0461 168L19.5461 182L23.0461 192.5C24.8795 194.5 28.7461 198.8 29.5461 200C30.3461 201.2 36.8795 209.167 40.0461 213L43.5461 236L24.5461 243C22.8795 247.5 19.5461 256.7 19.5461 257.5C19.5461 258.3 18.5461 262.833 18.0461 265L24.5461 273L34.0461 278.5L35.5461 280.5L26.0461 293.5L28.0461 319L31.0461 318L41.0461 312L45.5461 315L52.5461 320C54.7128 321.5 59.2461 324.6 60.0461 325M28.5461 3.5H31.5461M28.5461 3.5C31.0461 3.5 30.5461 3.5 31.5461 3.5M31.5461 3.5H34.5461M31.5461 3.5C32.5461 3.5 34.0461 3.5 34.5461 3.5M34.5461 3.5C34.8728 3.5 35.8395 4.56691 36.8888 5.72488C37.4458 6.33952 38.0261 6.97993 38.5461 7.5C39.592 8.5458 39.9086 8.13331 40.174 7.78765C40.2892 7.63755 40.3948 7.50005 40.5461 7.50005C40.8997 7.50005 41.2532 7.25008 41.9601 6.7502C42.2531 6.54306 42.6067 6.29301 43.0461 6.00005C44.0353 5.34066 44.1547 4.46378 44.2647 3.65623C44.3216 3.23915 44.3759 2.84057 44.5461 2.5C44.9461 1.7 46.7128 3.5 47.5461 4.5L51.0461 6.00005C52.5461 6.50005 55.9461 7.50005 57.5461 7.50005C58.8795 7.50005 59.5461 6.83339 59.9906 6.38894C60.2128 6.16672 60.3795 6.00005 60.5461 6.00005C60.7533 6.00005 61.7324 5.57111 62.8796 5.06858C64.502 4.35788 66.4604 3.5 67.0461 3.5C67.8461 3.5 70.3795 1.83333 71.5461 1C72.7128 1.5 75.2461 2.7 76.0461 3.5C76.6077 4.06153 76.8539 4.62313 77.1389 5.27319C77.3615 5.78075 77.6077 6.34236 78.0461 7M78.0461 7H87.0461M78.0461 7C78.7128 7 81.4461 7 87.0461 7M87.0461 7C91.2123 7 91.1278 6.82291 91.009 6.57411C90.9283 6.40488 90.8316 6.20247 92.0461 6.00005C94.0167 5.67163 94.9086 5.77466 95.8555 5.88404C96.3502 5.94118 96.8598 6.00005 97.5461 6.00005M97.5461 6.00005H100.046M97.5461 6.00005C99.5461 6.00005 99.0461 6.00005 100.046 6.00005M100.046 6.00005C101.046 6.00005 101.046 6.50005 101.046 7.50005C101.046 8.20716 101.296 8.66427 101.796 9.57848C102.003 9.95716 102.253 10.4143 102.546 11.0001M102.546 11.0001L104.546 15.0001M102.546 11.0001C103.546 13.0001 104.046 14.0001 104.546 15.0001M184.546 57.5001L186.046 59.0001M184.546 57.5001C184.879 57.8334 185.646 58.6001 186.046 59.0001M186.046 59.0001C186.346 59.3001 186.646 60.1401 186.946 60.9801C187.146 61.5401 187.346 62.1001 187.546 62.5001C187.713 62.8334 187.879 63.1112 188.046 63.3889C188.379 63.9445 188.713 64.5001 189.046 65.5001C189.446 66.7001 190.546 66.3334 191.046 66.0001M191.046 66.0001H193.046M191.046 66.0001C191.546 66.0001 192.646 66.0001 193.046 66.0001M193.046 66.0001C193.296 66.0001 193.921 65.8751 194.546 65.7501C195.171 65.6251 195.796 65.5001 196.046 65.5001C196.446 65.5001 196.879 63.5001 197.046 62.5001V53.0001L210.046 52.0001L214.046 55.0001L220.046 64.5001L224.046 62.5001C226.713 61.3334 232.146 59.0001 232.546 59.0001C232.946 59.0001 237.713 61.3334 240.046 62.5001L243.546 64.0001L244.046 61.0001C243.379 59.8334 241.946 57.2001 241.546 56.0001C241.146 54.8001 244.046 54.8334 245.546 55.0001H250.546C253.213 55.3334 258.646 56.0001 259.046 56.0001C259.324 56.0001 259.602 56.7717 259.879 57.5433C260.102 58.1605 260.324 58.7778 260.546 59.0001C260.946 59.4001 261.713 60.5001 262.046 61.0001L264.546 62.5001L271.046 63.5001L273.046 62.5001L280.546 59.5001L281.546 60.5001V65.5001L280.546 69.0001L279.546 74.5001V82.0001V87.0001L278.046 90.5001C277.046 91.5001 274.746 93.6001 273.546 94.0001C272.346 94.4001 272.713 95.8334 273.046 96.5001L279.546 100L278.046 101L276.546 103.5L275.546 107C274.379 108 271.846 110.1 271.046 110.5C270.246 110.9 272.046 111.667 273.046 112L276.546 115.5L280.546 118.5C280.546 119.833 280.746 122.5 281.546 122.5C282.153 122.5 282.023 123.42 281.828 124.813C281.701 125.716 281.546 126.82 281.546 128C281.546 130.4 280.879 134 280.546 135.5C280.046 136.833 278.946 139.4 278.546 139C278.146 138.6 276.046 142.167 275.046 144C274.213 145.167 272.446 147.5 272.046 147.5C271.747 147.5 272.878 150.003 273.836 152.123C274.48 153.548 275.046 154.799 275.046 155C275.046 155.4 276.046 158.167 276.546 159.5L278.046 164.5L280.546 171L285.546 176L286.546 179C285.546 180.167 283.346 182.6 282.546 183C281.746 183.4 280.879 185.5 280.546 186.5L273.546 190L269.546 194.5C267.879 195.833 264.346 198.5 263.546 198.5C263.046 198.5 262.421 198.75 261.796 199C261.171 199.25 260.546 199.5 260.046 199.5C259.246 199.5 256.046 198.167 254.546 197.5L252.546 198.5V205.5V210L250.546 210.5C249.546 211.333 247.446 213.1 247.046 213.5C246.646 213.9 245.213 215 244.546 215.5C243.379 216.5 240.946 218.5 240.546 218.5C240.275 218.5 240.151 218.06 240.015 217.578C239.9 217.169 239.775 216.729 239.546 216.5C239.146 216.1 236.713 215 235.546 214.5L230.046 210C228.879 210.167 226.346 210.5 225.546 210.5M225.546 210.5H219.046M225.546 210.5C224.746 210.5 220.879 210.5 219.046 210.5M219.046 210.5C217.713 210.667 214.846 211.1 214.046 211.5C213.664 211.691 213.355 211.809 213.091 211.91C212.664 212.073 212.355 212.191 212.046 212.5C211.646 212.9 210.213 214.667 209.546 215.5M209.546 215.5L205.546 219.5M209.546 215.5C208.379 216.667 205.946 219.1 205.546 219.5M192.046 368.5H186.546M192.046 368.5C191.046 368.5 188.046 368.5 186.546 368.5M186.546 368.5H183.546M186.546 368.5C185.346 368.5 184.046 368.5 183.546 368.5M183.546 368.5C182.379 368 179.546 366.8 177.546 366C176.296 365.5 175.546 365.5 174.984 365.5C174.421 365.5 174.046 365.5 173.546 365C172.868 364.322 171.5 364.564 170.222 364.789C169.615 364.896 169.029 365 168.546 365C167.046 365 165.546 365.5 164.546 366C163.746 366.4 161.879 366.833 161.046 367L158.046 369.5C158.379 370.833 158.846 373.8 158.046 375C157.246 376.2 154.713 375.5 153.546 375L148.546 373.5L141.046 372L136.046 370.5C135.046 370.667 132.746 370.9 131.546 370.5C130.346 370.1 130.046 367.667 130.046 366.5V363.5L127.546 361.5H121.046M121.046 361.5H115.546M121.046 361.5C119.379 361.5 115.946 361.5 115.546 361.5M115.546 361.5C115.146 361.5 113.046 362.833 112.046 363.5L109.046 368L107.046 373.5L103.546 377L99.0461 381L94.0461 377M94.0461 377L89.0461 372M94.0461 377C92.7128 375.667 89.8461 372.8 89.0461 372M89.0461 372C88.2461 371.2 86.7128 370 86.0461 369.5L81.5461 363.5L79.5461 357.5L78.5461 349.5C78.2128 348 77.5461 344.7 77.5461 343.5C77.5461 342.75 77.2961 341.375 77.0461 340C76.7961 338.625 76.5461 337.25 76.5461 336.5M76.5461 336.5V330M76.5461 336.5C76.5461 335 76.5461 331.5 76.5461 330M76.5461 330C76.5461 328.8 75.8795 328.167 75.5461 328L71.5461 330L66.0461 328M66.0461 328L60.0461 325M66.0461 328C64.3795 327.167 60.8461 325.4 60.0461 325" stroke="black"/>
</svg>
