<svg width="260" height="59" viewBox="0 0 260 59" fill="none" xmlns="http://www.w3.org/2000/svg">
<path fill-rule="evenodd" clip-rule="evenodd" d="M55.6091 20.5267C54.8694 18.7616 54.0478 16.801 50.6201 18.0015V8.47701C50.6201 3.55871 42.4834 0 32.5703 0C22.6573 0 14.5205 3.55871 14.5205 8.47701V50.523C14.5205 55.4413 22.6573 59 32.5703 59C42.4834 59 50.6201 55.4413 50.6201 50.523V25.1486C53.6778 25.5587 54.3375 28.0082 53.7664 30.5416L56.9127 31.0503C57.6186 26.4045 56.0679 23.3147 50.6201 23.0728V21.1353C52.7133 20.1078 53.9932 21.7873 55.3054 23.5093C56.3815 24.9213 57.4794 26.362 59.0655 26.362C61.3838 26.362 63.2053 25.1753 64.5301 22.8017L61.715 18.9023C61.163 21.5019 59.8382 22.8017 57.7407 22.8017C56.5625 22.8017 56.1041 21.708 55.6091 20.5267ZM37.3822 31.635C35.7775 31.2369 34.1277 30.8276 32.5039 30.8276C30.8539 30.8276 29.187 31.2454 27.5715 31.6503L27.5715 31.6503C23.3535 32.7074 19.4861 33.6767 17.1877 26.8929C14.3841 18.6176 20.7842 20.4413 26.6196 22.104L26.6196 22.104C28.8839 22.7492 31.0631 23.3702 32.5867 23.3675C34.0509 23.365 36.1533 22.7833 38.3516 22.1751C44.1367 20.5744 50.5866 18.7899 47.8204 26.8929C45.5127 33.6521 41.6032 32.6822 37.3822 31.635ZM24.4486 25.5014C23.7377 25.1693 23.0339 24.8644 22.3698 24.6436C22.2771 25.8416 22.7842 26.956 23.9156 28.0419C24.9032 28.9899 25.8339 29.1005 26.8319 28.2814C27.1607 27.9121 27.4457 27.4953 27.6867 27.031C27.2807 26.8577 26.858 26.6608 26.4263 26.454C26.4375 26.5249 26.4433 26.5976 26.4433 26.6717C26.4433 27.4208 25.8502 28.0281 25.1186 28.0281C24.3869 28.0281 23.7938 27.4208 23.7938 26.6717C23.7938 26.1729 24.0568 25.737 24.4486 25.5014ZM18.4948 25.824C18.9223 24.511 19.8696 24.1678 21.0693 24.3263C20.867 26.0151 21.5231 27.6047 23.0096 29.0314C23.438 29.4426 23.8713 29.7437 24.3063 29.937C23.6112 30.1815 22.8332 30.3363 21.9723 30.4016C25.338 31.0477 27.7517 30.1036 29.2135 27.5693C30.6174 27.9154 31.5768 27.5773 31.5768 25.6545C31.088 27.6562 28.8622 26.2818 26.3766 24.747C22.9673 22.6419 19.0694 20.235 18.4948 25.824ZM38.7051 26.4263C38.2694 26.6554 37.8423 26.8701 37.4302 27.05C37.6722 27.5178 37.9587 27.9375 38.2896 28.3092C39.2876 29.1284 40.2182 29.0177 41.2058 28.0698C42.3904 26.9328 42.8907 25.7647 42.7347 24.502C42.0198 24.7198 41.2743 25.0685 40.5282 25.4541C40.9985 25.6623 41.3277 26.1416 41.3277 26.6996C41.3277 27.4487 40.7346 28.0559 40.0029 28.0559C39.2713 28.0559 38.6782 27.4487 38.6782 26.6996C38.6782 26.606 38.6874 26.5145 38.7051 26.4263ZM33.8627 26.6996C34.3629 27.4508 35.058 27.6518 35.8735 27.5368C37.3317 30.1165 39.7569 31.0807 43.1492 30.4295C42.2883 30.3642 41.5103 30.2093 40.8152 29.9649C41.2502 29.7715 41.6835 29.4705 42.1119 29.0593C43.6231 27.6088 44.2761 25.9901 44.0414 24.2699C45.0526 24.2462 45.9495 24.663 46.6267 25.8519C45.9827 19.7788 42.2951 22.2382 38.8543 24.5329C36.916 25.8257 35.0561 27.0661 33.8627 26.6996ZM33.2003 24.1565C33.2003 25.1018 33.6971 25.8519 34.525 26.0214C33.6971 26.191 32.7035 25.5128 33.2003 24.1565ZM48.3018 8.47701C48.3018 11.7985 41.313 14.9195 32.5703 14.9195C23.8276 14.9195 16.8388 11.7985 16.8388 8.47701C16.8388 5.15547 23.8276 2.03448 32.5703 2.03448C41.313 2.03448 48.3018 5.15547 48.3018 8.47701Z" fill="#1D1D1F"/>
<ellipse cx="32.5701" cy="8.47674" rx="7.78295" ry="3.3908" fill="#FF6633"/>
<path fill-rule="evenodd" clip-rule="evenodd" d="M93.7529 39.3368H92.9999C92.9999 39.1636 92.7451 38.986 92.2358 38.8046C90.9654 37.3851 90.3302 33.6967 90.3302 27.7389C90.2517 27.7389 90.213 27.5619 90.213 27.2067C90.213 27.116 90.2517 27.0704 90.3302 27.0704L90.213 26.4025V25.2013C90.213 25.1187 90.2517 25.0779 90.3302 25.0779C90.2517 24.9046 90.213 24.7684 90.213 24.6691L90.3302 21.4759H90.4597C90.4597 21.3852 90.4169 21.3396 90.3302 21.3396C90.4398 20.1352 90.5265 19.4254 90.5892 19.2103C90.5892 19.1196 90.5459 19.0745 90.4597 19.0745C90.4597 18.9833 90.5031 18.8514 90.5892 18.6786C90.6754 16.4345 90.7182 14.656 90.7182 13.3437C90.7182 11.8914 90.55 10.0223 90.213 7.73682C90.5811 7.02703 90.9613 6.67188 91.3534 6.67188C91.8397 6.67188 92.1338 6.89506 92.2358 7.34035C92.8552 7.48949 93.4037 7.93478 93.8824 8.67783C93.8824 8.91657 93.9685 9.18052 94.1408 9.46969L94.3881 9.34576H94.5175C94.6822 10.5588 94.7643 11.223 94.7643 11.3383H95.0232V11.0786C95.3837 11.0786 95.5952 11.6972 95.6579 12.9354C95.7757 12.9354 95.9444 13.5583 96.1636 14.804C96.2503 14.804 96.2931 14.8497 96.2931 14.9403C96.2931 15.031 96.2503 15.0766 96.1636 15.0766L96.5403 17.8739C96.4542 18.353 96.4109 18.7526 96.4109 19.0745V20.5349C96.4109 20.7414 96.3716 20.9233 96.2931 21.08C96.3716 21.2447 96.4109 21.3766 96.4109 21.4759C96.105 24.7598 95.8542 26.4025 95.6579 26.4025L95.7874 27.343V29.7438C95.7874 29.9418 95.7446 30.1193 95.6579 30.276C95.7446 30.4332 95.7874 30.6102 95.7874 30.8087V30.9445C95.7874 31.1183 95.7013 31.2047 95.5289 31.2047C95.5289 31.114 95.4856 31.0684 95.3995 31.0684V31.2047L95.6579 31.6006V31.8731L95.1527 36.1431L94.5175 37.2075C94.2351 37.2075 93.9802 37.3395 93.7529 37.604C93.7529 37.6941 93.7957 37.7397 93.8824 37.7397L93.7529 39.0772V39.3368ZM102.457 44.0555C106.501 45.5727 109.281 46.3732 110.797 46.4553C110.797 46.4553 115.061 47.4413 117.04 46.2509C120.609 44.1049 119.694 29.5578 119.694 29.5578L119.972 25.3995C120.012 22.4708 119.747 19.3339 119.178 15.9899L119.122 15.8348C118.78 14.9018 117.814 12.2666 117.923 11.6958C118.107 11.2806 118.272 11.0874 118.417 11.1185L118.786 11.1963C118.819 11.0268 118.878 10.9506 118.962 10.9683L119.585 11.1008L119.61 10.9673L120.449 11.2832L120.426 11.405C120.18 11.3525 120.04 11.4152 120.006 11.5939L120.286 11.5139L120.401 11.5381L120.375 11.6717L120.059 12.0091C120.034 12.1384 120.132 12.2935 120.354 12.4753L120.607 12.529C120.652 12.294 120.809 12.1465 121.076 12.0853L121.099 11.9641L121.595 12.0687C121.569 12.206 122.024 12.7532 122.961 13.7087C123.7 14.6567 124.386 16.0259 125.019 17.8183C125.63 20.4809 125.877 22.1199 125.76 22.7347L125.633 22.7073C125.782 24.187 125.881 25.929 125.93 27.9344C125.813 28.0868 125.745 28.2107 125.727 28.3083C125.98 28.3615 126.047 29.1458 125.925 30.6609L125.749 30.8883L125.594 34.4029C125.309 35.0161 125.154 35.3874 125.129 35.5167L125.105 36.3327L125.22 36.3568L125.5 36.2769L125.449 36.5441L125.273 36.7721C125.357 36.7898 125.392 36.8434 125.375 36.9325C125.29 36.9148 125.239 36.9497 125.222 37.0387L125.47 37.0916C126.54 35.4935 127.313 34.2052 127.79 33.2265C127.79 33.0366 128.045 32.7276 128.555 32.2984L130.448 27.904C130.362 27.8552 130.319 27.5413 130.319 26.9635C130.915 25.6352 131.295 24.971 131.46 24.971C132.079 23.5514 133.094 20.5272 134.506 15.8983L135.646 13.101C135.56 12.9272 135.517 12.7952 135.517 12.7046C135.831 12.7046 136.293 12.3044 136.905 11.5039H137.422L137.54 12.0361H137.67C137.842 12.0361 137.928 11.9454 137.928 11.7636L139.187 11.8998H139.445C139.445 12.1643 139.528 12.2963 139.693 12.2963H139.822C139.822 12.0318 139.908 11.8998 140.081 11.8998H140.21C140.375 11.9245 140.457 12.0152 140.457 12.1724L140.716 12.0361H140.833V12.5683H141.092C141.257 12.5683 141.339 12.4776 141.339 12.2963V12.1724L141.221 11.8998L141.857 11.7636H142.104L141.974 12.0361V12.4326C142.147 12.4326 142.233 12.6096 142.233 12.9648H143.245C143.245 13.0554 143.201 13.101 143.115 13.101C143.154 13.5463 143.283 13.769 143.503 13.769V14.5608C143.55 15.5104 143.801 16.1784 144.256 16.5663C144.256 16.6076 144.385 17.0534 144.644 17.9032L144.891 17.7669H145.021L145.526 19.7718C145.777 19.7718 145.902 20.0358 145.902 20.5642C145.816 20.5642 145.773 20.6098 145.773 20.7005L146.032 20.8368V20.7005C145.945 20.7005 145.902 20.6554 145.902 20.5642H146.291C146.298 21.0674 146.55 22.0455 147.043 23.4983C146.957 23.9849 146.914 24.3395 146.914 24.5622L147.172 24.6984C147.172 24.6078 147.216 24.5622 147.302 24.5622C147.302 24.744 147.553 25.3213 148.055 26.295C150.666 26.0311 152.23 25.8991 152.747 25.8991V26.1717H152.488L152.618 26.8278L150.089 27.632L150.207 27.904C150.207 28.3251 149.831 28.5891 149.078 28.6964V28.8327H149.325V29.1052L149.078 29.5011V29.7608C149.752 32.0135 150.301 34.0147 150.725 35.7642C150.725 35.9047 150.807 36.0818 150.971 36.2964V36.4326C150.971 36.5233 150.928 36.5684 150.842 36.5684L151.983 40.0347C151.905 40.0347 151.865 40.0797 151.865 40.1704C152.226 40.1704 152.603 41.5443 152.995 44.2923C152.712 44.2923 152.504 44.5149 152.371 44.9602H151.606C151.606 45.2327 151.395 45.369 150.971 45.369C150.674 45.0638 149.913 44.7048 148.69 44.2923C148.69 44.1522 148.058 43.8878 146.796 43.5004C146.796 43.4012 146.541 43.178 146.032 42.8319V42.5594L146.914 42.6957H147.302C147.467 42.6957 147.549 42.6093 147.549 42.4355C147.549 42.1549 146.749 39.9762 145.15 35.9004C145.15 35.3554 144.726 33.9776 143.879 31.7662C142.257 32.3027 140.485 32.7029 138.563 32.9669C138.563 32.8757 138.521 32.8306 138.434 32.8306C138.434 33.0946 138.179 33.2716 137.67 33.3628C136.235 33.7094 135.517 34.2003 135.517 34.8355C134.984 36.6183 134.479 37.8597 134 38.5614V38.9697C134.251 38.9697 134.377 39.0566 134.377 39.2299V39.3662L134.129 39.2299H133.871C133.62 39.9231 133.495 40.3684 133.495 40.5663L133.236 40.4306C133.236 40.6618 132.981 40.9295 132.471 41.2348C132.471 41.4 132.009 42.2005 131.083 43.6361L130.824 43.7601H130.578L130.072 43.3641H129.943C129.778 43.3888 129.696 43.4795 129.696 43.6361C129.774 43.8008 129.813 43.9328 129.813 44.0321L129.566 44.1683C129.456 44.0777 129.245 44.0321 128.931 44.0321C128.931 44.296 128.762 44.428 128.425 44.428L126.391 42.9682C125.87 42.9682 125.364 42.3265 124.87 41.0436C124.828 41.6252 124.694 42.5056 124.468 43.6848L124.269 44.7277C124.153 45.3351 124.015 45.621 123.853 45.5872L123.73 46.9242L123.581 47.701C123.128 49.1538 122.572 50.0337 121.913 50.34C121.739 50.4833 121.425 50.5922 120.976 50.6689C120.958 50.6748 120.942 50.6823 120.922 50.6887C120.735 50.8515 120.719 50.9035 120.7 50.9629C120.685 51.0146 120.667 51.0719 120.533 51.2123C120.437 51.2569 120.214 51.2799 119.871 51.2832V51.2864C119.663 51.383 119.399 51.4066 119.079 51.3567C118.695 51.8315 118.399 52.1174 118.191 52.2134L116.937 52.199C115.797 52.3395 114.377 52.3658 112.679 52.2778C111.372 51.611 109.825 51.1158 108.035 50.7901C107.145 50.0755 106.353 49.7166 105.658 49.7139C105.49 49.3137 104.3 48.4542 102.087 47.135C101.349 46.7015 100.904 46.5191 100.754 46.5894C100.196 45.9729 99.81 45.7144 99.5944 45.8141L99.391 45.327C101.502 46.1977 102.637 46.5964 102.795 46.5229L102.743 46.3989L101.683 45.8614L101.636 45.7482L101.754 45.6934C101.776 45.7465 102.449 46.0228 103.772 46.5239C105.094 47.0245 106.211 47.2761 107.12 47.2788C107.857 47.4247 108.33 47.4488 108.538 47.3523L108.657 47.2976C108.786 47.238 108.828 47.1237 108.783 46.9553C105.672 46.1323 104.02 45.4869 103.823 45.0191L103.65 45.2481C103.413 45.3581 103.176 45.1296 102.939 44.563L102.713 44.6677L102.813 44.9053L102.694 44.9606C102.555 44.6285 102.38 44.3216 102.168 44.041L102.405 43.9316L102.457 44.0555ZM125.309 37.3306L125.314 37.3234C125.309 37.3227 125.305 37.3219 125.3 37.3209C125.303 37.3236 125.306 37.3268 125.309 37.3306ZM80.294 41.3854C80.294 42.0039 81.0545 42.3586 82.5757 42.4492C84.0969 42.3752 84.8575 42.0656 84.8575 41.5216C86.1197 39.6477 86.7508 38.1793 86.7508 37.1149C87.3467 33.4093 87.727 30.6539 87.8917 28.8464V28.7225L87.3865 28.9822V28.7225L87.5154 28.0546C87.4293 28.0546 87.3865 28.009 87.3865 27.9183H87.5154C87.5154 23.7015 87.6842 20.6772 88.0211 18.8451V18.7212H87.7744C87.7744 19.0769 87.6449 19.2539 87.3865 19.2539C87.3865 19.3446 87.4293 19.4766 87.5154 19.6499L87.3865 20.9868C87.3865 21.0775 87.4293 21.2094 87.5154 21.3827C87.5154 21.4981 87.3467 21.8983 87.0098 22.5834H86.8803C86.8803 21.6923 86.7549 21.2465 86.5041 21.2465C86.5041 21.0732 86.6295 20.9868 86.8803 20.9868V20.0458C86.8803 19.4685 86.9236 18.5817 87.0098 17.3848H86.7508C86.7508 17.5827 86.712 17.7598 86.6335 17.917L86.7508 18.189C86.5316 18.2222 86.3628 18.4411 86.2451 18.8451L86.3746 19.3902C86.3746 19.4728 86.3317 19.5136 86.2451 19.5136C86.2451 19.8435 86.2884 20.0662 86.3746 20.1821C86.2884 20.1821 86.163 20.4954 85.9984 21.1231C86.0845 21.2711 86.1278 21.4487 86.1278 21.6547V21.7792L85.8689 22.1869L85.9984 22.4471H85.8689C85.8689 22.7443 85.9122 22.9675 85.9984 23.1156C85.9433 23.6274 85.8179 24.0271 85.6221 24.3163L85.7399 24.5883H85.6221C85.6221 25.2981 85.4493 25.6527 85.1042 25.6527V25.789L85.2337 26.5814C84.8106 27.3818 84.5985 28.2273 84.5985 29.1184H84.3518C84.3518 29.0278 84.3946 28.9822 84.4813 28.9822C84.4813 28.7595 84.4379 28.4049 84.3518 27.9183L84.5985 27.5224L84.4813 27.2498C84.6459 27.2498 84.728 27.0272 84.728 26.5814L84.5985 26.3212C84.6852 26.3212 84.8147 26.0985 84.987 25.6527C84.9008 25.496 84.8575 25.3184 84.8575 25.1205C84.8575 25.0051 84.9401 24.5142 85.1042 23.6478V23.2519L84.987 22.4471L85.1042 22.1869L84.987 21.5185L85.2337 20.8505C85.1475 20.6939 85.1042 20.5163 85.1042 20.3183L85.3632 19.9224H85.1042L85.4927 16.9888L85.3632 16.7163C85.9433 15.6025 86.7039 14.8477 87.6449 14.4512V14.1792C87.6449 13.9727 87.2646 13.7956 86.5041 13.6465C85.72 14.1663 85.1282 14.8804 84.728 15.7882V16.0478H84.987V16.1841H84.728L84.8575 16.4566C84.8575 16.8359 84.7713 17.1911 84.5985 17.521L84.728 17.7812C84.5868 18.7383 84.4186 19.3156 84.2223 19.5136L84.3518 19.7861C84.2656 19.7861 84.2223 19.8317 84.2223 19.9224V20.0458H84.3518V21.5185C84.3518 21.783 84.4344 21.9149 84.5985 21.9149C84.4655 22.1134 84.34 22.5131 84.2223 23.1156C84.2223 25.1618 84.0536 26.1854 83.7166 26.1854V26.4451H83.9638C83.9638 26.5363 83.9246 26.5814 83.8461 26.5814L83.9638 27.2498C83.8772 27.2498 83.7518 27.2949 83.5871 27.3861C83.6733 27.9966 83.7599 28.3968 83.8461 28.5862C83.6814 28.6774 83.5519 28.7225 83.4576 28.7225V30.0471C83.2935 30.0471 83.2109 30.2247 83.2109 30.5793H83.0814C82.9168 30.5793 82.7913 30.2697 82.7052 29.6512C82.8699 29.0814 82.9953 28.2815 83.0814 27.2498C82.9953 27.0932 82.9519 26.9156 82.9519 26.7176C82.9519 26.0905 83.0386 25.5996 83.2109 25.2449C83.1247 25.0797 83.0814 24.9477 83.0814 24.8485C82.8071 24.8485 82.5956 25.9172 82.4467 28.0546C82.5329 28.0546 82.5757 28.0953 82.5757 28.178C81.9013 33.1706 81.1412 36.1492 80.294 37.1149C80.1374 36.3139 79.9687 35.9137 79.7883 35.9137C78.3649 30.4219 75.9262 25.6477 74.0208 21.9175L74.0208 21.9175C73.092 20.0992 72.2899 18.529 71.7939 17.2447C71.2847 16.6004 71.0298 16.2002 71.0298 16.0435H70.7825V16.1798L70.9003 16.4523C70.6806 16.1798 70.3436 16.0435 69.8889 16.0435V15.9201H70.1474V15.6476C69.4729 15.6476 69.136 15.47 69.136 15.1154L68.7801 15.1283C68.2627 15.5736 67.8824 15.7962 67.6393 15.7962C67.6393 15.3676 67.3849 14.9668 66.8751 14.5961C66.6238 14.7281 66.4984 14.86 66.4984 14.992C66.4046 14.992 66.2751 14.9464 66.1104 14.8557C65.9692 14.8557 65.8871 14.9464 65.8637 15.1283L65.9927 15.3885C65.9065 15.3885 65.8637 15.4335 65.8637 15.5242L65.6047 15.3885H65.4875C65.3381 15.3885 65.252 15.4791 65.2285 15.6599V15.7962L65.4875 16.7249C66.3026 16.7249 67.2314 19.5259 68.2744 25.1296H68.1449C68.2316 25.9875 68.3565 26.6516 68.5217 27.1221H68.3922C68.3922 27.4188 68.435 27.6415 68.5217 27.7906L68.3922 28.4591C68.4783 29.2343 68.5217 29.6801 68.5217 29.7955C68.435 30.4226 68.3922 30.7778 68.3922 30.8599C68.5645 31.5697 68.6512 32.391 68.6512 33.3229C68.6512 34.1153 68.5645 35.4276 68.3922 37.2592C68.3922 39.0173 68.7332 40.2174 69.4153 40.8612V40.5887L69.2858 40.3167C69.3725 40.3167 69.4153 40.2754 69.4153 40.1927V40.0565H69.1569V39.9207C69.243 39.9207 69.3684 39.8751 69.5331 39.7845C69.9567 40.6176 70.1683 41.3317 70.1683 41.9256C71.015 42.0742 71.4381 42.4288 71.4381 42.9906H71.5676C71.5676 42.718 71.6068 42.4085 71.6853 42.0619H71.9443C71.9443 42.945 72.1987 43.3865 72.7085 43.3865L74.0961 42.8543C74.0099 42.2185 73.9671 41.8639 73.9671 41.7899C73.9671 41.5254 74.0533 41.3934 74.2256 41.3934L74.0961 40.7249V39.7845L73.9671 39.5248H74.0961C74.0961 39.3757 74.0533 38.8435 73.9671 37.9277L73.7199 38.0516C73.8845 37.3418 73.9671 36.9003 73.9671 36.727V35.9228L73.8494 35.6502C73.9279 35.6502 73.9671 35.5843 73.9671 35.4523C73.9671 34.5773 73.9279 33.802 73.8494 33.125C73.9013 32.8009 74.066 32.8433 74.3428 33.2527C75.6759 36.595 76.7306 38.5049 77.507 38.9835C78.1809 39.4046 78.5184 39.8043 78.5184 40.1842C79.1923 40.7866 79.5298 41.1413 79.5298 41.2491C79.6159 41.2491 79.6588 41.2035 79.6588 41.1128C79.8708 41.2942 80.0824 41.3854 80.294 41.3854ZM113.457 42.7578C113.425 42.5824 113.215 42.504 112.829 42.5234C112.864 42.7133 112.515 42.9064 111.78 43.1044C111.434 42.6822 111.032 42.3973 110.571 42.2497C110.55 42.1403 110.414 42.047 110.162 41.9697L110.058 41.9917L110.103 42.2326C109.463 41.7422 109.133 41.4429 109.113 41.3334C107.603 39.0796 106.747 37.4159 106.547 36.3413C106.257 35.1718 105.939 34.0913 105.596 33.0993L105.667 32.8455L105.041 30.7661L105.156 30.7425L104.996 30.5252L104.599 28.398L104.276 27.2467L103.818 27.3417C103.853 27.5316 103.777 27.9533 103.589 28.6072L103.818 28.56C103.761 29.4903 103.753 30.0649 103.794 30.2843C103.863 30.2698 103.905 30.3026 103.92 30.3836C103.677 30.4335 103.631 31.0161 103.782 32.1309L104.006 32.6996C103.968 33.1476 103.877 33.4926 103.735 33.7351C103.75 33.815 103.795 33.8477 103.872 33.8316C103.929 34.9888 103.912 35.7281 103.821 36.0511C103.918 36.1831 103.974 36.2925 103.991 36.38C103.767 36.8821 103.635 38.0517 103.596 39.8886C103.521 40.7245 103.445 41.1499 103.369 41.1655L103.036 41.2342C102.872 42.1714 102.616 42.6763 102.269 42.7476C102.099 42.4563 101.959 42.3222 101.848 42.3452L101.618 42.3925L101.076 42.6189C101.01 42.268 100.63 42.1038 99.9348 42.1258L99.9389 41.5105C99.865 41.1156 99.6794 40.9493 99.3807 41.011L99.2472 40.2985C99.1753 39.9106 98.9515 39.7561 98.5768 39.8339C98.2439 38.0506 98.2934 34.9738 98.7251 30.6035C98.7104 30.5225 98.6645 30.4909 98.588 30.5064L98.586 29.2773L98.8378 29.3508L98.7048 28.6378C98.9612 28.5847 99.0448 28.1995 98.954 27.4817L98.8006 26.6598C98.9739 26.6238 99.0341 26.3266 98.9805 25.7687L98.7863 25.3078C98.8118 25.0599 98.8633 24.928 98.9392 24.9113C98.9245 24.8314 98.8786 24.7987 98.8021 24.8148C98.7573 24.1484 98.7695 23.5765 98.8393 23.0991C98.7343 22.9617 98.6737 22.8491 98.6568 22.7616C98.7894 22.6581 98.8934 22.5985 98.9698 22.583C98.8567 22.4016 98.7098 22.0218 98.5304 21.444C98.6273 21.4236 98.7323 21.1553 98.8449 20.6387C98.7399 20.5014 98.6803 20.3924 98.665 20.3114L98.7797 20.2878L98.6201 20.0706C98.6976 17.975 98.6155 15.6611 98.3739 13.1305C98.616 12.9212 98.9005 12.7828 99.2268 12.7152L99.5602 12.646C99.6366 12.6305 99.6825 12.6626 99.6973 12.7431L99.9043 12.5752C100.737 12.9041 101.212 13.3789 101.328 14.0001L101.534 13.8322L101.867 13.763L101.89 13.8842L101.829 14.1353L102.944 13.9052L104.316 14.3612L104.463 14.5704L104.13 14.6391L104.152 14.7593C104.459 15.5538 104.919 16.358 105.533 17.1729C106.5 18.6043 107.153 20.2267 107.491 22.0395L107.8 23.6951C108.029 23.6474 108.483 24.8212 109.16 27.2161L109.271 27.8084C109.286 27.8883 109.255 27.9366 109.179 27.9522L109.337 28.1593C109.404 28.5246 109.366 29.1475 109.22 30.0273C109.614 30.4775 109.873 31.0349 109.997 31.7001L110.043 31.941L110.261 31.896C110.414 31.8643 110.506 31.3139 110.537 30.2452L110.652 30.2216L110.492 30.0037L110.427 29.6529C110.731 29.0053 110.806 27.1077 110.651 23.9591C110.781 23.5755 110.872 22.8244 110.923 21.7058C111.27 20.085 111.617 19.0303 111.966 18.541L112.081 18.5174L112.126 18.7588L112.054 19.012L112.306 19.0855L112.42 19.0619L112.398 18.9412L112.168 18.9884L112.24 18.7352L112.218 18.614C112.203 18.534 112.157 18.5013 112.081 18.5174C112.131 18.3624 112.14 18.1977 112.107 18.0228L112.326 17.9772L112.332 18.5904C112.575 18.5399 112.778 17.967 112.942 16.8704L112.919 16.7497L113.16 16.8253L113.138 16.7046C113.062 16.7207 113.016 16.688 113 16.608C113.119 16.5833 113.257 16.4755 113.416 16.2829C113.43 16.3559 113.471 16.3854 113.541 16.3709C113.893 15.3188 114.291 14.7469 114.735 14.6552L114.85 14.6316L114.938 15.1032L114.148 16.4959L113.907 16.4202L113.563 16.4916L113.586 16.6123L114.034 16.5195L114.079 16.7609C113.641 17.314 113.432 17.6424 113.451 17.7443C113.2 18.9123 112.909 21.5078 112.578 25.5305L112.601 25.6512L112.705 25.6297C113 24.8174 113.153 23.7611 113.163 22.4606L113.531 20.6655L113.655 20.6397C113.669 20.3097 113.735 20.1326 113.854 20.1081L113.968 20.084C114.005 20.2814 114.119 20.4633 114.309 20.6291L114.337 20.7806C114.388 20.7491 114.433 20.7294 114.472 20.7213L114.495 20.842C114.381 21.4724 114.295 22.2648 114.235 23.2182L114.349 23.1946C114.523 23.1591 114.631 22.4837 114.675 21.1693C115.126 21.0759 115.403 20.2819 115.506 18.7883L115.736 18.7406C115.767 18.909 115.713 19.4514 115.574 20.3683C115.762 20.3291 115.902 20.4633 115.995 20.7707L115.992 21.3866C116.112 21.6044 116.21 21.7058 116.286 21.6897L116.35 23.8856C116.395 24.1264 116.529 24.2241 116.751 24.1785L116.771 24.2879C116.826 27.0927 116.733 30.3412 116.492 34.035C116.243 35.4073 115.758 37.3897 115.038 39.9825C114.483 41.57 114.168 42.3715 114.091 42.3876L113.457 42.7578ZM113.86 21.2122L113.797 20.8747C113.837 20.8746 113.877 20.8778 113.918 20.8841L113.975 21.1886L113.86 21.2122ZM113.832 19.7899L113.947 19.7663C113.903 19.5329 113.954 19.401 114.1 19.3704L114.032 19.0088L113.928 19.0302C113.974 19.2711 113.882 19.416 113.652 19.4632C113.757 19.6011 113.817 19.71 113.832 19.7899ZM82.9409 24.6248H83.0704C83.0704 24.2622 83.0276 23.907 82.9409 23.5604L83.0704 22.8919V22.7686H82.8237C82.8237 23.0078 82.737 23.2718 82.5647 23.5604L82.6942 23.833C82.608 23.833 82.5647 23.878 82.5647 23.9692V24.2289C82.6982 24.4928 82.8237 24.6248 82.9409 24.6248ZM134.544 21.3955C134.725 21.3542 134.893 21.1315 135.05 20.727C134.972 20.5704 134.933 20.3928 134.933 20.1948C135.129 20.1948 135.509 19.4394 136.073 17.9297L135.944 17.6572V17.5209C136.407 16.9683 136.657 16.2135 136.697 15.2559H136.191V15.5284H136.45C135.18 18.3589 134.544 20.3145 134.544 21.3955ZM111.709 34.9302C111.71 35.3626 111.634 35.7843 111.48 36.1958C111.348 36.2232 111.257 36.162 111.207 36.0129L111.097 35.4211L111.212 35.3975L111.711 33.0852C111.696 33.0053 111.636 32.8964 111.531 32.7585C111.649 32.7338 111.783 32.6228 111.933 32.4248L111.956 32.545L111.803 32.9414L111.848 33.1823L112.066 33.1373L112.001 32.7859L112.116 32.7628L112.246 33.464C112.034 34.4114 111.854 34.9002 111.709 34.9302ZM138.125 28.7512C138.557 28.7512 139.952 28.3966 142.312 27.6868V27.551C142.312 27.3606 141.72 25.4507 140.536 21.8197V21.6963C140.136 22.2489 139.713 23.2264 139.266 24.6298C139.078 25.8589 138.741 27.0553 138.255 28.219H138.125V28.7512ZM149.468 35.3584V35.4946C149.217 35.4946 148.837 34.471 148.327 32.4248C148.664 32.4248 148.833 32.7381 148.833 33.3658H149.092L149.338 33.2295C149.338 33.3202 149.382 33.3658 149.468 33.3658L149.338 34.0338C149.425 34.8095 149.468 35.2511 149.468 35.3584ZM112.155 29.8565C112.099 29.5566 112.206 29.0867 112.476 28.4466C112.527 28.2991 112.529 28.0936 112.48 27.8307L112.437 27.6006L112.323 27.6242C112.225 27.6446 112.105 28.2385 111.963 29.4064L111.619 29.4778L111.707 29.9488L111.821 29.9252L111.879 29.882C111.874 30.1418 111.788 30.6929 111.619 31.5349L111.637 32.271L111.658 32.381L111.772 32.3568C111.941 30.7511 112.021 29.9184 112.009 29.86L111.997 29.7935L112.03 29.7686C112.044 29.841 112.085 29.8705 112.155 29.8565Z" fill="#1D1D1F"/>
<path fill-rule="evenodd" clip-rule="evenodd" d="M175.542 43.1215L172.991 42.8542L172.743 42.9878C171.704 42.7211 170.94 42.3286 170.452 41.8109C169.35 40.8796 168.799 40.184 168.799 39.7226C168.799 39.6421 168.713 39.2901 168.539 38.6666V38.5456L168.669 38.2783C168.559 38.2783 168.307 37.9305 167.914 37.2344V36.8456C167.914 36.7566 168.208 36.4936 168.799 36.0563L168.669 35.4013C170.157 34.2685 171.177 33.7018 171.727 33.7018V33.8355C171.727 34.1832 171.428 34.8793 170.83 35.9232V36.0563C171.011 36.0563 171.48 36.1863 172.235 36.4452L174.397 36.19V36.3236C174.963 36.2347 175.514 36.1011 176.05 35.9232L176.935 36.0563C178.163 35.8548 179.691 35.0693 181.517 33.7018C182.037 33.2567 182.545 32.5606 183.041 31.6141C183.465 31.1526 183.678 30.7154 183.678 30.3029C178.962 29.259 176.419 28.6034 176.05 28.3367C176.05 28.514 175.963 28.6034 175.79 28.6034C172.806 27.8668 171.07 27.1712 170.582 26.5157C170.22 26.5157 169.582 26.079 168.669 25.2045C168.449 25.1803 167.984 24.6136 167.275 23.505C167.071 23.505 166.859 23.202 166.638 22.5943C166.299 22.5943 166.13 22.1576 166.13 21.2836C166.13 19.8272 166.551 18.5603 167.394 17.4843C167.905 16.594 168.5 15.8537 169.177 15.2629C169.578 14.8504 169.834 14.4168 169.945 13.9638C171.243 13.001 172.007 12.5195 172.235 12.5195C174.148 12.7216 175.546 13.0694 176.428 13.5629C178.38 14.6315 179.356 15.6349 179.356 16.5735V17.6179H179.096V17.751L179.226 18.0183L178.589 18.1399C178.313 18.1399 177.679 17.7921 176.687 17.0955C175.223 17.7105 174.334 18.1478 174.018 18.4072C173.948 18.8197 173.396 19.3416 172.365 19.9725C172.365 20.1182 171.94 20.5554 171.09 21.2836C170.578 22.0765 170.322 22.5543 170.322 22.7163C172.023 23.5008 174.821 24.2858 178.718 25.0714C182.246 25.9453 184.406 26.8192 185.202 27.6932C187.752 28.9959 189.028 29.9956 189.028 30.6912H188.768C188.768 30.4644 188.303 30.0319 187.374 29.3921H187.114V29.5137C187.5 30.5823 188.095 31.2821 188.898 31.6141C188.898 31.7272 189.11 32.1197 189.535 32.7911C189.362 32.8158 189.275 32.9005 189.275 33.0462L189.405 34.2238C189.405 34.8878 188.898 35.4092 187.882 35.7901C187.882 36.0732 187.5 36.5099 186.737 37.1008C186.737 37.538 186.055 38.1488 184.694 38.9339C184.694 39.1033 184.143 39.6257 183.041 40.4997C182.789 40.6049 182.662 40.7386 182.662 40.9001H182.533L182.285 40.767C182.285 41.3978 181.478 42.0092 179.864 42.5996C179.864 42.3328 179.777 42.1991 179.604 42.1991C179.329 42.5953 178.864 42.8584 178.211 42.9878L177.443 42.8542H177.195C177.006 42.8542 176.837 42.8989 176.687 42.9878L176.428 42.8542C176.278 42.9437 176.109 42.9878 175.92 42.9878L175.672 42.8542L175.542 43.1215ZM200.091 41.681H199.831C198.957 41.681 198.363 41.5516 198.048 41.2927L197.54 41.4264C197.406 41.4264 197.154 41.2522 196.785 40.9039L196.525 41.0254C195.934 40.8876 195.383 40.3656 194.871 39.4591L194.612 39.5927H194.364C192.584 38.0879 191.695 37.0846 191.695 36.5826C190.254 33.5236 189.534 30.0357 189.534 26.1191C189.471 26.1191 189.341 24.8563 189.144 22.3318H189.274C189.101 21.8862 189.014 21.5831 189.014 21.4211C189.077 20.8949 189.164 20.6318 189.274 20.6318L188.507 16.8446C188.664 16.8446 188.794 16.4521 188.896 15.6671C189.234 15.6671 189.404 15.5782 189.404 15.4003V15.2667H189.534L189.912 15.534C190.093 15.534 190.345 15.2709 190.668 14.7448C190.762 14.7448 190.892 14.7 191.057 14.6111V14.8784L191.695 14.7448C191.695 15.012 191.734 15.1452 191.813 15.1452C191.931 15.0562 192.144 15.012 192.45 15.012C192.45 15.2136 192.706 15.343 193.218 15.4003V15.534L193.089 15.7886C193.262 15.7886 193.348 15.8776 193.348 16.0554H193.466C193.553 16.0554 193.895 15.9665 194.494 15.7886H194.871V16.711L194.612 17.0993L195.001 17.3666L194.612 19.3212C194.643 19.499 194.73 19.588 194.871 19.588C194.785 20.6076 194.742 21.3485 194.742 21.8094V21.943L194.871 23.2416H194.742L194.871 23.5088V23.6425C194.871 25.0426 194.997 27.5676 195.249 31.2169H195.12C195.206 31.4195 195.379 32.1193 195.639 33.3173L195.509 33.9729C195.674 34.256 195.757 34.5149 195.757 34.7495L195.639 35.0168C196.056 35.0168 196.265 35.4535 196.265 36.3274C196.406 36.3274 196.58 36.5863 196.785 37.1046C197.202 37.1046 198.217 36.0602 199.831 33.9729C200.768 32.3461 201.701 29.5538 202.63 25.5971V23.7635L202.5 22.8533H202.63L202.5 22.5981C202.5 22.3966 202.543 22.2182 202.63 22.0646C202.378 18.6493 202.252 16.6021 202.252 15.9223C202.559 15.5014 202.941 15.153 203.398 14.8784V14.4896H203.645V14.7448H204.023C204.457 14.1376 204.838 13.834 205.169 13.834L205.299 14.0892L205.559 13.9676H205.806V14.3559H205.936L206.574 14.2228L207.341 14.7448V15.1452H207.849V14.8784C208.015 14.9673 208.141 15.012 208.227 15.012C208.393 14.9226 208.519 14.8784 208.605 14.8784C209.203 15.4445 209.502 16.1406 209.502 16.9656C209.416 16.9656 209.372 17.0104 209.372 17.0993C209.538 17.1319 209.621 17.2208 209.621 17.3666C209.369 17.5691 209.243 17.8722 209.243 18.2773H209.113L208.865 17.4881C208.692 17.5202 208.605 17.6091 208.605 17.7549V19.588C208.605 20.4135 208.562 21.4169 208.475 22.5981L208.605 23.2416C208.078 26.7699 207.57 29.1255 207.082 30.3067C206.995 30.3067 206.952 30.3514 206.952 30.4403V31.6179L207.082 32.9169C206.743 32.9169 206.574 33.2689 206.574 33.9729H206.444C206.444 34.256 206.613 35.2146 206.952 36.8494H206.822L206.952 37.1046V37.7601C206.952 37.9543 206.909 38.1285 206.822 38.2821C206.909 38.452 206.952 38.5815 206.952 38.6704C206.763 38.6704 206.551 38.2374 206.314 37.3718H206.196C206.196 37.4524 206.153 37.4929 206.066 37.4929C206.232 38.4157 206.444 39.3339 206.704 40.2483C206.617 40.4188 206.574 40.5482 206.574 40.6371C206.44 40.6371 206.145 39.7222 205.688 37.8938H205.559L205.429 38.1484V38.2821H205.688V39.0708H205.936C205.936 39.1602 205.893 39.2044 205.806 39.2044L205.936 39.4591V39.8479L205.688 39.7264C205.688 39.8074 205.645 39.8479 205.559 39.8479C205.299 39.3297 205 38.371 204.661 36.9709H204.413C204.295 36.9709 204.126 37.3634 203.905 38.1484C203.74 38.1484 203.315 38.6299 202.63 39.5927L202.76 39.8479C202.532 40.1389 201.937 40.4019 200.977 40.6371C200.386 41.1391 200.091 41.4869 200.091 41.681ZM207.602 43.775H207.225C207.138 43.1357 207.051 42.7432 206.964 42.5974C207.051 42.4522 207.095 42.2339 207.095 41.9424H207.354V42.4638L207.225 42.719C207.39 42.8079 207.516 42.8521 207.602 42.8521V42.9857L207.354 43.3746C207.519 43.4067 207.602 43.4961 207.602 43.6413V43.775ZM237.401 46.4935L236.893 46.2388C236.728 46.3199 236.598 46.3604 236.504 46.3604L235.995 46.2388C235.831 46.3199 235.705 46.3604 235.618 46.3604C235.618 46.1341 235.319 45.96 234.72 45.8384C234.531 45.3281 234.193 44.8956 233.704 44.5394C233.201 43.6007 232.819 42.2937 232.559 40.6185L232.689 40.3512C232.602 40.1813 232.559 40.0518 232.559 39.9629H232.689C232.539 39.6798 232.37 38.4581 232.181 36.2967H232.311C232.154 35.7711 231.729 31.676 231.036 24.0127C230.949 24.0127 230.823 23.3129 230.658 21.9128C230.658 21.8239 230.701 21.6939 230.788 21.524C230.788 20.6179 230.276 19.614 229.253 18.5139C229.253 18.4565 229.04 17.8456 228.615 16.6802C228.71 16.2919 229.009 15.9889 229.512 15.7705H229.642V16.0252C230.241 15.8552 230.579 15.7705 230.658 15.7705H230.788V16.5592H231.036L230.906 16.8139V16.9475C231.079 16.9475 231.166 16.9922 231.166 17.0811L232.181 16.4256H232.311V16.5592C232.225 16.7207 232.181 16.8502 232.181 16.9475C232.268 16.9475 232.311 16.9922 232.311 17.0811C232.476 16.9922 232.602 16.9475 232.689 16.9475C233.429 16.9964 234.193 17.692 234.98 19.0358C234.98 19.6104 235.275 20.4843 235.866 21.6576C236.464 27.2495 236.763 30.3007 236.763 30.8105H236.893C238.822 30.5432 240.263 30.4096 241.215 30.4096H241.723C242.487 30.4096 242.868 29.9324 242.868 28.9774H242.998L242.868 28.7101V28.5891C243.293 28.5891 243.719 25.9705 244.144 20.7347C243.97 20.7347 243.884 20.65 243.884 20.4801V19.6909C244.34 19.6909 244.679 19.5614 244.899 19.3026H245.159L245.278 19.9581C245.198 19.9581 245.159 19.9987 245.159 20.0792L245.407 20.2128C245.407 20.1239 245.451 20.0792 245.537 20.0792L245.407 19.8245V19.6909C245.966 19.6909 246.305 19.4283 246.423 18.9022H246.683C246.683 18.999 246.726 19.1326 246.813 19.3026L247.06 19.1694H247.19C247.19 19.4604 247.233 19.6788 247.32 19.8245L247.568 19.6909C247.742 19.7156 247.828 19.8045 247.828 19.9581V20.0792H247.568V20.2128H247.958L248.076 19.9581C247.998 19.7877 247.958 19.6551 247.958 19.5577H248.206C248.718 20.0186 248.974 20.4112 248.974 20.7347H249.351L249.611 20.6011L249.481 20.3464C249.505 20.1686 249.588 20.0792 249.729 20.0792C250.359 20.0792 250.702 20.2128 250.757 20.4801V20.7347C250.757 20.9131 250.627 21.002 250.367 21.002C250.706 21.9086 250.875 22.4747 250.875 22.7015C250.457 24.4336 250.249 26.6103 250.249 29.2326L250.497 29.3662C250.497 29.2768 250.54 29.2326 250.627 29.2326C250.627 29.4104 250.67 29.4988 250.757 29.4988L251.264 29.2326V29.3662C251.264 29.6251 250.926 29.7987 250.249 29.8876V30.6769H251.135L252.788 30.288C252.788 30.3696 252.831 30.4096 252.917 30.4096C252.917 30.2402 253.256 30.1107 253.933 30.0213V30.1549C253.933 30.2681 253.382 30.5716 252.28 31.0652C252.28 31.413 251.516 31.8055 249.989 32.2427V32.5095L250.627 32.3763C250.713 32.3763 250.757 32.4205 250.757 32.5095C250.922 32.4205 251.048 32.3763 251.135 32.3763H251.394V32.5095C250.371 32.6389 249.859 32.813 249.859 33.0314C249.859 33.2908 249.816 33.4202 249.729 33.4202L249.859 33.687C249.694 34.4236 249.611 34.8566 249.611 34.986L249.729 35.7753C249.729 36.5766 249.477 38.5791 248.974 41.7839H248.714V41.5293H248.596V43.2282H248.206L247.698 42.8399C247.698 42.9856 247.486 43.3781 247.06 44.0174C247.06 44.9482 246.809 45.4701 246.305 45.5838C246.305 45.8426 245.88 45.9721 245.029 45.9721H244.899C244.899 45.7132 244.773 45.5838 244.522 45.5838H244.392V44.5394C244.392 44.3373 244.349 44.1632 244.262 44.0174C244.262 43.9285 244.305 43.8838 244.392 43.8838C244.392 43.7059 244.349 43.6165 244.262 43.6165C244.459 40.3065 244.628 38.6523 244.77 38.6523L244.652 38.385C244.817 37.7857 244.899 37.2643 244.899 36.8192V35.7753L245.029 35.1197C244.825 34.9497 244.655 34.865 244.522 34.865C243.27 35.1239 242.419 35.338 241.971 35.508V36.2967C241.75 36.2967 241.455 36.7781 241.085 37.7415L239.94 40.3512C239.774 40.4401 239.648 40.4848 239.562 40.4848V41.5293C239.562 41.7392 239.349 42.1317 238.924 42.7063C238.924 43.224 238.838 43.4834 238.665 43.4834L238.794 43.7501C238.117 44.4946 237.779 44.9319 237.779 45.0618V45.7169L237.909 45.9721C237.625 45.9721 237.456 46.1457 237.401 46.4935ZM243.509 29.2412C243.91 27.9226 244.205 27.2223 244.394 27.1413C244.308 26.7935 244.182 26.4899 244.017 26.2311L244.264 25.8428H244.147C244.005 25.8428 243.831 26.1464 243.627 26.753L243.757 27.4086C243.717 27.7564 243.591 27.9305 243.379 27.9305V28.0637L243.509 28.3194H243.249V28.9744C243.281 29.1528 243.367 29.2412 243.509 29.2412ZM246.685 39.9622C246.89 39.9622 247.016 39.5244 247.063 38.6505C246.984 38.481 246.945 38.3516 246.945 38.2622H247.193V37.7407C247.193 37.5624 247.11 37.4735 246.945 37.4735L247.063 36.8179V35.5188C247.063 35.4299 247.107 35.3852 247.193 35.3852L247.063 35.1184C247.063 35.0295 247.107 34.8995 247.193 34.7301L246.945 33.5526C247.024 33.5526 247.063 33.5079 247.063 33.4189H246.815V34.3418C246.815 34.536 246.772 34.7096 246.685 34.8632C246.685 34.9527 246.729 34.9969 246.815 34.9969L246.685 35.6404V35.9071L246.815 36.8179H246.685L246.815 37.0852V37.3398C246.815 37.5177 246.729 37.6071 246.555 37.6071C246.729 37.8902 246.815 38.1532 246.815 38.3958V39.0393L246.685 39.9622ZM245.791 41.1314C245.957 40.4758 246.039 40.0833 246.039 39.9539C246.039 39.865 245.996 39.8202 245.909 39.8202L246.039 39.1647V37.7325L245.909 36.154H246.039L245.909 35.8988V34.9886C245.909 34.8997 245.953 34.855 246.039 34.855C245.953 34.7418 245.909 34.434 245.909 33.9326C245.744 33.9652 245.662 34.0542 245.662 34.1999V35.1101C245.662 35.6121 245.618 35.9199 245.532 36.0325C245.618 36.5023 245.662 36.8943 245.662 37.2105V41.1314H245.791ZM240.065 37.854C240.065 37.5709 240.36 36.9638 240.95 36.033L241.588 34.7224V34.4551H241.458C240.97 35.0138 240.588 35.7136 240.313 36.5555C240.258 36.5555 240.088 36.7738 239.805 37.2111V37.854H240.065ZM237.139 39.9614C237.643 39.3942 238.575 37.9541 239.937 35.6396C239.937 35.5586 239.981 35.518 240.067 35.518V35.9063H240.316C240.316 35.5422 240.402 35.1055 240.575 34.5957H240.445V34.7293C240.359 34.7293 240.316 34.6846 240.316 34.5957C238.922 35.1213 238.119 35.3844 237.906 35.3844C237.332 35.1255 236.993 34.9961 236.891 34.9961V35.3844C236.891 35.5786 236.93 35.7527 237.009 35.9063C237.009 35.9953 236.97 36.04 236.891 36.04C236.97 36.4367 237.052 37.7437 237.139 39.9614ZM257.205 45.6026H256.449C256.449 45.4326 256.193 45.2585 255.682 45.0806C254.406 43.6884 253.769 40.0712 253.769 34.2283C253.69 34.2283 253.651 34.0546 253.651 33.7063C253.651 33.6174 253.69 33.5727 253.769 33.5727L253.651 32.9176V31.7396C253.651 31.6591 253.69 31.6185 253.769 31.6185C253.69 31.4486 253.651 31.315 253.651 31.2176L253.769 28.086H253.898C253.898 27.9971 253.855 27.9523 253.769 27.9523C253.879 26.7711 253.965 26.075 254.028 25.8646C254.028 25.7751 253.985 25.7309 253.898 25.7309C253.898 25.642 253.942 25.512 254.028 25.3426C254.115 23.1417 254.158 21.3976 254.158 20.1106C254.158 18.6863 253.989 16.8532 253.651 14.6118C254.021 13.9157 254.402 13.5674 254.796 13.5674C255.284 13.5674 255.579 13.7863 255.682 14.223C256.303 14.3692 256.855 14.8059 257.335 15.5347C257.335 15.7688 257.422 16.0277 257.595 16.3113L257.843 16.1897H257.973C258.138 17.3793 258.221 18.0312 258.221 18.1444H258.48V17.8892C258.842 17.8892 259.055 18.4958 259.118 19.7102C259.236 19.7102 259.406 20.321 259.626 21.5428C259.712 21.5428 259.756 21.5875 259.756 21.6764C259.756 21.7653 259.712 21.8101 259.626 21.8101L260.004 24.5534C259.917 25.0233 259.874 25.4152 259.874 25.7309V27.1631C259.874 27.3657 259.834 27.544 259.756 27.6977C259.834 27.8592 259.874 27.9886 259.874 28.086C259.567 31.3065 259.315 32.9176 259.118 32.9176L259.248 33.84V36.1945C259.248 36.3886 259.205 36.5628 259.118 36.7164C259.205 36.8706 259.248 37.0442 259.248 37.2389V37.372C259.248 37.5425 259.161 37.6272 258.988 37.6272C258.988 37.5383 258.945 37.4935 258.858 37.4935V37.6272L259.118 38.0155V38.2828L258.61 42.4709L257.973 43.5143C257.69 43.5143 257.434 43.6437 257.205 43.9031C257.205 43.992 257.248 44.0362 257.335 44.0362L257.205 45.3479V45.6026ZM216.174 18.7683C217.352 18.3179 218.458 17.9412 219.493 17.6387H219.606V17.8597C219.236 17.8812 219.051 17.9586 219.051 18.0927C218.387 18.1348 218.054 18.2864 218.054 18.5468H217.725C217.479 18.5468 217.222 18.6594 216.955 18.8846H216.174V18.7683ZM228.826 36.0365H228.938C228.938 35.8744 228.829 35.6456 228.61 35.3499V35.0121L228.713 34.7795L228.055 33.6393C226.836 32.3713 225.432 31.2343 223.842 30.2278C222.302 29.2912 221.527 28.7593 221.521 28.633C220.911 28.3652 219.288 27.3445 216.651 25.5703C215.206 24.7321 214.212 23.8593 213.671 22.9506C213.705 22.6481 213.815 22.4965 214 22.4965C214 21.9899 216.257 21.1691 218.175 20.3593C219.285 20.0494 219.839 19.7853 219.839 19.5669C221.751 18.9124 222.819 18.4936 223.045 18.3105C224.155 18.0569 224.71 17.8669 224.71 17.7401C224.874 17.7401 225.021 18.0079 225.151 18.543L225.038 18.7645C225.038 18.9198 225.148 18.9966 225.367 18.9966V19.1129C225.148 19.1129 225.038 19.226 225.038 19.4512C225.113 19.8311 225.336 20.3241 225.706 20.9297H226.035L225.922 20.6976H226.251C226.573 19.7116 226.833 19.2186 227.031 19.2186V18.9966C227.031 18.6235 227.141 18.2437 227.36 17.8559C227.285 17.7228 227.247 17.5707 227.247 17.4023C227.213 17.1419 226.624 16.6489 225.48 15.9239L223.6 15.3535H223.487C222.98 15.3535 222.429 15.4693 221.833 15.7018C219.757 16.1522 218.429 16.6063 217.846 17.0646L217.621 16.9483H217.405C217.028 17.2508 216.548 17.4408 215.966 17.5186L212.093 19.3349C210.497 20.1799 209.61 21.0533 209.432 21.9541C209.432 22.0667 209.616 22.5597 209.986 23.4326L209.873 23.6651C209.873 23.7288 210.021 24.0666 210.316 24.679C210.316 24.8832 210.5 25.112 210.87 25.3656C210.87 25.584 211.202 26.0381 211.866 26.7278C212.696 27.2419 213.322 27.7349 213.747 28.2063C214.487 28.34 214.857 28.5304 214.857 28.7767C216.309 29.5938 217.12 30.1252 217.291 30.372C219.161 31.4348 221.079 32.6844 223.045 34.1213C224.299 34.7827 224.926 35.2404 224.926 35.494C224.165 36.1201 221.915 36.6137 218.175 36.9725C218.175 36.8952 218.137 36.8562 218.062 36.8562C217.932 36.9336 217.784 36.9725 217.621 36.9725H213.305C212.127 36.9725 211.538 37.4266 211.538 38.3347V38.673C211.819 38.673 212.004 38.9408 212.093 39.4754L212.75 39.93C213.066 40.1547 213.288 40.2678 213.418 40.2678C213.836 40.5703 214.13 40.7213 214.302 40.7213C214.302 41.1091 215.004 41.3769 216.408 41.5248V41.63L216.295 41.862C216.897 41.862 217.267 41.9362 217.405 42.0841H217.733L218.401 41.9783L218.617 42.0841C219.679 41.9925 220.599 41.8804 221.381 41.7463C221.381 41.8236 221.418 41.862 221.494 41.862C222.953 41.6795 224.429 41.299 225.922 40.7213C226.395 40.6093 226.802 40.1163 227.144 39.2434H227.915L228.141 38.451V38.1027C228.141 37.9264 229.052 36.5363 228.826 36.0365Z" fill="#1D1D1F"/>
</svg>
